{"glyphs":{"0":{"ha":836,"x_min":1,"x_max":804,"o":"m 228 750 q 403 815 318 807 q 559 794 488 822 q 685 708 631 767 q 769 575 739 650 q 801 414 799 500 q 772 244 804 328 q 694 121 746 174 q 579 35 643 68 q 444 -8 515 3 q 305 -5 372 -18 q 179 47 238 8 q 83 150 121 85 q 14 334 26 246 q 23 499 1 422 q 98 638 44 575 q 228 750 151 701 m 558 53 q 642 115 611 68 q 685 227 674 163 q 688 365 696 292 q 653 506 679 439 q 583 627 626 574 q 481 706 539 681 q 305 749 369 751 q 206 705 240 746 q 158 590 171 664 q 139 419 146 515 q 167 261 133 338 q 260 131 200 185 q 397 53 319 76 q 558 53 475 29 "},"1":{"ha":315,"x_min":11,"x_max":228,"o":"m 89 -25 l 89 683 q 69 702 89 699 q 31 704 49 706 q 11 703 14 703 q 49 728 26 713 q 96 758 72 744 q 143 783 119 772 q 185 794 167 793 q 216 782 204 794 q 228 739 228 769 l 228 50 l 89 -25 "},"2":{"ha":743,"x_min":-6,"x_max":707,"o":"m -6 39 q 29 58 -6 39 q 117 110 64 76 q 231 191 169 143 q 345 296 292 239 q 435 419 399 353 q 472 556 471 485 q 454 635 474 599 q 404 699 435 672 q 338 738 374 725 q 270 746 303 751 q 213 713 238 740 q 183 633 189 686 l 50 567 q 110 669 68 624 q 203 744 151 714 q 314 788 256 774 q 425 801 372 803 q 519 778 478 799 q 578 717 560 757 q 589 597 603 660 q 540 472 575 533 q 457 353 506 410 q 365 255 408 297 q 292 187 322 213 q 261 161 261 161 q 397 99 329 113 q 519 92 464 85 q 617 117 574 99 q 683 150 661 135 q 707 167 706 165 q 572 60 629 99 q 470 6 514 22 q 392 -9 426 -10 q 326 1 357 -8 q 265 25 296 11 q 195 48 233 39 q 108 57 157 57 q -6 39 60 57 "},"3":{"ha":711,"x_min":22,"x_max":697,"o":"m 22 0 q 42 17 22 0 q 97 53 61 33 q 186 89 133 74 q 306 100 239 104 q 372 86 342 99 q 432 63 403 74 q 490 48 461 51 q 550 61 518 44 q 575 101 569 71 q 572 172 581 132 q 542 256 564 213 q 487 333 521 299 q 406 389 453 368 q 300 406 360 410 q 324 419 301 407 q 378 458 346 432 q 438 517 411 483 q 476 592 465 550 q 467 681 488 635 q 407 725 450 715 q 313 728 364 735 q 210 706 261 721 q 128 680 158 692 q 94 667 97 668 q 191 737 136 707 q 303 784 246 767 q 416 805 361 801 q 514 794 471 808 q 584 749 557 781 q 611 667 611 718 q 601 604 611 629 q 569 560 590 579 q 514 520 547 540 q 436 472 481 500 q 466 469 436 472 q 536 451 496 467 q 617 399 576 435 q 678 300 657 364 q 690 186 697 238 q 651 95 682 135 q 570 28 621 56 q 456 -11 519 1 q 379 -14 414 -19 q 313 1 344 -8 q 249 22 281 11 q 183 37 218 33 q 110 33 149 40 q 22 0 71 26 "},"4":{"ha":878,"x_min":17,"x_max":844,"o":"m 17 250 q 36 270 17 250 q 83 326 56 290 q 138 410 110 363 q 186 514 167 458 q 209 630 206 569 q 189 750 213 690 l 317 811 q 341 636 349 715 q 306 499 333 557 q 243 401 279 442 q 183 342 207 361 q 156 322 158 324 l 528 322 l 528 767 l 667 817 l 667 322 l 844 322 l 744 250 l 667 250 l 667 39 l 528 -44 l 528 250 l 17 250 "},"5":{"ha":778,"x_min":28,"x_max":735,"o":"m 50 367 l 50 722 q 67 747 50 729 q 101 775 83 764 q 143 793 121 786 q 178 800 165 800 l 728 800 l 589 717 l 189 717 l 189 456 q 222 470 189 454 q 308 503 256 486 q 423 532 360 521 q 545 531 486 543 q 652 474 604 518 q 722 339 700 431 q 703 235 735 288 q 611 139 671 183 q 473 62 551 94 q 313 17 394 29 q 156 16 232 4 q 28 72 81 28 l 150 144 q 243 99 190 115 q 351 81 296 83 q 457 91 406 79 q 544 127 508 103 q 596 190 581 151 q 594 278 611 228 q 514 406 565 365 q 401 456 463 446 q 278 453 340 465 q 165 421 217 440 q 82 384 114 401 q 50 367 50 367 "},"6":{"ha":757,"x_min":21,"x_max":708,"o":"m 28 261 q 88 456 39 372 q 205 598 138 539 q 347 695 272 657 q 486 756 422 733 q 592 786 550 778 q 633 794 633 794 q 535 752 585 772 q 436 708 485 732 q 342 651 388 683 q 260 572 297 618 q 194 464 222 526 q 150 317 165 401 q 167 208 139 258 q 242 122 194 157 q 349 72 290 88 q 460 65 408 56 q 546 114 511 75 q 581 228 581 153 q 560 340 581 299 q 508 399 539 382 q 440 414 476 417 q 374 395 404 411 q 322 353 343 379 q 303 300 301 328 q 285 287 303 299 q 247 263 268 275 q 210 241 226 250 q 194 236 193 232 q 249 332 207 286 q 347 411 290 378 q 465 461 403 444 q 579 469 526 478 q 667 424 632 461 q 706 314 703 388 q 679 185 708 242 q 601 88 650 128 q 488 24 551 47 q 358 -3 424 1 q 229 5 292 -8 q 119 51 167 18 q 47 135 72 83 q 28 261 21 188 "},"7":{"ha":750,"x_min":28,"x_max":735,"o":"m 28 590 l 28 733 q 46 751 28 736 q 82 775 64 767 q 117 789 100 783 q 150 794 133 794 l 733 794 q 721 778 735 794 q 683 733 707 761 q 629 667 660 704 q 569 587 599 629 q 512 501 539 544 q 467 417 485 457 q 424 295 443 363 q 393 169 406 228 q 374 69 381 110 q 367 28 367 28 l 228 -47 q 235 -1 228 -47 q 256 115 242 46 q 294 262 271 183 q 347 403 317 340 q 418 517 375 461 q 501 619 461 574 q 571 692 542 664 q 600 719 600 719 l 167 719 l 167 661 l 28 590 "},"8":{"ha":658,"x_min":7,"x_max":597,"o":"m 10 181 q 47 285 13 242 q 121 357 81 329 q 194 398 161 385 q 226 411 226 411 q 148 479 183 449 q 90 540 113 510 q 63 605 68 571 q 74 681 57 639 q 126 749 90 724 q 208 786 163 775 q 305 794 254 797 q 400 778 356 792 q 478 740 444 764 q 522 682 511 715 q 529 609 536 640 q 499 551 522 578 q 437 499 475 524 q 353 450 399 475 q 391 431 353 450 q 475 380 429 413 q 559 303 521 347 q 597 210 597 260 q 553 88 597 138 q 442 14 508 39 q 299 -13 376 -11 q 157 6 222 -15 q 49 70 92 26 q 10 181 7 114 m 190 758 q 176 659 168 706 q 208 577 185 613 q 261 516 232 542 q 311 478 290 490 q 333 464 332 465 q 408 539 386 497 q 415 633 431 581 q 370 703 404 672 q 299 751 336 733 q 229 772 261 768 q 190 758 197 775 m 250 399 q 176 356 207 386 q 130 287 144 325 q 119 209 115 249 q 150 140 122 169 q 214 91 176 113 q 291 58 251 69 q 369 47 331 46 q 436 62 408 47 q 477 108 464 76 q 481 193 490 140 q 437 267 474 231 q 358 333 400 304 q 283 381 317 363 q 250 399 250 399 "},"9":{"ha":676,"x_min":11,"x_max":628,"o":"m 344 400 q 185 344 251 346 q 80 374 119 343 q 26 460 40 406 q 21 572 11 514 q 64 681 31 629 q 153 761 97 733 q 324 809 246 807 q 462 783 403 811 q 560 702 521 756 q 613 583 599 649 q 617 444 628 517 q 567 303 607 371 q 453 143 510 207 q 347 44 396 79 q 260 -10 299 8 q 200 -32 221 -28 q 178 -36 179 -36 q 343 85 274 13 q 452 240 413 158 q 499 402 492 321 q 481 550 507 483 q 404 674 449 626 q 312 740 360 721 q 219 753 264 760 q 144 719 175 747 q 100 644 113 692 q 106 531 88 596 q 162 438 122 467 q 242 401 201 410 q 313 397 282 393 q 344 400 344 400 "},"\u0007":{"ha":694,"x_min":0,"x_max":0,"o":""},"\u0005":{"ha":556,"x_min":106,"x_max":450,"o":"m 450 525 q 438 508 450 525 q 403 472 426 492 q 349 435 381 451 q 278 417 317 418 q 201 432 233 415 q 147 469 168 449 q 116 508 126 490 q 106 525 106 525 q 200 483 160 497 q 278 468 240 468 q 356 483 315 468 q 450 525 396 497 "},"\u0006":{"ha":556,"x_min":186,"x_max":369,"o":"m 203 571 q 237 599 217 589 q 278 608 257 608 q 318 599 299 608 q 353 571 338 589 q 369 526 369 550 q 358 483 369 503 q 325 449 346 463 q 278 436 304 436 q 231 449 253 436 q 199 483 210 463 q 187 526 188 503 q 203 571 186 550 "},"\b":{"ha":556,"x_min":182,"x_max":369,"o":"m 199 557 q 234 587 214 576 q 276 598 254 597 q 318 589 297 599 q 354 558 339 579 q 369 513 369 538 q 358 467 369 489 q 326 430 347 444 q 278 415 304 415 q 228 429 250 415 q 194 464 207 443 q 182 510 182 485 q 199 557 182 535 m 278 432 q 339 463 322 433 q 328 542 356 493 q 301 571 317 560 q 269 583 286 582 q 237 575 253 585 q 211 544 221 565 q 208 510 204 529 q 224 473 213 490 q 249 444 235 456 q 278 432 264 432 "},"\n":{"ha":556,"x_min":81,"x_max":492,"o":"m 250 404 q 274 417 250 404 q 330 452 299 429 q 390 506 361 475 q 428 574 418 536 q 440 580 429 583 q 463 568 451 576 q 483 551 474 560 q 492 540 492 542 q 453 478 476 501 q 398 441 429 456 q 329 419 367 426 q 250 404 292 411 m 81 404 q 105 417 81 404 q 160 452 129 429 q 220 506 192 475 q 258 574 249 536 q 271 580 260 583 q 293 568 282 576 q 313 551 304 560 q 322 540 322 542 q 283 478 307 501 q 228 441 260 456 q 160 419 197 426 q 81 404 122 411 "},"\u000b":{"ha":556,"x_min":206,"x_max":399,"o":"m 325 0 q 306 -33 317 -17 q 288 -64 294 -49 q 283 -94 282 -79 q 296 -121 283 -108 q 326 -135 308 -133 q 360 -132 344 -136 q 388 -122 376 -128 q 399 -117 399 -117 q 376 -162 399 -144 q 324 -184 354 -179 q 264 -181 294 -189 q 217 -149 233 -172 q 206 -109 206 -133 q 213 -61 207 -85 q 228 -20 219 -37 q 242 0 238 -3 l 325 0 "},"\f":{"ha":556,"x_min":107,"x_max":406,"o":"m 390 561 l 406 549 q 387 534 406 549 q 344 498 368 519 q 296 451 319 476 q 261 407 272 426 q 242 428 258 410 q 190 473 226 446 q 107 517 153 500 l 163 564 q 206 538 183 553 q 247 507 229 522 q 277 481 265 492 q 289 471 289 471 q 315 502 299 486 q 349 531 332 518 q 378 553 365 544 q 390 561 390 561 "},"\r":{"ha":340,"x_min":47,"x_max":343,"o":"m 110 8 q 77 51 82 26 q 78 102 72 75 q 94 157 83 129 q 107 210 104 185 q 99 258 110 236 q 51 294 88 279 q 54 303 47 296 q 75 319 61 310 q 106 340 89 329 q 140 357 124 350 q 169 367 157 364 q 186 364 182 369 q 219 301 211 332 q 226 242 228 269 q 217 190 225 214 q 202 144 208 165 q 194 106 196 124 q 206 78 193 89 q 248 64 222 61 q 296 74 274 67 q 331 88 318 82 q 333 83 343 93 q 311 63 333 83 q 256 24 289 43 q 183 -5 222 4 q 110 8 144 -14 "},"\u0019":{"ha":382,"x_min":17,"x_max":335,"o":"m 17 0 l 257 800 l 335 800 l 94 0 l 17 0 "},"\u001c":{"ha":800,"x_min":0,"x_max":796,"o":"m 117 357 l 31 308 l 31 374 l 117 424 l 117 567 q 99 627 117 606 q 58 659 81 649 q 18 671 36 669 q 0 672 0 672 q 87 739 42 707 q 169 787 132 771 q 231 797 207 803 q 256 747 256 790 l 256 504 l 372 572 l 372 501 l 256 435 l 256 94 l 764 94 q 785 77 796 94 q 740 33 774 60 q 658 -24 706 7 q 567 -83 610 -56 q 582 -70 567 -83 q 608 -42 597 -57 q 613 -13 618 -26 q 567 0 608 0 l 81 0 l 117 39 l 117 357 "},"\u001d":{"ha":607,"x_min":0,"x_max":642,"o":"m 99 386 l 0 331 l 0 396 l 99 453 l 99 469 q 84 583 99 542 q 53 646 69 624 q 21 678 36 668 q 6 694 6 688 q 24 715 6 703 q 93 756 43 726 q 119 776 100 760 q 160 799 139 793 q 197 783 181 804 q 213 692 213 763 l 213 519 l 342 594 l 342 524 l 213 450 l 213 261 q 242 154 213 197 q 326 94 271 111 q 461 89 382 76 q 640 147 540 101 q 608 123 642 147 q 518 68 574 99 q 394 13 463 38 q 260 -11 326 -11 q 199 1 228 -11 q 147 35 169 13 q 112 89 125 57 q 99 161 99 121 l 99 386 "},"\u001e":{"ha":1132,"x_min":0,"x_max":1117,"o":"m 67 639 q 103 671 67 639 q 204 738 139 703 q 360 797 269 774 q 561 806 451 821 q 642 790 608 799 q 703 773 675 781 q 759 760 732 765 q 821 757 786 756 q 902 767 856 758 q 1017 794 949 775 q 991 781 1017 794 q 928 747 965 768 q 852 698 892 725 q 783 642 813 671 l 261 119 q 285 124 261 119 q 343 132 308 128 q 418 140 378 136 q 492 144 458 144 q 574 133 532 144 q 663 108 617 121 q 760 86 710 96 q 866 81 810 76 q 985 108 922 85 q 1117 183 1047 131 q 1093 160 1117 183 q 1026 104 1069 136 q 923 38 983 72 q 790 -17 863 4 q 633 -37 718 -37 q 461 -3 550 -37 q 331 33 392 24 q 215 39 271 42 q 107 27 160 36 q 0 10 54 18 q 23 22 3 11 q 77 55 43 32 q 139 106 111 78 l 669 636 q 654 638 669 636 q 617 641 639 639 q 574 645 596 643 q 540 649 553 647 q 440 675 490 656 q 332 705 389 694 q 210 704 275 715 q 67 639 144 693 m 788 992 l 803 979 q 784 965 803 979 q 741 928 765 950 q 693 882 717 907 q 658 838 669 857 q 640 858 656 840 q 587 903 624 876 q 504 947 550 931 l 560 994 q 603 968 581 983 q 644 938 626 953 q 674 912 663 922 q 686 901 686 901 q 713 933 696 917 q 746 962 729 949 q 775 983 763 975 q 788 992 788 992 "},"\u001f":{"ha":774,"x_min":-6,"x_max":767,"o":"m -4 225 q 115 331 57 297 q 227 374 172 364 q 338 379 282 385 q 450 369 393 374 q 567 367 507 364 q 696 397 628 369 q 660 374 696 397 q 570 314 624 350 q 454 236 517 278 q 339 158 392 194 q 251 99 286 122 q 218 75 217 75 q 326 74 281 79 q 408 63 372 69 q 475 50 444 56 q 539 47 506 44 q 629 64 588 51 q 701 90 671 76 q 749 115 732 104 q 767 125 767 125 q 623 10 688 47 q 501 -37 558 -26 q 390 -42 443 -49 q 280 -26 336 -35 q 161 -15 224 -18 q 24 -28 99 -11 q 56 -5 22 -28 q 140 53 89 18 q 250 129 190 89 q 360 205 310 169 q 445 263 411 240 q 478 286 479 286 q 380 266 428 267 q 290 270 332 265 q 215 282 249 275 q 158 286 181 289 q 86 269 117 281 q 35 248 56 258 q 4 230 14 238 q -4 225 -6 222 m 524 567 l 539 554 q 520 540 539 554 q 477 503 501 525 q 429 457 453 482 q 394 413 406 432 q 384 425 394 413 q 353 455 374 438 q 305 491 333 472 q 240 522 276 510 l 296 569 q 340 543 317 558 q 381 513 363 528 q 410 487 399 497 q 422 476 422 476 q 449 508 432 492 q 482 537 465 524 q 511 558 499 550 q 524 567 524 567 "}," ":{"ha":556,"x_min":0,"x_max":0,"o":""},"!":{"ha":225,"x_min":49,"x_max":163,"o":"m 163 813 l 163 250 l 49 188 l 49 736 l 163 813 m 49 104 l 163 181 l 163 63 l 49 0 l 49 104 "},"\"":{"ha":272,"x_min":22,"x_max":213,"o":"m 144 753 q 153 764 144 754 q 174 782 163 774 q 197 793 186 790 q 208 786 207 796 q 212 738 211 761 q 210 693 213 715 q 197 647 207 671 q 169 593 188 622 q 167 609 169 593 q 163 649 165 625 q 155 701 160 674 q 144 753 150 729 m 22 753 q 31 764 22 754 q 52 782 40 774 q 74 793 64 790 q 86 786 85 796 q 90 738 89 761 q 88 693 90 715 q 75 647 85 671 q 47 593 65 622 q 45 609 47 593 q 40 649 43 625 q 33 701 38 674 q 22 753 28 729 "},"#":{"ha":572,"x_min":6,"x_max":546,"o":"m 78 388 l 129 489 l 6 489 l 72 533 l 151 533 l 189 608 l 64 608 l 131 653 l 213 653 l 238 704 l 322 739 l 276 653 l 367 653 l 392 704 l 478 739 l 432 653 l 546 653 l 481 608 l 411 608 l 372 533 l 499 533 l 429 489 l 351 489 l 328 444 l 235 392 l 283 489 l 196 489 l 161 424 l 78 388 m 217 532 l 306 532 l 344 608 l 254 608 l 217 532 "},"$":{"ha":731,"x_min":35,"x_max":696,"o":"m 349 388 q 319 393 346 388 q 251 414 293 399 q 171 453 210 429 q 106 515 132 478 q 85 604 79 553 q 119 691 90 656 q 185 747 147 726 q 260 779 222 768 q 323 794 299 790 q 349 797 347 797 l 349 832 q 361 840 349 832 q 385 850 374 847 q 410 857 396 853 q 425 861 425 861 l 425 797 q 446 797 425 797 q 503 793 467 797 q 589 778 539 789 q 696 744 639 767 l 550 682 q 515 733 536 715 q 474 760 493 751 q 440 770 454 768 q 425 772 425 772 l 425 504 q 454 496 428 504 q 522 467 481 488 q 601 415 564 447 q 660 333 638 382 q 671 219 682 285 q 620 116 660 157 q 537 50 581 75 q 459 15 493 25 q 425 4 425 4 l 425 -39 q 413 -58 425 -53 q 388 -65 400 -62 q 375 -72 382 -67 q 363 -81 368 -76 q 353 -86 357 -85 q 349 -81 349 -87 l 349 4 q 323 1 349 4 q 254 6 297 -1 q 154 35 211 13 q 35 106 97 57 q 56 117 35 106 q 102 143 76 129 q 149 168 128 157 q 169 179 169 179 q 219 95 189 125 q 278 51 250 65 q 328 33 307 36 q 349 29 349 29 l 349 388 m 349 771 q 323 768 349 771 q 267 749 297 765 q 215 697 238 732 q 199 600 192 663 q 225 561 201 576 q 276 537 249 546 q 326 524 304 528 q 349 521 349 521 l 349 771 m 425 29 q 442 34 426 29 q 481 51 457 39 q 526 81 504 63 q 564 130 549 100 q 578 200 579 160 q 551 276 575 244 q 499 327 528 307 q 448 357 471 347 q 425 367 425 367 l 425 29 "},"%":{"ha":639,"x_min":3,"x_max":604,"o":"m 15 699 q 50 746 25 725 q 106 781 75 767 q 173 803 138 796 q 239 808 208 810 q 292 795 269 807 q 322 760 315 783 q 319 705 331 731 q 286 657 308 679 q 235 618 264 635 q 182 592 207 601 q 113 583 147 579 q 52 601 78 586 q 15 642 26 617 q 15 699 3 668 m 86 700 q 105 656 88 674 q 145 628 122 638 q 190 617 168 618 q 222 622 211 615 q 244 650 236 632 q 254 689 253 668 q 248 731 256 710 q 222 765 240 751 q 174 787 199 785 q 129 778 149 789 q 97 747 110 768 q 86 700 85 726 m 64 -6 l 436 739 q 445 750 438 743 q 463 764 453 757 q 482 777 472 771 q 496 786 492 783 q 511 792 501 788 q 530 798 521 796 q 544 801 539 800 q 549 797 550 801 l 176 53 q 158 33 175 50 q 121 10 140 17 q 102 2 113 7 q 82 -6 92 -3 q 67 -10 72 -10 q 64 -6 61 -11 m 288 124 q 349 190 303 163 q 446 228 394 218 q 541 229 497 239 q 596 185 585 219 q 592 131 604 157 q 558 83 581 104 q 508 44 536 61 q 454 17 479 26 q 386 8 421 4 q 325 26 351 11 q 287 67 299 42 q 288 124 275 93 m 358 125 q 377 81 360 99 q 417 53 394 63 q 462 42 440 43 q 494 47 483 40 q 517 75 508 57 q 526 114 525 93 q 520 156 528 135 q 494 190 513 176 q 446 212 471 210 q 401 203 421 214 q 369 172 382 193 q 358 125 357 151 "},"&":{"ha":836,"x_min":-1,"x_max":806,"o":"m 39 33 q 3 141 8 93 q 11 226 -1 189 q 49 292 24 264 q 108 339 75 319 q 176 371 140 358 q 242 389 211 383 q 228 409 242 389 q 202 460 215 429 q 181 528 189 492 q 183 597 172 565 q 235 665 194 632 q 324 718 275 697 q 420 744 374 739 q 489 733 467 750 q 552 644 546 690 q 536 560 558 599 q 479 488 514 521 q 418 438 444 456 q 389 419 392 421 l 506 200 q 532 217 506 199 q 600 251 558 235 q 693 273 642 268 q 794 250 744 278 l 689 183 q 622 221 653 217 q 567 217 590 225 q 531 196 544 208 q 517 183 517 183 q 574 101 539 142 q 649 35 610 61 q 730 7 689 10 q 806 39 771 4 q 784 13 804 36 q 725 -35 764 -10 q 636 -67 686 -61 q 524 -37 586 -72 q 397 94 463 -3 q 369 71 394 93 q 298 20 343 49 q 205 -25 253 -8 q 112 -31 157 -42 q 39 33 67 -21 m 250 372 q 235 369 250 372 q 199 354 219 365 q 160 324 179 343 q 131 273 140 304 q 126 199 121 242 q 161 97 131 156 q 211 49 182 58 q 271 47 240 39 q 328 70 301 54 q 372 99 356 86 q 389 114 388 113 l 250 372 m 461 653 q 430 678 453 664 q 381 698 407 693 q 331 692 356 703 q 297 642 307 681 q 308 599 294 632 q 337 529 321 565 q 367 465 353 493 q 381 436 381 436 q 427 465 404 442 q 464 521 450 489 q 479 588 478 553 q 461 653 481 624 "},"'":{"ha":160,"x_min":53,"x_max":124,"o":"m 53 533 q 62 544 53 535 q 82 563 71 554 q 103 574 93 571 q 117 567 114 576 q 123 525 122 543 q 119 487 124 507 q 105 440 115 467 q 78 374 94 414 q 76 390 78 374 q 71 430 74 406 q 63 482 68 454 q 53 533 58 510 "},"(":{"ha":319,"x_min":96,"x_max":324,"o":"m 324 865 q 303 829 324 865 q 260 727 283 793 q 216 570 236 661 q 196 369 196 479 q 215 176 196 265 q 256 22 233 88 q 298 -80 279 -43 q 317 -117 317 -117 l 211 -189 q 193 -162 211 -189 q 153 -78 175 -136 q 114 71 132 -21 q 96 294 96 163 q 127 554 96 446 q 198 731 158 663 q 274 833 238 800 q 324 865 311 865 "},")":{"ha":278,"x_min":17,"x_max":244,"o":"m 17 -199 q 37 -162 17 -199 q 81 -60 57 -126 q 124 97 104 6 q 144 297 144 188 q 126 490 144 401 q 84 644 107 579 q 42 747 61 710 q 24 783 24 783 l 129 856 q 147 829 129 856 q 187 745 165 803 q 226 595 208 688 q 244 372 244 503 q 213 113 244 221 q 142 -65 182 4 q 66 -166 103 -133 q 17 -199 29 -199 "},"*":{"ha":314,"x_min":65,"x_max":251,"o":"m 174 610 l 251 532 l 239 519 l 167 592 l 167 506 l 150 489 l 150 592 l 78 519 l 65 532 l 143 610 l 65 688 l 78 700 l 150 628 l 150 714 l 167 731 l 167 628 l 239 700 l 251 688 l 174 610 "},"+":{"ha":571,"x_min":0,"x_max":528,"o":"m 242 293 l 0 293 l 153 369 l 242 369 l 242 519 l 286 547 l 286 369 l 528 369 l 375 293 l 286 293 l 286 140 l 242 115 l 242 293 "},",":{"ha":160,"x_min":19,"x_max":128,"o":"m 53 33 q 62 44 53 35 q 82 63 71 54 q 103 74 93 71 q 117 67 114 76 q 103 -34 128 19 q 19 -124 79 -87 q 26 -108 19 -124 q 41 -68 33 -92 q 53 -17 49 -44 q 53 33 58 10 "},"-":{"ha":642,"x_min":44,"x_max":572,"o":"m 197 264 l 572 264 l 419 188 l 44 188 l 197 264 "},".":{"ha":174,"x_min":21,"x_max":161,"o":"m 21 47 q 35 52 21 47 q 65 62 49 57 q 96 71 82 67 q 110 75 110 75 q 123 58 118 68 q 133 36 128 47 q 144 15 138 25 q 160 -1 150 4 q 147 -6 161 -1 q 113 -16 132 -11 q 78 -24 94 -21 q 61 -28 63 -28 q 46 -13 50 -22 q 39 6 42 -4 q 33 27 36 17 q 21 47 31 38 "},"/":{"ha":433,"x_min":17,"x_max":411,"o":"m 17 0 l 333 800 l 411 800 l 94 0 l 17 0 "},":":{"ha":174,"x_min":15,"x_max":161,"o":"m 21 47 q 35 52 21 47 q 65 62 49 57 q 96 71 82 67 q 110 75 110 75 q 123 58 118 68 q 133 36 128 47 q 144 15 138 25 q 160 -1 150 4 q 147 -6 161 -1 q 113 -16 132 -11 q 78 -24 94 -21 q 61 -28 63 -28 q 46 -13 50 -22 q 39 6 42 -4 q 33 27 36 17 q 21 47 31 38 m 15 325 q 29 330 15 325 q 60 340 43 335 q 90 349 76 344 q 104 353 104 353 q 117 335 113 346 q 127 314 122 325 q 138 292 132 303 q 154 276 144 282 q 141 272 156 276 q 108 262 126 267 q 73 253 89 257 q 56 250 57 250 q 40 265 44 256 q 33 284 36 274 q 28 305 31 294 q 15 325 25 315 "},";":{"ha":160,"x_min":15,"x_max":156,"o":"m 53 33 q 62 44 53 35 q 82 63 71 54 q 103 74 93 71 q 117 67 114 76 q 103 -34 128 19 q 19 -124 79 -87 q 26 -108 19 -124 q 41 -68 33 -92 q 53 -17 49 -44 q 53 33 58 10 m 15 325 q 29 330 15 325 q 60 340 43 335 q 90 349 76 344 q 104 353 104 353 q 117 335 113 346 q 127 314 122 325 q 138 292 132 303 q 154 276 144 282 q 141 272 156 276 q 108 262 126 267 q 73 253 89 257 q 56 250 57 250 q 40 265 44 256 q 33 284 36 274 q 28 305 31 294 q 15 325 25 315 "},"<":{"ha":356,"x_min":7,"x_max":338,"o":"m 335 597 q 326 538 338 574 q 287 466 314 503 q 218 398 260 429 q 118 351 176 367 q 148 335 118 351 q 215 288 178 318 q 287 216 253 258 q 329 124 321 174 l 246 83 q 177 184 218 142 q 99 255 136 226 q 34 297 61 283 q 7 310 7 310 q 68 342 32 328 q 140 381 104 357 q 205 446 175 406 q 247 556 235 486 l 335 597 "},"=":{"ha":600,"x_min":44,"x_max":572,"o":"m 197 221 l 572 221 l 419 144 l 44 144 l 197 221 m 197 381 l 572 381 l 419 304 l 44 304 l 197 381 "},">":{"ha":358,"x_min":13,"x_max":343,"o":"m 15 83 q 24 142 13 107 q 63 215 36 178 q 132 283 90 251 q 232 329 174 314 q 202 346 232 329 q 135 392 172 363 q 63 465 97 422 q 21 557 29 507 l 104 597 q 173 497 132 539 q 251 426 214 454 q 316 384 289 397 q 343 371 343 371 q 282 338 318 353 q 210 299 246 324 q 145 235 175 275 q 103 125 115 194 l 15 83 "},"?":{"ha":621,"x_min":-3,"x_max":579,"o":"m 0 532 q 31 622 -3 576 q 118 703 64 667 q 238 765 172 740 q 367 795 304 790 q 478 781 429 800 q 550 710 528 761 q 565 591 579 640 q 515 506 550 542 q 433 440 479 469 q 353 381 388 411 q 308 317 319 351 q 294 256 296 283 q 298 209 293 228 q 303 190 303 190 l 194 124 l 194 246 q 222 308 194 279 q 289 365 250 336 q 369 423 328 393 q 437 488 410 453 q 468 567 464 524 q 438 664 472 610 q 381 720 414 700 q 310 746 347 740 q 238 744 274 751 q 176 718 203 736 q 133 672 149 700 q 121 608 117 643 l 0 532 m 194 44 l 303 113 l 303 13 l 194 -56 l 194 44 "},"@":{"ha":826,"x_min":-3,"x_max":761,"o":"m 115 185 q 112 265 96 229 q 165 327 128 301 q 251 369 201 353 q 350 393 301 386 q 438 398 399 400 q 494 385 478 396 q 516 384 499 382 q 549 393 533 386 q 548 388 551 394 q 544 364 544 381 q 549 319 543 347 q 578 250 556 292 q 616 202 596 217 q 654 188 636 188 q 685 201 672 188 q 702 238 699 214 q 697 296 706 263 q 664 369 689 329 q 587 432 640 407 q 467 465 533 457 q 330 465 401 474 q 197 425 258 456 q 93 342 136 394 q 40 213 50 290 q 67 113 32 150 q 160 58 101 76 q 294 38 219 40 q 440 41 368 35 q 574 58 513 47 q 668 78 635 68 q 664 72 676 81 q 633 51 651 63 q 597 28 614 39 q 581 18 581 18 q 444 4 514 10 q 309 1 375 -1 q 186 14 243 3 q 87 49 129 25 q 21 115 44 74 q 0 218 -3 156 q 42 342 3 288 q 141 432 81 396 q 276 485 201 468 q 427 501 351 503 q 572 477 503 499 q 692 413 642 456 q 731 362 714 393 q 755 297 749 331 q 753 235 761 264 q 718 190 746 206 q 591 138 642 147 q 513 137 540 128 q 472 165 485 146 q 456 199 458 183 q 453 215 453 214 q 414 183 440 200 q 354 153 388 167 q 284 131 321 139 q 214 125 247 124 q 154 140 181 126 q 115 185 128 154 m 224 300 q 247 206 224 233 q 303 175 271 178 q 371 184 336 172 q 428 208 406 196 q 451 221 450 219 l 411 329 q 392 335 410 329 q 345 346 374 340 q 290 351 317 351 q 243 339 263 350 q 224 300 224 328 "},"A":{"ha":1063,"x_min":0,"x_max":1054,"o":"m 6 -28 q 17 -1 0 -24 q 62 60 33 21 q 125 152 90 99 q 190 273 160 206 q 242 420 221 340 q 263 590 263 500 q 250 721 263 651 q 267 740 250 725 q 303 770 283 754 q 340 799 324 786 q 357 811 357 811 q 535 529 454 647 q 682 329 615 411 q 801 197 749 247 q 894 119 853 147 q 963 83 935 92 q 1011 74 992 74 q 1040 81 1026 74 q 1054 89 1054 89 q 1046 74 1054 89 q 1019 41 1038 58 q 973 8 1001 24 q 906 -7 944 -7 q 807 22 854 -7 q 723 84 760 50 q 664 147 686 118 q 642 175 642 175 q 409 138 507 160 q 244 91 311 115 q 133 43 176 67 q 65 2 90 19 q 26 -24 39 -15 q 6 -28 14 -33 m 182 114 q 336 168 263 146 q 466 204 410 190 q 556 225 522 218 q 589 232 589 232 q 530 308 563 264 q 468 390 497 351 q 419 456 439 429 q 400 482 400 482 q 344 356 381 421 q 271 237 307 290 q 208 149 235 183 q 182 114 182 114 "},"B":{"ha":863,"x_min":-15,"x_max":844,"o":"m 86 90 l 86 565 q 67 593 86 582 q 28 613 47 604 q -3 626 8 621 q 0 639 -15 632 q 98 696 57 664 q 166 749 139 728 q 206 773 193 771 q 218 740 218 775 l 218 699 q 247 711 218 699 q 320 739 275 724 q 421 769 365 754 q 531 790 476 785 q 633 788 586 796 q 708 750 681 781 q 774 649 761 693 q 775 570 786 604 q 737 512 764 536 q 683 472 710 488 q 635 449 656 457 q 619 442 615 442 q 751 400 701 428 q 822 335 800 372 q 841 256 844 299 q 814 172 838 214 q 749 90 790 129 q 653 21 707 51 q 531 -22 596 -11 q 403 -30 467 -33 q 283 -12 340 -26 q 181 22 225 3 q 112 59 138 40 q 86 90 86 78 m 218 642 l 218 415 q 249 420 218 415 q 326 431 281 425 q 422 440 371 436 q 514 444 474 444 q 609 465 576 443 q 650 518 642 486 q 645 586 658 550 q 603 649 632 622 q 551 676 586 664 q 474 697 517 689 q 385 706 431 704 q 303 701 340 707 q 242 681 265 696 q 218 642 218 667 m 218 367 l 218 174 q 253 131 218 154 q 340 89 288 108 q 454 56 392 69 q 572 43 517 43 q 668 58 628 43 q 717 111 708 74 q 701 231 732 179 q 615 317 671 282 q 491 373 560 353 q 362 399 422 393 q 260 396 301 404 q 218 367 218 388 "},"C":{"ha":946,"x_min":-7,"x_max":938,"o":"m 938 731 q 911 716 938 731 q 852 683 885 701 q 792 651 819 665 q 765 636 765 636 q 503 731 617 708 q 312 728 389 753 q 194 635 235 704 q 154 456 154 565 q 189 317 154 381 q 283 206 224 254 q 418 128 342 158 q 576 88 494 97 q 736 91 657 78 q 882 144 815 104 q 867 133 886 147 q 812 99 849 119 q 723 54 775 78 q 609 15 671 31 q 479 -3 547 0 q 341 11 411 -7 q 203 75 271 29 q 74 203 135 121 q -2 390 3 297 q 39 561 -7 482 q 174 699 85 640 q 383 786 264 758 q 644 803 503 814 q 938 731 786 792 "},"D":{"ha":1156,"x_min":0,"x_max":1142,"o":"m 661 -6 q 457 -9 539 -15 q 324 24 375 -3 q 251 99 274 50 q 226 225 228 149 q 237 406 224 301 q 272 650 250 511 q 244 648 272 650 q 175 654 217 646 q 86 687 133 663 q 0 764 39 711 l 150 868 q 155 861 160 865 q 150 849 150 857 q 165 827 150 840 q 231 794 181 814 q 373 759 297 768 q 526 748 449 750 q 680 744 604 746 q 824 733 756 743 q 949 699 892 724 q 1044 624 1006 674 q 1124 469 1106 544 q 1126 326 1142 393 q 1065 200 1110 258 q 958 99 1021 142 q 818 28 894 56 q 661 -6 742 0 m 383 640 q 373 609 383 640 q 354 523 363 578 q 346 394 346 468 q 367 239 346 322 q 429 140 382 181 q 540 78 476 100 q 677 56 604 57 q 815 73 750 54 q 928 130 879 92 q 994 226 976 168 q 1003 422 1028 340 q 901 554 979 503 q 692 626 822 606 q 383 640 561 647 "},"E":{"ha":1042,"x_min":-6,"x_max":1042,"o":"m 69 172 q 10 281 25 221 q 5 406 -6 342 q 50 532 15 469 q 141 647 85 594 q 273 739 197 700 q 441 794 349 778 q 642 801 533 811 q 869 744 750 790 l 769 647 q 494 722 606 710 q 310 715 382 733 q 201 658 239 696 q 146 581 163 619 q 127 513 129 542 q 125 483 125 483 l 875 483 q 934 490 904 483 q 988 505 964 497 q 1027 519 1013 513 q 1042 525 1042 525 q 1001 492 1028 511 q 942 454 975 472 q 874 424 910 436 q 806 411 839 411 l 125 411 q 124 400 125 411 q 127 371 124 389 q 139 330 131 353 q 164 283 147 307 q 213 225 181 260 q 289 157 244 190 q 390 97 333 124 q 513 62 447 71 q 653 66 579 53 q 808 128 728 79 q 788 107 807 126 q 732 59 769 88 q 644 6 694 31 q 530 -31 594 -19 q 392 -31 465 -43 q 238 30 319 -18 q 69 172 156 78 "},"F":{"ha":1046,"x_min":0,"x_max":1108,"o":"m 142 -356 l 142 567 q 119 622 142 604 q 71 644 97 639 q 22 649 44 650 q 0 647 0 647 q 65 697 32 671 q 128 747 97 724 q 188 786 160 769 q 236 806 215 803 q 269 797 257 810 q 281 750 281 785 l 281 681 q 319 698 281 681 q 422 738 357 715 q 571 779 486 760 q 747 802 656 799 q 933 786 839 806 q 1108 711 1026 767 l 942 622 q 732 709 833 688 q 550 724 631 731 q 407 697 469 717 q 314 658 344 676 q 281 639 283 640 l 281 128 l 1053 128 l 897 50 l 281 50 l 281 -233 l 142 -356 "},"G":{"ha":1035,"x_min":-1,"x_max":975,"o":"m 63 194 q 4 380 -1 285 q 67 558 10 475 q 222 703 124 640 q 444 793 321 767 q 704 801 567 819 q 975 704 842 783 l 846 606 q 545 728 674 704 q 331 726 417 751 q 199 636 244 700 q 147 497 154 572 q 167 344 139 421 q 257 217 194 268 q 410 116 339 149 q 540 73 481 83 q 647 70 600 63 q 725 90 693 78 q 774 115 757 103 q 790 128 790 128 l 790 283 l 929 361 l 929 39 q 907 -46 929 -6 q 853 -117 885 -86 q 789 -173 822 -149 q 735 -209 756 -197 q 713 -222 714 -221 q 767 -125 750 -179 q 789 -23 783 -71 q 792 58 794 25 q 790 92 790 92 q 620 5 719 29 q 417 -6 521 -19 q 219 57 314 7 q 63 194 125 107 "},"H":{"ha":1074,"x_min":0,"x_max":1032,"o":"m 111 -72 l 111 558 q 94 628 111 601 q 56 667 76 654 q 17 685 35 681 q 0 689 0 689 q 42 715 17 696 q 96 756 68 735 q 151 796 124 778 q 201 819 179 814 q 236 810 222 824 q 250 753 250 796 l 250 517 q 281 539 250 517 q 365 590 313 561 q 483 648 417 619 q 620 689 550 676 q 758 690 690 701 q 881 628 825 678 q 1001 469 969 546 q 1023 325 1032 392 q 976 199 1014 258 q 890 95 939 140 q 791 17 840 50 q 710 -33 742 -17 q 678 -50 679 -49 q 820 73 769 -4 q 878 237 871 150 q 848 408 885 324 q 728 553 811 492 q 599 603 667 596 q 472 595 532 610 q 360 557 411 581 q 281 515 308 533 q 250 494 253 496 l 250 61 l 111 -72 "},"I":{"ha":361,"x_min":19,"x_max":264,"o":"m 125 -61 l 125 544 q 108 599 125 582 q 72 623 92 617 q 36 628 53 629 q 19 628 19 628 q 55 670 32 644 q 105 722 78 696 q 160 771 132 749 q 212 802 189 793 q 249 801 235 811 q 264 756 264 792 l 264 56 l 125 -61 "},"J":{"ha":361,"x_min":19,"x_max":264,"o":"m 125 -183 l 125 544 q 108 599 125 582 q 72 623 92 617 q 36 628 53 629 q 19 628 19 628 q 55 670 32 644 q 105 722 78 696 q 160 771 132 749 q 212 802 189 793 q 249 801 235 811 q 264 756 264 792 l 264 -106 q 237 -235 264 -176 q 172 -337 210 -293 q 94 -409 135 -381 q 25 -450 53 -437 q 40 -428 25 -450 q 74 -368 56 -406 q 109 -283 93 -331 q 125 -183 125 -235 "},"K":{"ha":972,"x_min":0,"x_max":986,"o":"m 86 -62 l 86 600 q 64 676 86 650 q 22 708 42 701 q 0 714 3 714 q 63 756 25 731 q 138 799 101 782 q 199 812 174 815 q 225 767 225 808 l 225 339 q 253 356 225 339 q 317 400 281 372 q 389 464 353 428 q 443 538 425 500 q 451 614 461 576 q 383 683 440 651 l 536 775 q 561 678 571 731 q 519 579 551 626 q 447 491 488 532 q 378 427 406 450 q 347 403 350 404 q 560 251 472 314 q 710 148 649 189 q 813 85 772 107 q 883 58 853 64 q 935 58 913 51 q 986 81 958 65 q 972 63 986 81 q 933 25 958 46 q 869 -13 907 4 q 786 -31 832 -31 q 697 -6 751 -31 q 579 57 642 19 q 453 139 517 94 q 340 221 390 183 q 257 283 289 258 q 225 308 225 308 l 225 29 l 86 -62 "},"L":{"ha":800,"x_min":0,"x_max":796,"o":"m 81 0 l 117 39 l 117 567 q 99 627 117 606 q 58 659 81 649 q 18 671 36 669 q 0 672 0 672 q 87 739 42 707 q 169 787 132 771 q 231 797 207 803 q 256 747 256 790 l 256 94 l 764 94 q 785 77 796 94 q 740 33 774 60 q 658 -24 706 7 q 567 -83 610 -56 q 582 -70 567 -83 q 608 -42 597 -57 q 613 -13 618 -26 q 567 0 608 0 l 81 0 "},"M":{"ha":1757,"x_min":-14,"x_max":1733,"o":"m 167 -44 q 18 192 50 72 q 16 417 -14 311 q 128 608 46 524 q 322 739 210 693 q 531 790 433 783 q 703 783 628 797 q 833 743 778 768 q 916 699 889 718 q 944 678 943 679 q 1151 747 1047 717 q 1350 776 1256 776 q 1524 736 1444 776 q 1661 594 1604 696 q 1724 415 1715 499 q 1713 264 1733 332 q 1651 140 1692 196 q 1562 44 1610 85 q 1469 -24 1514 4 q 1396 -65 1424 -51 q 1367 -78 1368 -78 q 1492 51 1446 -14 q 1555 185 1539 117 q 1559 323 1571 253 q 1511 467 1547 393 q 1400 617 1461 567 q 1276 683 1339 667 q 1153 690 1213 699 q 1047 663 1093 681 q 972 628 1000 646 q 944 611 944 611 l 944 64 l 806 -58 l 806 569 q 777 593 804 571 q 697 644 750 615 q 578 691 644 672 q 429 706 511 710 q 261 656 347 701 q 183 584 211 629 q 147 484 156 539 q 147 369 139 429 q 175 253 154 310 q 226 149 196 197 q 294 72 257 101 l 167 -44 "},"N":{"ha":1156,"x_min":0,"x_max":1056,"o":"m 39 31 l 39 628 q 28 643 39 629 q 10 668 18 657 q 0 681 1 679 q 61 751 35 715 q 100 806 88 786 q 114 828 113 825 q 178 725 146 775 q 262 624 211 675 q 388 519 313 572 q 581 406 464 465 q 708 336 640 375 q 834 263 776 297 q 929 206 892 229 q 967 183 967 183 l 967 611 q 953 667 967 653 q 922 681 939 681 q 892 674 906 681 q 878 667 878 667 q 892 697 879 676 q 925 740 906 717 q 967 782 944 763 q 1010 810 990 801 q 1042 812 1029 819 q 1056 772 1056 804 l 1056 144 q 1045 127 1056 144 q 1018 83 1035 110 q 980 23 1001 56 q 936 -39 958 -10 q 906 -6 936 -39 q 823 74 876 28 q 697 171 769 121 q 542 256 625 221 q 425 315 485 279 q 313 386 365 350 q 218 455 261 422 q 152 507 175 488 q 128 528 129 526 l 128 192 q 144 125 128 146 q 181 97 161 104 q 217 92 200 90 q 233 94 233 94 q 194 53 215 76 q 152 10 174 31 q 110 -26 131 -11 q 74 -42 90 -40 q 49 -27 58 -43 q 39 31 39 -11 "},"O":{"ha":950,"x_min":-8,"x_max":892,"o":"m 81 94 q 9 253 26 168 q 10 423 -8 339 q 79 582 28 507 q 214 711 131 657 q 369 784 288 758 q 531 810 451 810 q 679 784 610 810 q 797 706 749 758 q 872 560 851 644 q 876 386 892 475 q 808 214 860 297 q 669 72 757 131 q 515 -3 597 25 q 354 -32 433 -31 q 203 -4 275 -33 q 81 94 132 25 m 636 89 q 719 168 690 117 q 753 281 747 219 q 745 408 760 342 q 699 533 731 474 q 622 639 668 593 q 519 706 576 685 q 367 733 438 736 q 247 690 297 729 q 170 578 197 651 q 147 394 143 504 q 172 286 149 338 q 233 192 196 235 q 320 119 271 150 q 423 72 369 88 q 531 60 476 57 q 636 89 586 63 "},"P":{"ha":989,"x_min":0,"x_max":943,"o":"m 111 -261 l 111 517 q 94 578 111 558 q 56 606 76 599 q 17 612 35 613 q 0 611 0 611 q 56 670 25 638 q 118 731 88 703 q 174 776 149 758 q 211 789 200 793 q 229 769 222 785 q 240 738 236 754 q 246 708 244 721 q 247 694 247 694 q 336 749 281 722 q 458 792 392 775 q 594 812 524 810 q 727 794 664 814 q 840 726 790 774 q 914 594 889 678 q 942 415 943 492 q 912 276 940 338 q 831 165 883 215 q 708 64 779 114 q 578 1 644 19 q 454 -17 511 -17 q 349 -8 397 -17 q 276 10 301 1 q 250 19 251 18 l 250 -167 l 111 -261 m 250 639 l 250 172 q 276 133 250 151 q 342 99 301 114 q 435 76 383 85 q 539 68 486 68 q 640 77 592 68 q 722 108 688 86 q 799 207 774 142 q 819 350 824 272 q 780 509 815 428 q 675 653 744 590 q 590 705 636 688 q 497 727 544 722 q 406 725 450 732 q 326 705 361 718 q 271 674 292 692 q 250 639 250 657 "},"Q":{"ha":950,"x_min":-8,"x_max":1156,"o":"m 86 94 q 10 256 29 167 q 10 431 -8 344 q 81 595 28 518 q 219 722 133 672 q 376 790 293 765 q 538 817 458 815 q 686 795 617 819 q 803 717 756 771 q 893 553 867 642 q 901 375 919 464 q 819 204 883 286 q 639 61 756 122 q 624 56 632 58 q 617 53 617 53 q 693 55 660 68 q 759 16 726 42 q 827 -40 792 -10 q 908 -89 863 -69 q 1013 -110 953 -108 q 1156 -79 1074 -111 q 1133 -94 1154 -81 q 1075 -130 1113 -108 q 994 -171 1038 -151 q 901 -201 950 -190 q 811 -204 853 -211 q 742 -177 771 -197 q 689 -131 713 -157 q 644 -79 665 -106 q 599 -32 624 -53 q 542 -1 574 -11 q 468 3 511 10 q 442 -6 467 1 q 375 -17 418 -12 q 283 -17 332 -22 q 181 15 233 -11 q 86 94 129 40 m 642 89 q 726 173 696 118 q 763 294 756 228 q 758 430 771 360 q 713 560 744 500 q 634 663 682 621 q 525 717 586 706 q 365 725 436 732 q 246 681 294 718 q 173 574 197 643 q 153 394 149 504 q 178 286 154 338 q 239 192 201 235 q 326 119 276 150 q 428 72 375 88 q 537 60 482 57 q 642 89 592 63 "},"R":{"ha":1100,"x_min":0,"x_max":1089,"o":"m 106 -239 l 106 575 q 89 633 106 617 q 53 654 72 650 q 17 654 33 658 q 0 650 0 650 q 115 733 67 704 q 194 768 164 761 q 238 763 225 775 q 244 722 250 750 q 274 737 247 724 q 349 767 301 750 q 451 792 397 783 q 560 791 506 800 q 656 744 615 782 q 731 624 711 693 q 733 483 751 554 q 656 349 714 413 q 500 244 599 285 q 529 226 503 243 q 602 183 556 210 q 703 131 649 156 q 813 88 757 106 q 914 69 869 69 q 986 78 954 69 q 1041 96 1018 86 q 1076 114 1064 106 q 1089 122 1089 122 q 921 12 1003 40 q 745 -2 839 -17 q 540 65 651 13 q 283 194 428 117 q 323 203 286 194 q 415 233 360 211 q 517 291 469 256 q 592 383 565 326 q 597 514 618 439 q 544 625 578 582 q 472 691 511 668 q 392 719 432 714 q 319 719 351 725 q 265 699 286 714 q 244 667 244 685 l 244 -150 l 106 -239 "},"S":{"ha":861,"x_min":0,"x_max":825,"o":"m 0 128 q 22 140 0 128 q 69 168 43 153 q 118 195 96 183 q 142 206 140 207 q 228 130 174 165 q 345 72 282 94 q 474 42 408 49 q 595 51 540 35 q 687 108 650 67 q 731 224 724 150 q 708 290 733 263 q 638 335 682 317 q 535 366 593 353 q 417 392 478 379 q 298 418 356 404 q 195 453 240 432 q 124 503 150 474 q 100 575 97 532 q 142 690 104 643 q 238 766 179 738 q 370 805 297 794 q 517 810 443 815 q 660 785 592 806 q 781 733 729 765 l 633 644 q 495 733 560 707 q 380 760 431 760 q 294 742 329 761 q 244 693 258 722 q 235 630 229 664 q 275 569 242 596 q 363 527 308 542 q 478 501 417 513 q 603 476 540 490 q 716 437 667 463 q 795 369 765 411 q 822 257 825 326 q 777 133 819 190 q 668 38 735 76 q 515 -21 601 -1 q 339 -32 429 -40 q 160 15 249 -24 q 0 128 72 53 "},"T":{"ha":1250,"x_min":0,"x_max":1256,"o":"m 644 678 q 438 581 508 633 q 343 476 367 529 q 331 372 319 424 q 371 278 343 321 q 433 203 399 235 q 489 156 468 171 q 659 73 575 93 q 818 58 743 53 q 957 88 893 64 q 1067 138 1021 111 q 1140 185 1114 164 q 1167 206 1167 206 q 1001 50 1094 107 q 809 -28 908 -7 q 613 -41 710 -50 q 433 -1 515 -32 q 290 80 350 31 q 206 189 229 129 q 178 325 178 257 q 217 456 178 393 q 344 578 257 519 q 579 690 432 638 q 528 698 579 690 q 396 708 478 706 q 210 702 314 711 q 0 661 106 693 q 24 685 0 661 q 97 738 49 708 q 217 791 146 767 q 383 817 289 815 q 545 810 478 818 q 669 789 613 801 q 779 765 726 776 q 898 750 832 753 q 1049 757 964 747 q 1256 797 1135 767 q 1238 779 1256 797 q 1179 737 1219 761 q 1074 688 1139 713 q 917 650 1010 663 q 817 647 865 643 q 732 657 769 650 q 671 671 694 664 q 644 678 647 678 "},"U":{"ha":907,"x_min":0,"x_max":850,"o":"m 83 244 l 83 600 q 62 662 83 642 q 22 685 40 682 q 0 689 3 689 q 35 719 14 701 q 82 753 57 736 q 132 783 107 769 q 177 802 157 797 q 210 799 197 807 q 222 767 222 792 l 222 333 q 236 248 222 285 q 275 184 250 211 q 335 138 300 157 q 411 106 369 119 q 553 81 496 78 q 647 100 611 85 q 697 133 682 115 q 711 150 711 150 l 711 617 q 691 674 711 660 q 653 686 671 688 q 633 683 636 685 q 689 726 653 699 q 761 774 725 754 q 824 794 797 793 q 850 758 850 796 l 850 86 l 711 -53 l 711 115 q 685 93 711 115 q 615 44 658 71 q 515 -3 571 18 q 400 -19 458 -24 q 283 6 340 -15 q 182 60 226 26 q 110 142 138 94 q 83 244 83 189 "},"V":{"ha":1144,"x_min":-7,"x_max":1121,"o":"m 0 689 q 2 697 -7 686 q 29 725 11 708 q 72 760 47 742 q 122 792 96 779 q 170 806 147 804 q 208 792 193 808 q 310 668 257 740 q 413 517 363 596 q 509 362 464 439 q 589 224 554 285 q 644 124 624 163 q 664 86 664 86 q 833 263 769 178 q 926 419 896 347 q 956 549 956 492 q 933 643 956 607 q 869 692 910 679 q 778 689 829 706 q 792 705 779 690 q 831 742 806 719 q 889 784 857 765 q 960 813 921 803 q 1039 811 999 822 q 1105 754 1089 797 q 1106 647 1121 711 q 1048 499 1092 582 q 935 324 1004 417 q 772 133 865 232 q 567 -61 679 35 q 551 -25 567 -61 q 506 71 535 11 q 436 208 476 131 q 347 366 396 285 q 242 527 297 447 q 128 672 186 607 q 107 692 117 683 q 83 706 97 701 q 49 706 68 710 q 0 689 29 703 "},"W":{"ha":1647,"x_min":-7,"x_max":1618,"o":"m 507 694 q 509 702 500 692 q 538 729 518 713 q 582 763 557 746 q 633 792 607 781 q 684 806 660 804 q 724 790 708 807 q 825 667 772 739 q 928 516 878 594 q 1023 360 978 438 q 1102 222 1068 283 q 1156 123 1136 161 q 1176 85 1176 85 q 1347 264 1282 176 q 1444 427 1413 351 q 1478 563 1476 503 q 1456 660 1479 624 q 1389 706 1433 696 q 1285 689 1344 715 q 1304 713 1285 689 q 1357 764 1324 738 q 1435 808 1390 790 q 1529 811 1479 825 q 1600 752 1582 796 q 1606 644 1618 708 q 1551 497 1593 579 q 1440 323 1508 415 q 1279 133 1372 231 q 1074 -61 1186 35 q 1058 -24 1074 -61 q 1013 73 1042 13 q 943 210 983 133 q 853 370 903 288 q 749 533 804 453 q 635 678 693 613 q 614 698 624 689 q 590 711 604 707 q 556 712 575 715 q 507 694 536 708 m 567 -61 q 551 -25 567 -61 q 506 71 535 11 q 436 208 476 131 q 347 366 396 285 q 242 527 297 447 q 128 672 186 607 q 107 692 117 683 q 83 706 97 701 q 49 706 68 710 q 0 689 29 703 q 2 697 -7 686 q 28 725 11 708 q 70 760 46 742 q 120 792 94 779 q 169 806 146 804 q 207 792 192 808 q 308 669 256 740 q 411 519 361 597 q 506 365 461 442 q 585 227 551 288 q 640 129 619 167 q 660 92 660 92 l 835 292 l 851 272 l 567 -61 "},"X":{"ha":1106,"x_min":0,"x_max":1093,"o":"m 424 378 l 158 643 q 108 665 136 665 q 58 656 82 665 q 17 636 33 647 q 0 625 0 625 q 53 716 29 672 q 101 785 76 760 q 157 808 126 810 q 232 764 188 807 l 535 461 q 560 481 535 461 q 617 530 585 500 q 683 594 650 560 q 730 657 715 628 q 733 704 744 686 q 667 721 721 722 q 681 740 667 721 q 714 781 694 758 q 753 822 733 804 q 786 840 774 840 q 840 808 838 838 q 817 734 843 778 q 744 640 790 690 q 655 548 699 590 q 579 477 611 506 q 547 449 547 449 l 863 133 q 924 99 892 104 q 986 103 957 94 q 1040 128 1015 113 q 1078 155 1065 143 q 1093 168 1092 167 q 987 40 1032 85 q 904 -17 942 -4 q 833 -13 867 -29 q 763 39 799 3 l 436 365 q 404 344 433 364 q 333 292 375 325 q 260 222 292 258 q 224 151 229 186 q 260 94 218 117 l 126 -39 q 113 48 100 1 q 158 141 125 94 q 236 231 190 188 q 324 306 282 274 q 394 358 365 339 q 424 378 424 378 "},"Y":{"ha":1128,"x_min":0,"x_max":1111,"o":"m 594 53 l 167 668 q 125 693 153 688 q 69 698 97 699 q 21 693 42 697 q 0 689 0 689 q 69 760 33 728 q 141 806 106 792 q 210 812 176 821 q 272 761 243 803 l 686 158 q 717 190 688 160 q 792 272 747 221 q 878 383 836 324 q 944 503 919 443 q 961 612 969 564 q 897 688 953 660 q 722 711 842 717 q 745 726 724 713 q 803 760 767 740 q 881 793 840 779 q 963 809 921 807 q 1033 789 1004 811 q 1101 694 1090 747 q 1088 582 1111 642 q 1017 457 1065 522 q 910 324 969 392 q 785 187 850 256 q 665 53 721 118 q 570 -74 610 -12 q 522 -187 531 -135 q 540 -284 513 -240 q 647 -358 568 -328 l 450 -506 q 398 -390 404 -453 q 408 -266 392 -328 q 455 -147 424 -204 q 517 -44 486 -89 q 572 26 549 0 q 594 53 594 53 "},"Z":{"ha":1132,"x_min":0,"x_max":1117,"o":"m 67 639 q 103 671 67 639 q 204 738 139 703 q 360 797 269 774 q 561 806 451 821 q 642 790 608 799 q 703 773 675 781 q 759 760 732 765 q 821 757 786 756 q 902 767 856 758 q 1017 794 949 775 q 991 781 1017 794 q 928 747 965 768 q 852 698 892 725 q 783 642 813 671 l 261 119 q 285 124 261 119 q 343 132 308 128 q 418 140 378 136 q 492 144 458 144 q 574 133 532 144 q 663 108 617 121 q 760 86 710 96 q 866 81 810 76 q 985 108 922 85 q 1117 183 1047 131 q 1093 160 1117 183 q 1026 104 1069 136 q 923 38 983 72 q 790 -17 863 4 q 633 -37 718 -37 q 461 -3 550 -37 q 331 33 392 24 q 215 39 271 42 q 107 27 160 36 q 0 10 54 18 q 23 22 3 11 q 77 55 43 32 q 139 106 111 78 l 669 636 q 654 638 669 636 q 617 641 639 639 q 574 645 596 643 q 540 649 553 647 q 440 675 490 656 q 332 705 389 694 q 210 704 275 715 q 67 639 144 693 "},"[":{"ha":383,"x_min":39,"x_max":339,"o":"m 39 -44 l 39 733 q 44 742 39 735 q 59 758 50 749 q 78 775 68 767 q 99 790 89 783 q 142 813 118 803 q 172 822 167 822 l 339 822 l 217 772 l 178 778 l 178 0 l 339 0 l 217 -44 l 39 -44 "},"\\":{"ha":417,"x_min":0,"x_max":401,"o":"m 96 804 l 401 0 l 306 0 l 0 806 l 96 804 "},"]":{"ha":383,"x_min":39,"x_max":339,"o":"m 339 822 l 339 44 q 333 35 339 42 q 319 20 328 29 q 299 2 310 11 q 279 -12 289 -7 q 235 -35 260 -25 q 206 -44 211 -44 l 39 -44 l 161 6 l 200 0 l 200 778 l 39 778 l 161 822 l 339 822 "},"^":{"ha":556,"x_min":133,"x_max":432,"o":"m 149 415 l 133 428 q 152 442 133 428 q 195 478 171 457 q 243 525 219 500 q 278 569 267 550 q 288 557 278 569 q 319 527 299 544 q 367 491 339 510 q 432 460 396 472 l 376 413 q 333 438 356 422 q 292 469 310 454 q 262 495 274 485 q 250 506 250 506 q 224 474 240 490 q 190 445 207 458 q 161 424 174 432 q 149 415 149 415 "},"_":{"ha":639,"x_min":0,"x_max":792,"o":"m 153 -22 l 792 -22 l 639 -99 l 0 -99 l 153 -22 "},"`":{"ha":417,"x_min":82,"x_max":324,"o":"m 82 540 q 91 551 82 542 q 111 568 100 560 q 133 580 122 576 q 146 574 143 583 q 184 506 156 536 q 244 452 213 475 q 299 417 275 429 q 324 404 324 404 q 244 419 282 411 q 176 441 207 426 q 121 478 144 456 q 82 540 97 501 "},"a":{"ha":776,"x_min":3,"x_max":846,"o":"m 29 79 q 19 191 3 142 q 78 276 36 240 q 180 333 121 311 q 298 364 239 356 q 407 368 357 372 q 481 347 457 364 q 513 344 493 339 q 553 361 532 350 q 553 354 556 363 q 550 322 550 346 q 558 260 550 300 q 594 160 567 221 q 636 103 611 122 q 690 76 661 83 q 746 72 718 69 q 796 78 774 74 q 832 89 818 83 q 844 94 846 94 q 674 13 743 31 q 565 7 606 -4 q 501 44 524 18 q 473 90 479 69 q 467 113 467 111 q 412 67 447 89 q 333 27 376 44 q 244 1 290 10 q 155 -3 197 -7 q 79 21 113 1 q 29 79 46 40 m 149 229 q 172 113 149 151 q 229 63 194 75 q 305 58 264 51 q 381 79 346 65 q 439 107 415 93 q 463 121 463 121 l 410 271 q 390 279 410 272 q 342 292 371 286 q 278 302 313 299 q 216 301 244 306 q 168 279 188 296 q 149 229 149 263 "},"b":{"ha":597,"x_min":-43,"x_max":568,"o":"m 67 96 l 67 465 q 51 560 67 525 q 17 617 36 596 q -20 651 -3 639 q -40 675 -37 664 q -27 701 -43 686 q 38 746 -11 717 q 53 760 39 747 q 88 788 67 774 q 131 803 110 801 q 166 780 151 804 q 181 693 181 756 l 181 294 q 202 313 182 296 q 258 355 222 331 q 337 396 294 379 q 424 412 379 413 q 508 381 469 411 q 562 297 556 343 q 547 206 568 251 q 486 116 526 160 q 400 38 446 72 q 309 -19 354 3 q 236 -44 264 -42 q 188 -31 217 -46 q 131 6 158 -17 q 85 52 104 28 q 67 96 67 76 m 181 256 l 181 169 q 197 132 181 151 q 240 97 214 113 q 299 69 267 81 q 360 59 331 58 q 413 74 389 60 q 446 119 436 88 q 453 221 465 181 q 410 284 440 261 q 341 314 381 307 q 266 315 301 321 q 206 294 231 310 q 181 256 181 278 "},"c":{"ha":594,"x_min":4,"x_max":553,"o":"m 6 183 q 35 244 4 213 q 117 303 67 275 q 231 351 168 331 q 355 381 293 372 q 469 382 417 389 q 553 347 522 375 q 533 335 553 347 q 488 308 514 322 q 440 285 463 294 q 411 281 417 275 q 371 301 397 293 q 312 314 344 310 q 245 316 279 318 q 183 305 211 314 q 138 279 156 296 q 122 236 121 263 q 147 136 126 174 q 197 80 167 99 q 263 58 226 61 q 338 60 300 54 q 411 76 375 65 q 474 97 447 88 q 518 113 501 107 q 533 114 535 119 q 494 78 532 106 q 399 24 456 51 q 276 -21 342 -3 q 151 -28 210 -39 q 52 30 93 -18 q 6 183 11 78 "},"d":{"ha":689,"x_min":-4,"x_max":703,"o":"m 0 139 q 41 266 6 218 q 125 340 76 314 q 228 373 174 365 q 331 380 283 381 q 408 374 378 379 q 439 369 439 369 l 439 528 q 420 610 439 579 q 382 660 401 642 q 350 688 363 678 q 350 708 338 699 q 385 738 364 719 q 428 774 406 757 q 474 799 451 790 q 513 802 496 808 q 542 769 531 796 q 553 686 553 742 l 553 194 q 565 124 553 150 q 595 85 578 99 q 633 69 613 72 q 670 67 654 67 q 694 69 686 68 q 697 67 703 71 q 588 6 633 19 q 513 -1 542 -8 q 468 24 485 7 q 445 56 451 42 q 439 72 439 71 q 374 44 417 60 q 281 19 331 29 q 178 5 231 8 q 85 13 126 1 q 20 54 44 25 q 0 139 -4 83 m 156 311 q 118 240 128 279 q 115 163 108 200 q 147 95 122 125 q 210 53 171 65 q 280 48 240 43 q 355 63 319 53 q 415 82 390 72 q 439 94 439 92 l 439 269 q 416 281 438 271 q 358 306 394 292 q 283 328 321 319 q 210 335 244 338 q 156 311 175 333 "},"e":{"ha":582,"x_min":-3,"x_max":557,"o":"m 85 -3 q 26 44 47 13 q 1 113 6 75 q 8 192 -3 151 q 44 270 19 233 q 109 335 69 307 q 201 374 149 363 q 364 384 294 394 q 477 353 433 374 q 539 310 521 332 q 549 286 557 288 l 144 182 q 146 164 144 182 q 157 122 147 146 q 189 73 167 97 q 252 38 211 49 q 356 33 293 26 q 510 79 418 40 q 503 69 515 82 q 466 37 492 56 q 402 -1 440 18 q 315 -29 364 -19 q 207 -35 265 -39 q 85 -3 149 -31 m 144 204 l 368 260 q 373 275 378 261 q 351 303 368 289 q 306 328 333 318 q 244 333 278 339 q 190 307 210 328 q 159 263 169 286 q 147 222 149 240 q 144 204 144 204 "},"f":{"ha":638,"x_min":0,"x_max":781,"o":"m 167 317 l 0 317 l 67 372 l 167 372 l 167 567 q 195 655 167 617 q 269 722 224 693 q 374 771 315 751 q 492 801 432 790 q 606 813 551 811 q 701 810 661 815 q 761 792 742 804 q 769 760 781 779 q 742 715 757 738 q 709 674 726 692 q 672 651 692 657 q 631 656 653 644 q 495 707 558 693 q 384 712 432 721 q 308 672 336 703 q 281 589 281 640 l 281 372 l 625 372 l 514 317 l 281 317 l 281 -383 l 167 -489 l 167 317 "},"g":{"ha":564,"x_min":-4,"x_max":500,"o":"m 11 203 q 47 283 19 250 q 113 337 75 317 q 197 365 151 357 q 289 370 243 372 q 376 357 335 368 q 449 328 418 346 q 461 333 453 325 q 478 348 469 342 q 494 351 488 354 q 500 325 500 349 l 500 -217 q 466 -341 500 -286 q 385 -434 432 -396 q 287 -494 338 -472 q 203 -518 236 -517 q 230 -503 201 -518 q 293 -454 258 -487 q 357 -368 328 -421 q 386 -242 386 -315 l 386 14 q 354 10 386 18 q 276 -3 322 3 q 176 -8 229 -10 q 81 13 122 -7 q 17 76 39 32 q 11 203 -4 121 m 386 75 l 386 275 q 369 319 386 303 q 327 340 353 335 q 270 340 301 344 q 211 320 239 335 q 163 283 183 306 q 136 228 142 260 q 138 130 124 168 q 181 71 153 92 q 244 43 208 50 q 311 39 279 36 q 365 52 343 42 q 386 75 386 63 "},"h":{"ha":693,"x_min":-43,"x_max":656,"o":"m 56 44 l 56 461 q 42 566 56 528 q 12 625 29 604 q -21 655 -6 646 q -40 672 -36 664 q -31 690 -43 679 q 22 728 -18 701 q 38 742 25 731 q 67 766 50 753 q 101 789 83 779 q 135 797 119 799 q 160 777 150 794 q 169 718 169 760 l 169 283 q 181 292 169 283 q 213 313 193 300 q 259 340 233 325 q 312 369 285 356 q 365 392 339 382 q 414 403 392 401 q 496 391 454 406 q 572 349 538 376 q 628 287 606 322 q 653 214 650 251 q 629 127 656 168 q 571 56 603 86 q 512 9 539 26 q 486 -6 485 -8 q 517 72 508 38 q 519 138 526 107 q 490 199 513 169 q 425 264 467 229 q 360 301 392 292 q 299 310 328 311 q 247 299 271 308 q 206 278 224 289 q 179 257 189 267 q 169 247 169 247 l 169 107 q 156 72 169 92 q 124 34 143 53 q 87 -1 106 15 q 58 -25 68 -17 q 50 -26 51 -31 q 50 -11 49 -22 q 53 15 51 0 q 56 44 56 29 "},"i":{"ha":340,"x_min":47,"x_max":343,"o":"m 110 8 q 77 51 82 26 q 78 102 72 75 q 94 157 83 129 q 107 210 104 185 q 99 258 110 236 q 51 294 88 279 q 54 303 47 296 q 75 319 61 310 q 106 340 89 329 q 140 357 124 350 q 169 367 157 364 q 186 364 182 369 q 219 301 211 332 q 226 242 228 269 q 217 190 225 214 q 202 144 208 165 q 194 106 196 124 q 206 78 193 89 q 248 64 222 61 q 296 74 274 67 q 331 88 318 82 q 333 83 343 93 q 311 63 333 83 q 256 24 289 43 q 183 -5 222 4 q 110 8 144 -14 m 57 494 q 80 525 61 507 q 120 558 99 543 q 159 578 142 572 q 178 575 176 585 q 199 528 182 536 q 235 526 217 521 q 268 539 254 532 q 278 536 282 546 q 249 495 269 515 q 206 458 229 475 q 162 428 183 440 q 129 411 140 415 q 108 415 122 408 q 81 435 94 422 q 60 463 68 447 q 57 494 51 479 "},"j":{"ha":340,"x_min":-25,"x_max":264,"o":"m 36 494 q 60 526 40 507 q 101 561 79 544 q 140 585 122 578 q 160 583 158 593 q 181 537 164 544 q 217 535 199 529 q 250 547 236 540 q 260 544 264 554 q 231 502 251 524 q 186 462 210 481 q 141 429 163 443 q 108 411 119 415 q 88 415 101 408 q 60 435 74 422 q 39 463 47 447 q 36 494 31 479 m 239 -192 q 219 -289 239 -244 q 171 -369 200 -333 q 107 -432 142 -406 q 43 -476 72 -458 q -6 -501 14 -493 q -25 -508 -25 -510 q -1 -486 -25 -504 q 50 -436 22 -468 q 101 -358 78 -404 q 125 -253 125 -311 l 125 139 q 112 209 125 185 q 83 246 99 233 q 57 265 68 258 q 49 280 46 271 q 77 305 53 289 q 157 356 101 321 q 192 363 176 367 q 217 348 207 360 q 233 319 228 336 q 239 286 239 301 l 239 -192 "},"k":{"ha":569,"x_min":-39,"x_max":578,"o":"m 53 0 l 53 424 q 40 544 53 499 q 10 614 26 589 q -21 651 -7 639 q -37 672 -35 663 q -23 694 -39 682 q 38 736 -7 707 q 49 747 39 736 q 74 768 60 757 q 104 788 88 779 q 135 794 121 796 q 158 777 149 793 q 167 724 167 761 l 167 142 q 183 151 167 140 q 224 179 200 163 q 272 214 247 196 q 313 243 297 232 q 329 256 328 254 q 338 300 351 281 q 306 327 325 319 q 285 336 288 335 l 379 401 q 402 399 385 406 q 433 377 419 392 q 447 341 446 363 q 419 294 447 319 q 403 283 419 294 q 366 257 386 271 q 329 231 346 243 q 314 218 313 218 l 431 103 q 492 60 464 69 q 539 51 519 50 q 568 58 558 53 q 575 61 578 63 q 474 -1 522 13 q 383 -5 425 -14 q 307 27 342 4 q 248 75 272 50 q 210 119 224 100 q 197 139 197 139 l 167 119 l 167 71 q 160 62 167 67 q 143 52 153 57 q 123 43 133 47 q 104 35 113 39 q 82 18 92 28 q 66 1 72 8 q 56 -9 60 -7 q 53 0 53 -11 "},"l":{"ha":560,"x_min":-42,"x_max":593,"o":"m 213 -11 q 151 1 181 -11 q 100 35 122 13 q 65 89 78 57 q 51 161 51 121 l 51 469 q 37 583 51 542 q 6 646 22 624 q -26 678 -11 668 q -42 694 -42 688 q -23 715 -42 703 q 46 756 -4 726 q 72 776 53 760 q 113 799 92 793 q 149 783 133 804 q 165 692 165 763 l 165 261 q 213 131 165 178 q 349 83 260 83 q 435 93 392 83 q 513 115 478 103 q 571 138 549 128 q 593 147 593 147 q 565 122 593 147 q 488 68 538 97 q 367 14 438 39 q 213 -11 297 -11 "},"m":{"ha":1056,"x_min":-3,"x_max":1014,"o":"m 50 -22 q 76 117 81 60 q 53 210 71 174 q 16 263 35 246 q 0 283 -3 281 l 83 367 q 119 372 100 383 q 153 342 138 361 q 178 303 168 322 q 189 283 189 283 q 347 374 279 353 q 457 389 414 396 q 526 360 500 382 q 562 318 551 338 q 572 297 572 299 q 691 354 628 329 q 812 388 754 379 q 915 382 869 396 q 983 322 961 368 q 1008 204 1014 260 q 972 105 1001 149 q 893 31 942 61 q 789 -11 844 0 q 795 -4 788 -11 q 815 17 803 3 q 840 50 828 31 q 860 94 853 69 q 866 147 867 118 q 850 206 865 175 q 786 283 822 261 q 716 306 750 306 q 651 297 682 307 q 602 276 619 286 q 583 264 585 265 q 602 186 601 222 q 597 123 603 150 q 584 80 592 96 q 576 64 576 64 l 421 -22 q 431 -1 421 -22 q 447 56 440 21 q 449 139 453 92 q 417 239 446 186 q 363 297 393 282 q 304 309 332 313 q 251 294 276 306 q 213 271 226 282 q 197 258 199 260 q 221 192 217 226 q 222 128 225 157 q 212 80 218 99 q 206 61 206 61 l 50 -22 "},"n":{"ha":697,"x_min":-3,"x_max":649,"o":"m 50 -22 q 76 117 81 60 q 53 211 71 175 q 16 264 35 247 q 0 283 -3 281 l 100 367 q 132 369 115 379 q 162 341 149 358 q 184 306 175 324 q 193 289 193 289 q 315 360 249 332 q 442 396 381 389 q 553 385 504 403 q 622 322 601 368 q 645 208 649 264 q 615 106 642 151 q 542 28 589 60 q 433 -11 494 -3 q 448 6 431 -11 q 482 51 465 22 q 505 120 499 81 q 489 206 511 160 q 424 283 461 261 q 349 306 386 306 q 278 296 311 307 q 225 274 244 285 q 204 263 206 264 q 226 169 228 214 q 215 103 225 125 q 204 78 206 81 l 50 -22 "},"o":{"ha":646,"x_min":-11,"x_max":614,"o":"m 11 189 q 78 279 31 239 q 185 347 125 319 q 313 389 246 375 q 438 399 379 403 q 540 372 496 394 q 597 306 583 350 q 592 201 614 251 q 528 110 571 151 q 431 36 485 68 q 328 -14 376 4 q 197 -32 263 -39 q 83 4 132 -25 q 11 82 33 33 q 11 189 -11 131 m 147 192 q 165 131 149 158 q 205 85 181 104 q 258 53 229 65 q 316 36 288 42 q 368 33 344 31 q 406 44 392 35 q 448 97 432 63 q 465 172 464 132 q 453 250 467 211 q 406 317 439 289 q 313 358 360 354 q 229 341 267 361 q 168 281 192 321 q 147 192 144 242 "},"p":{"ha":736,"x_min":0,"x_max":710,"o":"m 113 -531 l 113 228 q 99 266 113 251 q 68 288 86 281 q 39 295 56 293 q 11 297 22 297 q 0 297 1 297 q 22 308 0 297 q 71 333 43 319 q 124 358 99 347 q 158 369 150 369 q 185 360 172 369 q 207 340 197 351 q 222 316 217 328 q 226 300 226 304 q 277 325 242 310 q 358 353 313 340 q 456 371 404 365 q 553 369 507 376 q 635 335 599 361 q 688 258 671 310 q 683 144 710 192 q 606 62 657 96 q 490 6 556 28 q 365 -29 424 -17 q 267 -47 307 -42 q 226 -56 226 -53 l 226 -433 l 113 -531 m 226 253 l 226 69 q 253 40 226 54 q 318 17 279 25 q 401 10 357 10 q 480 26 444 11 q 535 74 515 42 q 546 161 556 107 q 505 271 533 233 q 441 322 476 308 q 367 329 406 335 q 298 310 329 324 q 247 279 267 296 q 226 253 226 263 "},"q":{"ha":603,"x_min":-3,"x_max":579,"o":"m 22 89 q 7 177 -3 133 q 51 258 17 221 q 138 324 85 296 q 251 364 190 351 q 372 370 311 376 q 486 333 433 364 q 499 334 492 331 q 514 342 507 338 q 526 349 521 347 q 531 344 531 351 l 531 -317 q 539 -362 531 -349 q 556 -379 547 -375 q 572 -382 565 -383 q 575 -383 579 -381 q 553 -400 568 -389 q 520 -422 538 -411 q 484 -441 503 -433 q 451 -449 465 -449 q 426 -440 436 -450 q 417 -403 417 -429 l 417 56 q 397 46 417 58 q 343 19 376 33 q 267 -7 310 4 q 181 -15 225 -18 q 96 10 138 -12 q 22 89 54 33 m 139 250 q 142 140 126 183 q 188 73 157 97 q 259 42 219 49 q 333 43 299 35 q 392 72 368 51 q 417 122 417 92 l 417 261 q 397 306 417 289 q 349 330 378 322 q 285 336 319 338 q 219 324 250 335 q 166 295 189 314 q 139 250 143 276 "},"r":{"ha":713,"x_min":0,"x_max":697,"o":"m 283 31 l 169 -50 l 169 194 q 150 250 169 233 q 103 267 131 267 q 56 260 81 267 q 16 247 31 253 q 0 239 1 240 q 19 254 1 240 q 65 290 36 268 q 124 332 93 311 q 183 367 154 353 q 228 382 211 382 q 269 360 256 382 q 283 300 283 338 q 299 310 283 300 q 341 333 315 321 q 398 355 367 344 q 458 365 429 365 q 497 358 481 365 q 526 343 513 351 q 552 328 539 335 q 583 321 565 321 q 630 333 603 321 q 697 375 657 344 q 684 350 697 375 q 646 296 671 325 q 585 242 621 267 q 501 217 549 217 q 437 229 463 217 q 393 257 411 242 q 361 285 375 272 q 333 297 347 297 q 302 283 321 297 q 283 253 283 268 l 283 31 "},"s":{"ha":544,"x_min":0,"x_max":500,"o":"m 0 14 q 17 26 0 14 q 56 51 35 38 q 94 77 76 65 q 111 88 111 89 q 155 50 121 65 q 227 30 189 35 q 299 35 265 25 q 340 72 332 44 q 327 120 350 104 q 267 144 304 136 q 184 155 229 151 q 101 164 139 158 q 43 181 64 169 q 33 218 22 193 q 108 315 58 274 q 219 378 157 357 q 354 397 282 399 q 500 364 426 394 q 482 353 500 364 q 442 328 464 342 q 401 303 419 314 q 382 293 383 293 q 324 323 363 311 q 246 338 285 335 q 178 333 207 340 q 149 306 149 326 q 174 265 149 279 q 239 242 200 250 q 324 228 278 233 q 408 213 369 222 q 473 189 447 204 q 499 146 499 174 q 474 108 499 131 q 408 61 449 85 q 315 17 367 38 q 207 -14 263 -4 q 97 -19 151 -24 q 0 14 43 -14 "},"t":{"ha":642,"x_min":-3,"x_max":674,"o":"m 117 31 q 87 140 79 88 q 124 233 94 192 q 193 305 154 274 q 260 351 232 336 q 290 368 288 367 q 265 374 290 368 q 197 385 239 381 q 103 385 156 389 q 0 363 51 382 q 12 376 -3 363 q 58 406 26 389 q 136 442 89 424 q 247 468 183 460 q 316 465 268 471 q 425 453 364 458 q 551 448 486 449 q 674 463 617 447 q 648 443 674 463 q 578 403 622 424 q 477 368 535 382 q 357 365 419 354 q 313 349 342 368 q 262 297 285 331 q 230 216 239 263 q 244 117 221 169 q 293 63 261 79 q 363 46 325 47 q 440 53 401 44 q 510 71 479 61 q 560 88 542 81 q 578 94 579 96 q 474 23 540 54 q 338 -22 408 -8 q 207 -24 268 -35 q 117 31 146 -14 "},"u":{"ha":728,"x_min":6,"x_max":729,"o":"m 68 89 l 68 236 q 64 262 68 249 q 52 285 60 275 q 33 299 44 294 q 7 297 21 303 q 17 308 6 297 q 49 332 29 318 q 92 359 68 346 q 135 376 115 372 q 169 372 156 381 q 182 333 182 363 l 182 172 q 207 101 182 132 q 276 72 232 69 q 342 81 310 74 q 399 97 374 89 q 439 113 424 106 q 454 119 454 119 l 454 286 q 454 303 454 296 q 450 316 454 311 q 435 322 446 321 q 404 321 425 324 q 429 339 404 321 q 485 370 454 357 q 542 380 517 383 q 568 333 568 376 l 568 167 q 580 108 568 128 q 610 80 592 88 q 650 74 629 72 q 689 80 671 75 q 718 90 707 85 q 729 94 729 94 q 620 22 665 44 q 544 -4 575 -1 q 497 5 514 -7 q 469 33 479 17 q 457 67 460 50 q 454 93 454 85 q 422 85 454 99 q 343 52 389 71 q 250 15 297 33 q 174 -6 203 -3 q 134 0 153 -7 q 101 20 115 7 q 77 51 86 33 q 68 89 68 68 "},"v":{"ha":603,"x_min":0,"x_max":600,"o":"m 404 76 l 307 -56 q 297 -24 307 -56 q 269 56 288 8 q 224 155 251 103 q 163 247 197 207 q 88 305 129 286 q 0 303 47 324 q 15 314 0 303 q 49 339 29 325 q 91 365 69 353 q 128 379 113 376 q 203 366 168 386 q 265 312 238 346 q 315 236 293 278 q 351 158 336 194 q 373 98 365 122 q 381 74 381 74 l 499 235 q 511 260 507 246 q 513 288 515 275 q 499 310 510 301 q 464 317 488 318 q 480 331 463 317 q 519 361 497 344 q 560 392 542 378 q 578 406 578 406 q 597 379 594 394 q 582 331 600 364 q 522 238 564 297 q 404 76 479 178 "},"w":{"ha":906,"x_min":0,"x_max":878,"o":"m 507 192 q 493 180 506 190 q 461 150 481 169 q 428 113 442 131 q 397 74 417 97 q 356 26 376 50 q 319 -14 335 3 q 304 -31 304 -31 q 294 2 304 -28 q 265 80 285 32 q 217 176 246 128 q 150 262 189 224 q 65 310 111 300 q 38 310 54 311 q 12 306 22 308 q 0 304 1 304 q 73 359 38 338 q 121 382 108 381 q 211 358 169 386 q 285 287 253 329 q 340 199 317 244 q 374 125 363 154 q 386 93 385 96 q 395 103 388 94 q 415 126 403 113 q 433 150 426 140 q 459 176 443 163 q 485 198 475 190 q 497 207 496 206 q 488 224 496 210 q 461 263 479 239 q 422 303 443 286 q 383 315 403 317 q 364 314 364 314 q 406 353 389 339 q 435 374 422 368 q 457 381 447 381 q 478 379 467 381 q 544 338 513 371 q 598 266 575 306 q 638 185 621 226 q 664 119 656 144 q 672 93 672 94 q 691 115 672 93 q 729 167 710 138 q 769 231 751 203 q 791 279 786 260 q 786 308 796 299 q 747 317 776 318 q 763 331 746 317 q 803 361 781 344 q 843 392 825 378 q 861 406 861 406 q 875 374 878 394 q 854 322 872 353 q 807 250 836 292 q 743 156 778 208 q 699 95 724 128 q 651 35 674 63 q 613 -11 629 7 q 597 -29 597 -29 q 592 -14 597 -29 q 581 24 588 1 q 565 74 574 47 q 550 121 557 100 q 523 172 539 153 q 507 192 507 192 "},"x":{"ha":743,"x_min":-228,"x_max":743,"o":"m -228 -197 l -121 -94 q -78 -128 -103 -119 q -29 -134 -54 -137 q 19 -118 -4 -131 q 63 -86 43 -106 l 271 122 l 151 242 q 95 263 128 265 q 36 251 63 261 q -2 233 10 240 q 3 239 -14 225 q 109 328 72 297 q 167 365 146 358 q 202 360 188 372 q 243 322 217 349 l 357 208 l 483 335 q 524 361 501 353 q 567 372 546 369 q 608 372 589 375 q 640 365 628 369 q 660 347 656 358 q 665 335 665 335 l 583 253 q 573 269 583 253 q 546 290 563 285 q 526 297 538 293 q 503 301 515 301 q 474 292 490 300 q 440 267 458 285 l 369 196 l 496 69 q 569 37 526 39 q 651 45 613 35 q 716 69 689 56 q 743 82 743 82 q 674 32 719 60 q 577 -13 629 4 q 476 -32 525 -31 q 397 -4 426 -33 l 283 110 l 47 -126 q 7 -161 36 -137 q -62 -203 -22 -185 q -145 -224 -101 -221 q -228 -197 -189 -228 "},"y":{"ha":739,"x_min":-6,"x_max":736,"o":"m 240 -500 l 240 50 q 211 143 240 96 q 142 223 182 190 q 60 266 101 256 q -4 250 19 276 q 13 267 -6 247 q 57 310 32 286 q 106 353 82 333 q 139 375 131 374 q 203 362 171 381 q 263 314 236 343 q 310 253 289 285 q 342 200 332 221 q 354 178 353 179 q 375 204 356 179 q 431 266 394 229 q 515 335 468 303 q 619 384 563 367 q 735 386 676 401 q 716 369 736 386 q 672 333 696 353 q 627 297 647 314 q 607 281 607 281 q 563 308 589 307 q 510 296 538 310 q 454 258 482 282 q 404 208 426 233 q 368 162 382 183 q 354 132 354 140 l 354 -372 l 240 -500 "},"z":{"ha":774,"x_min":-6,"x_max":767,"o":"m -4 225 q 115 331 57 297 q 227 374 172 364 q 338 379 282 385 q 450 369 393 374 q 567 367 507 364 q 696 397 628 369 q 660 374 696 397 q 570 314 624 350 q 454 236 517 278 q 339 158 392 194 q 251 99 286 122 q 218 75 217 75 q 326 74 281 79 q 408 63 372 69 q 475 50 444 56 q 539 47 506 44 q 629 64 588 51 q 701 90 671 76 q 749 115 732 104 q 767 125 767 125 q 623 10 688 47 q 501 -37 558 -26 q 390 -42 443 -49 q 280 -26 336 -35 q 161 -15 224 -18 q 24 -28 99 -11 q 56 -5 22 -28 q 140 53 89 18 q 250 129 190 89 q 360 205 310 169 q 445 263 411 240 q 478 286 479 286 q 380 266 428 267 q 290 270 332 265 q 215 282 249 275 q 158 286 181 289 q 86 269 117 281 q 35 248 56 258 q 4 230 14 238 q -4 225 -6 222 "},"{":{"ha":451,"x_min":0,"x_max":458,"o":"m 153 269 q 126 324 150 306 q 74 351 101 343 q 23 361 46 360 q 0 363 0 363 q 99 419 65 392 q 143 474 132 447 q 149 526 154 500 q 135 575 144 551 q 116 620 125 599 q 110 661 107 642 q 147 749 117 715 q 215 798 178 782 q 291 820 253 814 q 353 826 329 826 q 378 826 376 826 q 267 780 300 806 q 228 724 235 754 q 233 660 222 694 q 253 586 244 625 q 244 513 261 544 q 202 460 226 482 q 156 424 178 438 q 138 407 135 411 q 152 401 139 403 q 183 394 165 399 q 217 381 200 390 q 245 355 235 372 q 255 308 256 338 q 236 235 254 279 q 223 110 206 161 q 281 29 240 60 q 372 -14 321 -1 q 458 -22 422 -26 q 435 -28 457 -22 q 374 -38 413 -33 q 292 -42 335 -43 q 209 -26 250 -40 q 140 18 168 -12 q 112 82 113 50 q 122 145 111 114 q 144 208 132 176 q 153 269 156 239 "},"|":{"ha":204,"x_min":0,"x_max":114,"o":"m 0 0 l 0 826 l 114 826 l 114 0 l 0 0 "},"}":{"ha":344,"x_min":11,"x_max":344,"o":"m 17 -33 q 111 5 78 -15 q 158 48 144 25 q 169 94 171 71 q 160 140 168 117 q 144 185 153 163 q 136 228 136 207 q 159 319 136 282 q 202 372 182 357 q 225 389 222 388 q 150 433 163 411 q 148 487 138 456 q 178 560 158 518 q 199 664 197 603 q 181 758 200 725 q 135 806 163 792 q 79 821 108 819 q 31 818 50 822 q 11 814 13 814 q 172 849 106 857 q 270 797 238 840 q 299 681 303 753 q 250 525 296 610 q 253 491 239 506 q 287 467 267 476 q 326 452 307 457 q 344 447 344 447 q 260 379 288 413 q 227 315 233 346 q 229 254 221 283 q 250 197 238 225 q 273 143 263 169 q 282 93 283 117 q 251 31 279 56 q 185 -6 222 7 q 108 -26 147 -19 q 43 -33 68 -32 q 17 -33 18 -33 "},"~":{"ha":664,"x_min":99,"x_max":565,"o":"m 367 526 q 449 510 413 508 q 511 522 485 513 q 551 541 538 531 q 565 551 565 551 q 510 474 540 500 q 449 442 481 449 q 383 442 417 435 q 318 465 350 450 q 238 483 276 485 q 167 472 199 482 q 117 449 136 461 q 99 438 99 438 q 162 519 129 493 q 228 552 194 546 q 296 549 261 558 q 367 526 331 540 "},"":{"ha":161,"x_min":39,"x_max":147,"o":"m 72 158 q 81 169 72 160 q 101 188 90 179 q 123 199 113 196 q 136 192 133 201 q 123 91 147 144 q 39 1 99 38 q 46 17 39 1 q 60 57 53 33 q 73 108 68 81 q 72 158 78 135 "},"":{"ha":618,"x_min":0,"x_max":556,"o":"m 0 139 l 0 694 l 556 694 l 556 139 l 0 139 "},"":{"ha":264,"x_min":39,"x_max":258,"o":"m 183 158 q 192 169 183 160 q 213 188 201 179 q 234 199 224 196 q 247 192 244 201 q 234 91 258 144 q 150 1 210 38 q 157 17 150 1 q 172 57 164 33 q 184 108 179 81 q 183 158 189 135 m 72 158 q 81 169 72 160 q 101 188 90 179 q 123 199 113 196 q 136 192 133 201 q 123 91 147 144 q 39 1 99 38 q 46 17 39 1 q 60 57 53 33 q 73 108 68 81 q 72 158 78 135 "},"":{"ha":694,"x_min":21,"x_max":606,"o":"m 465 47 q 479 52 465 47 q 510 62 493 57 q 540 71 526 67 q 554 75 554 75 q 567 58 563 68 q 577 36 572 47 q 588 15 582 25 q 604 -1 594 4 q 591 -6 606 -1 q 558 -16 576 -11 q 523 -24 539 -21 q 506 -28 507 -28 q 490 -13 494 -22 q 483 6 486 -4 q 478 27 481 17 q 465 47 475 38 m 242 47 q 256 52 242 47 q 286 62 269 57 q 317 71 303 67 q 331 75 331 75 q 344 58 339 68 q 353 36 349 47 q 365 15 358 25 q 381 -1 371 4 q 367 -6 382 -1 q 334 -16 353 -11 q 299 -24 315 -21 q 282 -28 283 -28 q 267 -13 271 -22 q 260 6 263 -4 q 254 27 257 17 q 242 47 251 38 m 21 47 q 35 52 21 47 q 65 62 49 57 q 96 71 82 67 q 110 75 110 75 q 123 58 118 68 q 133 36 128 47 q 144 15 138 25 q 160 -1 150 4 q 147 -6 161 -1 q 113 -16 132 -11 q 78 -24 94 -21 q 61 -28 63 -28 q 46 -13 50 -22 q 39 6 42 -4 q 33 27 36 17 q 21 47 31 38 "},"":{"ha":128,"x_min":0,"x_max":114,"o":"m 72 794 l 72 688 l 114 688 l 114 667 l 72 667 q 75 655 72 667 q 81 625 78 643 q 87 586 85 607 q 89 549 89 565 q 76 473 86 504 q 42 406 65 442 l 42 667 l 0 667 l 0 688 l 42 688 l 42 794 l 72 794 "},"":{"ha":128,"x_min":0,"x_max":114,"o":"m 72 646 l 114 646 l 114 625 l 72 625 q 75 613 72 625 q 81 583 78 601 q 87 544 85 565 q 89 507 89 524 q 76 431 86 463 q 42 364 65 400 l 42 625 l 0 625 l 0 646 l 42 646 l 42 714 l 0 714 l 0 733 l 42 733 l 42 803 l 72 803 l 72 733 l 114 733 l 114 714 l 72 714 l 72 646 "},"":{"ha":556,"x_min":133,"x_max":432,"o":"m 149 415 l 133 428 q 152 442 133 428 q 195 478 171 457 q 243 525 219 500 q 278 569 267 550 q 288 557 278 569 q 319 527 299 544 q 367 491 339 510 q 432 460 396 472 l 376 413 q 333 438 356 422 q 292 469 310 454 q 262 495 274 485 q 250 506 250 506 q 224 474 240 490 q 190 445 207 458 q 161 424 174 432 q 149 415 149 415 "},"":{"ha":861,"x_min":0,"x_max":825,"o":"m 0 128 q 22 140 0 128 q 69 168 43 153 q 118 195 96 183 q 142 206 140 207 q 228 130 174 165 q 345 72 282 94 q 474 42 408 49 q 595 51 540 35 q 687 108 650 67 q 731 224 724 150 q 708 290 733 263 q 638 335 682 317 q 535 366 593 353 q 417 392 478 379 q 298 418 356 404 q 195 453 240 432 q 124 503 150 474 q 100 575 97 532 q 142 690 104 643 q 238 766 179 738 q 370 805 297 794 q 517 810 443 815 q 660 785 592 806 q 781 733 729 765 l 633 644 q 495 733 560 707 q 380 760 431 760 q 294 742 329 761 q 244 693 258 722 q 235 630 229 664 q 275 569 242 596 q 363 527 308 542 q 478 501 417 513 q 603 476 540 490 q 716 437 667 463 q 795 369 765 411 q 822 257 825 326 q 777 133 819 190 q 668 38 735 76 q 515 -21 601 -1 q 339 -32 429 -40 q 160 15 249 -24 q 0 128 72 53 m 588 983 l 603 971 q 584 956 603 971 q 541 920 565 942 q 493 874 517 899 q 458 829 469 849 q 440 850 456 832 q 387 895 424 868 q 304 939 350 922 l 360 986 q 403 960 381 975 q 444 929 426 944 q 474 903 463 914 q 486 893 486 893 q 513 924 496 908 q 546 953 529 940 q 575 975 563 967 q 588 983 588 983 "},"":{"ha":431,"x_min":7,"x_max":413,"o":"m 364 360 q 344 307 356 329 q 314 266 333 285 q 265 231 294 247 q 190 197 235 215 q 217 187 190 197 q 279 156 243 176 q 353 107 315 136 q 413 42 390 78 l 279 11 q 210 80 256 50 q 120 131 165 110 q 41 163 75 151 q 7 174 7 174 q 108 213 69 196 q 168 249 146 231 q 201 287 190 267 q 217 335 211 307 l 364 360 "},"":{"ha":1813,"x_min":11,"x_max":1818,"o":"m 689 72 q 535 -3 617 25 q 374 -32 453 -31 q 223 -4 294 -33 q 100 94 151 25 q 28 255 46 168 q 29 428 11 342 q 99 591 47 514 q 233 722 150 668 q 389 795 307 769 q 550 821 471 821 q 699 795 629 821 q 817 717 768 769 q 849 672 835 697 q 871 633 864 647 q 879 617 878 619 q 996 710 929 663 q 1154 784 1063 757 q 1367 806 1246 811 q 1646 744 1488 801 l 1546 647 q 1270 722 1382 710 q 1087 715 1158 733 q 977 658 1015 696 q 922 581 939 619 q 903 513 906 542 q 901 483 901 483 l 1651 483 q 1710 490 1681 483 q 1765 505 1740 497 q 1803 519 1789 513 q 1818 525 1818 525 q 1778 492 1804 511 q 1719 454 1751 472 q 1651 424 1686 436 q 1582 411 1615 411 l 901 411 q 901 400 901 411 q 903 371 900 389 q 915 330 907 353 q 940 283 924 307 q 989 225 957 260 q 1065 157 1021 190 q 1167 97 1110 124 q 1290 62 1224 71 q 1430 66 1356 53 q 1585 128 1504 79 q 1554 100 1585 128 q 1470 41 1524 72 q 1344 -14 1417 10 q 1186 -29 1271 -37 q 1008 31 1101 -21 q 821 201 915 82 q 813 185 821 200 q 776 140 806 171 q 689 72 746 108 m 656 89 q 739 169 710 118 q 774 283 768 221 q 767 413 781 346 q 722 541 753 481 q 644 648 690 601 q 539 717 597 694 q 387 742 457 747 q 267 696 317 736 q 190 580 217 656 q 167 394 163 504 q 192 286 168 338 q 253 192 215 235 q 340 119 290 150 q 442 72 389 88 q 551 60 496 57 q 656 89 606 63 "},"":{"ha":144,"x_min":8,"x_max":117,"o":"m 117 582 q 33 672 57 618 q 19 772 8 725 q 32 779 21 782 q 54 768 43 776 q 74 750 65 760 q 83 739 83 740 q 83 688 78 715 q 95 638 88 661 q 110 598 103 614 q 117 582 117 582 "},"":{"ha":128,"x_min":6,"x_max":114,"o":"m 39 739 q 48 750 39 740 q 68 768 57 760 q 90 779 79 776 q 103 772 100 782 q 90 672 114 725 q 6 582 65 618 q 13 598 6 582 q 27 638 19 614 q 40 688 35 661 q 39 739 44 715 "},"":{"ha":285,"x_min":3,"x_max":250,"o":"m 250 582 q 166 672 190 618 q 153 772 142 725 q 165 779 154 782 q 188 768 176 776 q 208 750 199 760 q 217 739 217 740 q 216 688 211 715 q 228 638 221 661 q 243 598 236 614 q 250 582 250 582 m 111 593 q 27 683 51 629 q 14 783 3 736 q 26 790 15 793 q 49 779 38 788 q 69 761 60 771 q 78 750 78 751 q 77 699 72 726 q 90 649 82 672 q 104 609 97 625 q 111 593 111 593 "},"":{"ha":278,"x_min":25,"x_max":272,"o":"m 58 739 q 67 750 58 740 q 88 768 76 760 q 109 779 99 776 q 122 772 119 782 q 109 672 133 725 q 25 582 85 618 q 32 598 25 582 q 47 638 39 614 q 59 688 54 661 q 58 739 64 715 m 197 750 q 206 761 197 751 q 226 779 215 771 q 248 790 238 788 q 261 783 258 793 q 248 683 272 736 q 164 593 224 629 q 171 609 164 593 q 185 649 178 625 q 198 699 193 672 q 197 750 203 726 "},"":{"ha":1389,"x_min":0,"x_max":543,"o":"m 543 349 q 503 198 543 258 q 402 107 463 138 q 271 76 342 76 q 141 107 201 76 q 40 198 81 138 q 0 349 0 258 q 40 499 0 439 q 141 590 81 560 q 271 621 201 621 q 402 590 342 621 q 503 499 463 560 q 543 349 543 439 "},"":{"ha":760,"x_min":44,"x_max":697,"o":"m 197 264 l 697 264 l 544 188 l 44 188 l 197 264 "},"":{"ha":1083,"x_min":44,"x_max":1017,"o":"m 197 264 l 1017 264 l 864 188 l 44 188 l 197 264 "},"":{"ha":663,"x_min":99,"x_max":565,"o":"m 367 526 q 449 510 413 508 q 511 522 485 513 q 551 541 538 531 q 565 551 565 551 q 510 474 540 500 q 449 442 481 449 q 383 442 417 435 q 318 465 350 450 q 238 483 276 485 q 167 472 199 482 q 117 449 136 461 q 99 438 99 438 q 162 519 129 493 q 228 552 194 546 q 296 549 261 558 q 367 526 331 540 "},"":{"ha":989,"x_min":0,"x_max":914,"o":"m 193 756 q 113 712 132 736 q 99 665 94 688 q 121 624 104 642 q 147 600 138 606 q 222 571 186 572 q 287 579 258 569 q 333 601 315 589 q 350 614 350 614 q 272 553 317 569 q 183 541 226 538 q 106 563 140 544 q 61 610 72 582 q 53 650 53 631 q 65 690 53 671 q 103 726 76 708 q 174 760 129 744 q 158 762 174 760 q 119 765 143 764 q 63 763 94 765 q 0 751 32 761 q 13 763 1 753 q 52 785 25 772 q 115 797 79 797 q 183 792 157 799 q 233 782 208 786 q 290 778 258 778 q 376 792 322 778 q 353 774 376 792 q 275 747 331 756 q 220 750 244 743 q 193 756 196 757 m 443 543 q 399 614 408 578 q 398 682 389 650 q 431 739 407 714 q 489 778 456 764 q 565 794 531 794 q 625 785 600 793 q 663 769 650 778 q 676 760 676 760 q 738 780 707 771 q 797 789 769 789 q 851 777 826 789 q 892 735 875 765 q 911 662 914 694 q 892 606 908 629 q 856 565 876 582 q 819 541 835 549 q 803 533 804 533 q 860 611 851 571 q 846 696 868 651 q 794 753 824 742 q 739 763 765 765 q 694 749 713 760 q 676 739 676 739 l 676 575 l 635 539 l 635 726 q 622 737 635 726 q 585 757 608 747 q 533 768 563 767 q 471 753 504 769 q 441 717 449 740 q 437 667 433 693 q 452 616 440 640 q 481 578 464 592 l 443 543 "},"":{"ha":544,"x_min":0,"x_max":500,"o":"m 0 14 q 17 26 0 14 q 56 51 35 38 q 94 77 76 65 q 111 88 111 89 q 155 50 121 65 q 227 30 189 35 q 299 35 265 25 q 340 72 332 44 q 327 120 350 104 q 267 144 304 136 q 184 155 229 151 q 101 164 139 158 q 43 181 64 169 q 33 218 22 193 q 108 315 58 274 q 219 378 157 357 q 354 397 282 399 q 500 364 426 394 q 482 353 500 364 q 442 328 464 342 q 401 303 419 314 q 382 293 383 293 q 324 323 363 311 q 246 338 285 335 q 178 333 207 340 q 149 306 149 326 q 174 265 149 279 q 239 242 200 250 q 324 228 278 233 q 408 213 369 222 q 473 189 447 204 q 499 146 499 174 q 474 108 499 131 q 408 61 449 85 q 315 17 367 38 q 207 -14 263 -4 q 97 -19 151 -24 q 0 14 43 -14 m 426 586 l 442 574 q 423 559 442 574 q 380 523 404 544 q 332 476 356 501 q 297 432 308 451 q 278 453 294 435 q 226 498 263 471 q 143 542 189 525 l 199 589 q 242 563 219 578 q 283 532 265 547 q 313 506 301 517 q 325 496 325 496 q 351 527 335 511 q 385 556 368 543 q 414 578 401 569 q 426 586 426 586 "},"":{"ha":431,"x_min":13,"x_max":418,"o":"m 61 15 q 81 68 69 46 q 111 109 92 90 q 160 144 131 128 q 235 178 190 160 q 208 188 235 178 q 146 219 182 199 q 72 268 110 239 q 13 333 35 297 l 146 364 q 214 295 168 325 q 305 244 260 265 q 384 213 350 224 q 418 201 418 201 q 317 162 356 179 q 257 126 279 144 q 224 88 235 108 q 208 40 214 67 l 61 15 "},"":{"ha":1067,"x_min":-18,"x_max":1051,"o":"m 354 -14 q 218 -33 289 -39 q 92 1 147 -28 q 10 78 38 31 q 4 183 -18 125 q 67 272 24 233 q 166 336 110 310 q 286 376 222 363 q 413 392 350 390 q 531 381 475 393 q 625 344 586 369 q 641 352 628 346 q 672 366 654 358 q 696 374 690 374 q 858 384 789 394 q 972 353 928 374 q 1033 310 1015 332 q 1043 286 1051 288 l 675 188 q 676 169 675 188 q 685 125 676 150 q 714 75 694 100 q 770 38 733 50 q 864 33 807 25 q 1004 79 921 40 q 998 69 1010 82 q 960 38 986 56 q 897 0 935 19 q 809 -29 858 -19 q 701 -35 760 -39 q 579 -3 643 -31 q 535 26 551 8 q 514 54 519 43 q 508 67 508 65 q 445 28 478 47 q 354 -14 413 8 m 174 192 q 191 131 175 158 q 231 85 207 104 q 285 53 256 65 q 342 36 314 42 q 394 33 371 31 q 432 44 418 35 q 474 97 458 63 q 492 172 490 132 q 479 250 493 211 q 432 317 465 289 q 340 358 386 354 q 256 341 293 361 q 194 281 218 321 q 174 192 171 242 m 675 210 l 863 260 q 867 277 872 263 q 844 307 863 292 q 799 332 826 322 q 739 333 772 342 q 699 308 713 328 q 680 266 685 288 q 675 226 675 244 q 675 210 675 210 "},"":{"ha":1139,"x_min":0,"x_max":1111,"o":"m 594 53 l 167 668 q 125 693 153 688 q 69 698 97 699 q 21 693 42 697 q 0 689 0 689 q 69 760 33 728 q 141 806 106 792 q 210 812 176 821 q 272 761 243 803 l 686 158 q 717 190 688 160 q 792 272 747 221 q 878 383 836 324 q 944 503 919 443 q 961 612 969 564 q 897 688 953 660 q 722 711 842 717 q 745 726 724 713 q 803 760 767 740 q 881 793 840 779 q 963 809 921 807 q 1033 789 1004 811 q 1101 694 1090 747 q 1088 582 1111 642 q 1017 457 1065 522 q 910 324 969 392 q 785 187 850 256 q 665 53 721 118 q 570 -74 610 -12 q 522 -187 531 -135 q 540 -284 513 -240 q 647 -358 568 -328 l 450 -506 q 398 -390 404 -453 q 408 -266 392 -328 q 455 -147 424 -204 q 517 -44 486 -89 q 572 26 549 0 q 594 53 594 53 m 603 871 q 625 899 607 882 q 663 931 643 917 q 700 951 683 944 q 717 949 717 958 q 726 913 718 924 q 746 899 735 901 q 770 901 757 897 q 793 910 783 906 q 809 915 803 914 q 813 911 815 917 q 785 872 804 892 q 744 836 765 853 q 701 808 722 819 q 671 792 681 796 q 651 796 664 789 q 626 815 639 803 q 606 842 614 826 q 603 871 599 857 m 306 871 q 328 899 310 882 q 367 931 346 917 q 404 951 388 944 q 421 949 421 958 q 439 904 422 911 q 474 902 456 897 q 506 914 492 907 q 515 911 519 921 q 488 872 507 892 q 447 836 469 853 q 405 808 425 819 q 375 792 385 796 q 355 796 368 789 q 329 815 342 803 q 309 842 317 826 q 306 871 301 857 "},"":{"ha":225,"x_min":63,"x_max":176,"o":"m 63 -15 l 63 547 l 176 610 l 176 61 l 63 -15 m 176 693 l 63 617 l 63 735 l 176 797 l 176 693 "},"":{"ha":594,"x_min":4,"x_max":553,"o":"m 329 64 q 347 66 332 64 q 388 74 361 68 q 439 86 414 79 q 469 97 453 90 q 499 108 485 103 q 522 117 513 114 q 533 114 532 119 q 515 89 536 104 q 465 58 494 74 q 403 28 435 43 q 351 5 372 14 q 329 -4 331 -4 l 329 -104 l 271 -126 l 271 -21 q 245 -28 269 -22 q 182 -33 221 -33 q 105 -15 143 -33 q 38 50 67 3 q 6 183 10 97 q 31 247 4 218 q 97 297 58 275 q 176 333 136 318 q 242 356 217 349 q 271 364 268 364 l 271 458 l 329 481 l 329 378 q 353 383 329 378 q 411 388 376 388 q 485 381 446 389 q 553 347 524 374 q 531 334 553 347 q 483 306 510 321 q 431 281 456 292 q 400 275 406 269 q 370 294 388 286 q 342 305 353 301 q 329 308 331 308 l 329 64 m 271 318 q 249 319 271 318 q 203 315 228 321 q 158 295 178 310 q 139 247 138 281 q 163 147 142 183 q 208 93 183 111 q 251 71 232 75 q 271 67 271 67 l 271 318 "},"":{"ha":764,"x_min":0,"x_max":765,"o":"m 149 -17 l 149 403 l 0 403 l 85 458 l 149 458 l 149 631 q 171 684 149 657 q 231 735 193 711 q 316 775 268 758 q 414 797 364 792 q 513 791 464 801 q 603 751 563 781 q 590 740 604 750 q 558 718 576 729 q 522 699 539 707 q 503 693 506 690 q 399 755 440 746 q 333 747 357 764 q 298 697 308 731 q 288 629 288 663 l 288 458 l 481 458 l 389 403 l 288 403 l 288 71 q 304 80 288 71 q 347 101 321 89 q 402 122 372 113 q 458 131 432 131 q 499 122 482 131 q 532 103 517 114 q 565 83 547 93 q 608 69 582 72 q 671 73 633 67 q 764 101 708 79 q 753 84 765 101 q 716 45 742 67 q 649 4 690 24 q 550 -17 607 -15 q 472 -7 497 -19 q 428 20 446 6 q 394 47 411 35 q 343 56 378 58 q 278 42 313 53 q 215 17 244 31 q 167 -6 186 4 q 149 -17 149 -17 "},"":{"ha":706,"x_min":54,"x_max":657,"o":"m 408 361 l 408 294 l 522 294 l 522 228 l 408 228 l 408 0 l 301 0 l 301 228 l 189 228 l 189 294 l 301 294 l 301 361 l 189 361 l 189 428 l 276 428 l 54 794 l 178 794 l 356 483 l 533 794 l 657 794 l 433 428 l 522 428 l 522 361 l 408 361 "},"":{"ha":204,"x_min":0,"x_max":114,"o":"m 114 372 l 114 0 l 0 0 l 0 372 l 114 372 m 0 454 l 0 826 l 114 826 l 114 454 l 0 454 "},"":{"ha":569,"x_min":-1,"x_max":513,"o":"m 300 490 q 322 519 304 501 q 360 550 340 536 q 397 571 381 564 q 414 568 414 578 q 424 532 415 543 q 443 519 432 521 q 467 521 454 517 q 490 529 481 525 q 506 535 500 533 q 510 531 513 536 q 482 492 501 511 q 441 456 463 472 q 399 427 419 439 q 368 411 378 415 q 349 415 361 408 q 324 434 336 422 q 303 461 311 446 q 300 490 296 476 m 3 490 q 25 519 7 501 q 64 550 43 536 q 101 571 85 564 q 118 568 118 578 q 136 524 119 531 q 171 522 153 517 q 203 533 189 526 q 213 531 217 540 q 185 492 204 511 q 144 456 167 472 q 102 427 122 439 q 72 411 82 415 q 52 415 65 408 q 26 434 39 422 q 6 461 14 446 q 3 490 -1 476 "},"":{"ha":569,"x_min":-3,"x_max":522,"o":"m 11 203 q 47 285 18 251 q 115 338 75 318 q 202 366 154 358 q 297 372 250 374 q 388 358 344 369 q 461 328 431 346 q 477 337 464 329 q 506 352 490 344 q 522 358 522 360 l 522 -286 q 491 -362 522 -325 q 410 -431 460 -400 q 303 -481 361 -461 q 191 -503 244 -500 q 95 -491 138 -507 q 38 -433 53 -475 q 53 -422 38 -433 q 86 -398 68 -411 q 119 -374 104 -385 q 135 -364 135 -364 q 252 -452 201 -436 q 338 -451 303 -468 q 390 -393 372 -433 q 408 -311 408 -353 l 408 14 q 375 8 408 18 q 293 -10 342 -1 q 189 -21 244 -19 q 90 -3 133 -22 q 22 65 46 17 q 11 203 -3 113 m 408 75 l 408 286 q 388 331 408 315 q 336 349 367 346 q 269 344 306 351 q 199 322 232 338 q 144 283 167 307 q 118 232 121 260 q 130 141 111 179 q 181 78 149 103 q 253 42 214 53 q 326 31 292 31 q 385 42 361 31 q 408 75 408 53 "},"":{"ha":458,"x_min":0,"x_max":428,"o":"m 15 431 q 10 486 1 461 q 39 528 18 511 q 90 557 60 546 q 149 572 119 568 q 203 574 178 576 q 240 564 228 572 q 256 563 247 560 q 276 571 265 565 q 276 568 278 572 q 275 553 275 564 q 279 522 275 542 q 297 471 283 501 q 331 434 310 443 q 374 426 353 425 q 409 433 394 428 q 422 438 424 438 q 321 394 358 397 q 264 402 283 390 q 239 431 244 414 q 233 447 233 447 q 188 413 219 429 q 122 391 157 397 q 58 393 88 385 q 15 431 28 401 m 75 506 q 91 440 75 460 q 130 419 107 421 q 176 425 153 417 q 215 442 200 433 q 232 451 231 450 l 206 526 q 185 534 206 528 q 140 542 164 540 q 95 538 115 544 q 75 506 75 531 m 17 372 l 428 372 l 411 356 l 0 356 l 17 372 "},"":{"ha":764,"x_min":4,"x_max":735,"o":"m 686 374 q 667 321 678 343 q 636 280 656 299 q 587 245 617 261 q 513 211 557 229 q 539 201 513 211 q 601 170 565 190 q 675 121 638 150 q 735 56 713 92 l 601 25 q 533 94 578 64 q 442 144 488 124 q 363 176 397 165 q 329 188 329 188 q 430 227 392 210 q 490 263 468 244 q 523 301 513 281 q 539 349 533 321 l 686 374 m 400 360 q 356 288 378 318 q 306 238 333 258 q 245 205 279 217 q 168 186 211 193 q 192 176 168 186 q 255 149 217 167 q 340 106 293 131 q 432 51 388 81 l 290 19 q 186 81 238 53 q 94 130 135 110 q 29 161 54 150 q 4 172 4 172 q 113 199 68 182 q 189 238 158 217 q 237 287 219 260 q 264 343 254 314 l 400 360 "},"":{"ha":1201,"x_min":0,"x_max":1206,"o":"m 283 19 l 169 -64 l 169 181 q 150 238 169 222 q 103 253 131 253 q 54 246 79 253 q 15 233 29 239 q 0 225 1 226 q 30 247 0 225 q 99 297 60 269 q 178 346 139 324 q 235 368 217 368 q 261 358 251 368 q 276 335 271 349 q 282 308 281 321 q 283 286 283 294 q 311 303 283 286 q 383 341 339 321 q 481 378 426 361 q 590 396 536 396 q 696 379 649 396 q 788 342 743 363 q 880 304 832 321 q 989 288 928 288 q 1069 295 1031 288 q 1138 312 1108 303 q 1187 328 1168 321 q 1206 336 1206 336 q 1188 317 1206 336 q 1130 273 1169 297 q 1027 229 1090 249 q 874 210 964 210 q 710 226 789 210 q 569 264 632 243 q 465 301 507 285 q 411 318 424 318 q 382 308 403 318 q 340 286 361 299 q 301 260 318 274 q 283 239 283 247 l 283 19 "},"":{"ha":579,"x_min":19,"x_max":547,"o":"m 172 489 l 547 489 l 394 432 l 19 432 l 172 489 "},"":{"ha":492,"x_min":119,"x_max":367,"o":"m 142 753 q 188 791 161 778 q 242 805 214 804 q 298 793 271 806 q 346 754 325 781 q 367 694 367 728 q 352 633 367 663 q 310 584 338 604 q 246 564 282 564 q 181 583 210 564 q 135 630 151 601 q 119 690 119 658 q 142 753 119 724 m 246 597 q 319 635 299 599 q 306 729 339 671 q 274 764 293 751 q 235 778 256 776 q 197 768 215 779 q 165 732 178 757 q 163 692 157 715 q 181 647 168 668 q 211 612 193 626 q 246 597 229 597 "},"":{"ha":508,"x_min":90,"x_max":411,"o":"m 90 457 q 124 476 90 457 q 197 526 157 494 q 271 599 238 557 q 306 690 304 642 q 287 742 306 719 q 244 772 268 764 q 200 771 221 781 q 175 725 179 761 l 115 694 q 162 759 128 733 q 235 794 196 785 q 307 797 274 804 q 353 763 340 789 q 350 680 369 724 q 299 599 331 636 q 240 537 268 561 q 211 513 211 513 q 286 481 250 485 q 350 485 322 478 q 394 504 378 493 q 411 515 411 515 q 333 456 364 474 q 280 436 303 439 q 240 440 257 433 q 202 454 222 447 q 156 465 182 461 q 90 457 129 468 "},"":{"ha":463,"x_min":79,"x_max":393,"o":"m 79 433 q 94 446 81 435 q 139 469 108 457 q 207 478 169 481 q 238 472 224 478 q 264 461 251 467 q 290 454 276 456 q 317 461 303 453 q 328 494 329 468 q 313 548 328 519 q 272 597 299 576 q 204 615 244 618 q 220 625 204 615 q 253 651 236 635 q 281 691 271 668 q 279 739 292 714 q 244 761 271 760 q 188 756 217 763 q 135 742 158 750 q 113 733 113 733 q 181 776 142 760 q 257 795 221 793 q 319 783 293 797 q 344 733 344 768 q 340 706 344 717 q 325 685 335 694 q 301 667 315 676 q 265 646 286 658 q 288 643 268 646 q 335 623 308 640 q 375 568 363 606 q 363 476 393 513 q 275 428 333 439 q 225 429 247 422 q 181 443 203 436 q 136 451 160 450 q 79 433 113 451 "},"":{"ha":611,"x_min":206,"x_max":447,"o":"m 206 404 q 230 417 206 404 q 285 452 254 429 q 345 506 317 475 q 383 574 374 536 q 396 580 385 583 q 418 568 407 576 q 438 551 429 560 q 447 540 447 542 q 408 478 432 501 q 353 441 385 456 q 285 419 322 426 q 206 404 247 411 "},"":{"ha":822,"x_min":-10,"x_max":769,"o":"m 50 64 l 50 247 q 33 273 50 264 q 0 275 15 282 q -1 278 -10 271 q 27 300 8 286 q 70 331 46 314 q 117 363 94 349 q 155 386 139 378 q 172 392 171 394 q 258 304 200 333 q 387 255 317 275 q 528 213 457 235 q 656 147 600 192 q 660 171 656 147 q 663 222 664 194 q 650 269 661 249 q 608 283 639 289 q 620 296 608 283 q 650 325 632 308 q 689 358 668 342 q 728 379 710 374 q 758 376 746 385 q 769 336 769 368 l 769 108 q 754 80 769 100 q 720 40 739 60 q 685 4 701 19 q 667 -8 668 -11 q 593 57 636 32 q 502 99 550 82 q 404 128 454 117 q 308 151 354 139 q 224 179 263 164 q 164 219 186 194 q 159 195 164 219 q 158 142 154 171 q 182 91 163 114 q 250 69 201 68 q 243 56 256 69 q 208 28 231 43 q 159 -1 186 13 q 108 -15 132 -14 q 67 1 83 -15 q 50 64 50 18 "},"":{"ha":800,"x_min":71,"x_max":701,"o":"m 701 718 l 629 718 l 629 -314 l 549 -314 l 549 718 l 438 718 l 438 -314 l 356 -314 l 356 231 q 251 253 301 231 q 160 315 200 276 q 95 405 119 353 q 71 515 71 457 q 94 627 71 575 q 156 717 117 679 q 247 778 196 756 q 356 800 299 800 l 701 800 l 701 718 "},"":{"ha":221,"x_min":32,"x_max":172,"o":"m 32 436 q 46 441 32 436 q 76 451 60 446 q 107 460 93 456 q 121 464 121 464 q 134 447 129 457 q 144 425 139 436 q 155 403 149 414 q 171 388 161 393 q 158 383 172 388 q 124 373 143 378 q 90 365 106 368 q 72 361 74 361 q 57 376 61 367 q 50 395 53 385 q 44 416 47 406 q 32 436 42 426 "},"":{"ha":556,"x_min":219,"x_max":382,"o":"m 344 0 q 323 -6 331 0 q 315 -25 315 -12 q 325 -55 315 -37 q 357 -93 335 -72 q 378 -133 382 -117 q 356 -161 374 -150 q 311 -178 338 -172 q 263 -185 285 -183 q 230 -185 240 -186 q 233 -179 219 -183 q 286 -152 274 -168 q 294 -119 299 -136 q 276 -84 290 -101 q 248 -51 261 -67 q 230 -22 235 -35 q 240 0 225 -8 l 344 0 "},"":{"ha":315,"x_min":106,"x_max":203,"o":"m 140 433 l 140 751 q 131 760 140 758 q 115 762 122 763 q 106 761 107 761 q 133 779 117 768 q 165 797 150 790 q 192 800 181 803 q 203 776 203 797 l 203 467 l 140 433 "},"":{"ha":344,"x_min":-6,"x_max":311,"o":"m 6 494 q 39 540 15 519 q 92 574 63 560 q 156 594 122 588 q 219 599 190 601 q 270 586 249 597 q 299 553 292 575 q 296 501 307 525 q 264 456 285 476 q 216 419 243 435 q 164 393 189 403 q 99 384 132 381 q 41 402 65 388 q 6 441 17 417 q 6 494 -6 465 m 74 496 q 92 454 75 471 q 130 428 108 438 q 172 417 151 419 q 203 422 193 415 q 224 449 217 432 q 233 486 232 467 q 226 525 233 506 q 203 558 219 544 q 157 579 181 576 q 115 572 133 582 q 84 541 96 561 q 74 496 72 521 m 17 372 l 311 372 l 294 356 l 0 356 l 17 372 "},"":{"ha":776,"x_min":13,"x_max":743,"o":"m 61 15 q 81 68 69 46 q 111 109 92 90 q 160 144 131 128 q 235 178 190 160 q 208 188 235 178 q 146 219 182 199 q 72 268 110 239 q 13 333 35 297 l 146 364 q 214 295 168 325 q 305 244 260 265 q 384 213 350 224 q 418 201 418 201 q 317 162 356 179 q 257 126 279 144 q 224 88 235 108 q 208 40 214 67 l 61 15 m 347 29 q 392 101 369 71 q 441 151 414 131 q 501 184 468 172 q 579 203 535 196 q 555 213 579 203 q 492 240 531 222 q 407 283 454 258 q 315 338 360 308 l 457 369 q 561 308 510 336 q 653 259 613 279 q 718 228 693 239 q 743 217 743 217 q 633 189 678 206 q 558 151 588 172 q 510 102 528 129 q 483 46 493 75 l 347 29 "},"":{"ha":413,"x_min":31,"x_max":403,"o":"m 186 447 l 186 765 q 177 774 186 772 q 160 776 168 776 q 151 775 153 775 q 179 793 163 782 q 211 810 196 804 q 238 814 226 817 q 249 790 249 811 l 249 481 l 186 447 m 56 386 l 69 431 l 350 431 l 336 386 l 56 386 m 31 101 q 49 122 31 101 q 85 174 67 142 q 113 246 103 206 q 107 326 124 286 l 165 354 q 174 259 183 300 q 147 190 165 218 q 111 149 129 163 q 93 135 93 135 l 260 135 l 260 335 l 322 357 l 322 135 l 403 135 l 357 101 l 322 101 l 322 7 l 260 -31 l 260 101 l 31 101 "},"":{"ha":392,"x_min":44,"x_max":365,"o":"m 183 447 l 183 765 q 174 774 183 772 q 158 776 165 776 q 149 775 150 775 q 176 793 160 782 q 208 810 193 804 q 235 814 224 817 q 246 790 246 811 l 246 481 l 183 447 m 44 7 q 78 26 44 7 q 151 76 111 44 q 225 149 192 107 q 260 240 258 192 q 241 292 260 269 q 199 322 222 314 q 154 321 175 331 q 129 275 133 311 l 69 244 q 116 309 82 283 q 189 344 150 335 q 261 347 228 354 q 307 313 294 339 q 304 230 324 274 q 253 149 285 186 q 194 87 222 111 q 165 63 165 63 q 240 31 204 35 q 304 35 276 28 q 349 54 332 43 q 365 65 365 65 q 288 6 319 24 q 234 -14 257 -11 q 194 -10 211 -17 q 156 4 176 -3 q 110 15 136 11 q 44 7 83 18 m 56 386 l 69 431 l 350 431 l 336 386 l 56 386 "},"":{"ha":463,"x_min":31,"x_max":403,"o":"m 51 458 q 67 471 53 460 q 111 494 81 482 q 179 503 142 506 q 210 497 196 503 q 236 486 224 492 q 262 479 249 481 q 289 486 275 478 q 301 519 301 493 q 285 573 300 544 q 244 622 271 601 q 176 640 217 643 q 192 650 176 640 q 226 676 208 660 q 253 716 243 693 q 251 764 264 739 q 216 786 243 785 q 160 781 189 788 q 108 767 131 775 q 85 758 85 758 q 153 801 114 785 q 229 820 193 818 q 291 808 265 822 q 317 758 317 793 q 312 731 317 742 q 297 710 307 719 q 273 692 288 701 q 238 671 258 683 q 260 668 240 671 q 308 648 281 665 q 347 593 335 631 q 335 501 365 538 q 247 453 306 464 q 197 454 219 447 q 153 468 175 461 q 108 476 132 475 q 51 458 85 476 m 56 372 l 69 417 l 350 417 l 336 372 l 56 372 m 31 88 q 49 108 31 88 q 85 160 67 128 q 113 232 103 192 q 107 313 124 272 l 165 340 q 174 245 183 286 q 147 176 165 204 q 111 135 129 149 q 93 121 93 121 l 260 121 l 260 321 l 322 343 l 322 121 l 403 121 l 357 88 l 322 88 l 322 -7 l 260 -44 l 260 88 l 31 88 "},"":{"ha":621,"x_min":51,"x_max":633,"o":"m 631 189 q 599 99 633 144 q 512 17 565 54 q 392 -44 458 -19 q 264 -74 326 -69 q 151 -60 201 -79 q 81 11 101 -40 q 66 130 51 81 q 116 215 81 179 q 197 281 151 251 q 278 340 243 310 q 323 403 311 369 q 336 465 335 438 q 333 512 338 493 q 328 531 328 531 l 436 597 l 436 475 q 408 413 436 442 q 342 356 381 385 q 262 298 303 328 q 194 233 221 268 q 163 154 167 197 q 193 57 158 111 q 250 1 217 21 q 320 -25 283 -19 q 392 -23 357 -31 q 455 3 428 -15 q 498 49 482 21 q 510 113 514 76 l 631 189 m 436 676 l 328 608 l 328 708 l 436 776 l 436 676 "},"":{"ha":1063,"x_min":0,"x_max":1054,"o":"m 6 -28 q 17 -1 0 -24 q 62 60 33 21 q 125 152 90 99 q 190 273 160 206 q 242 420 221 340 q 263 590 263 500 q 250 721 263 651 q 267 740 250 725 q 303 770 283 754 q 340 799 324 786 q 357 811 357 811 q 535 529 454 647 q 682 329 615 411 q 801 197 749 247 q 894 119 853 147 q 963 83 935 92 q 1011 74 992 74 q 1040 81 1026 74 q 1054 89 1054 89 q 1046 74 1054 89 q 1019 41 1038 58 q 973 8 1001 24 q 906 -7 944 -7 q 807 22 854 -7 q 723 84 760 50 q 664 147 686 118 q 642 175 642 175 q 409 138 507 160 q 244 91 311 115 q 133 43 176 67 q 65 2 90 19 q 26 -24 39 -15 q 6 -28 14 -33 m 182 114 q 336 168 263 146 q 466 204 410 190 q 556 225 522 218 q 589 232 589 232 q 530 308 563 264 q 468 390 497 351 q 419 456 439 429 q 400 482 400 482 q 344 356 381 421 q 271 237 307 290 q 208 149 235 183 q 182 114 182 114 m 46 940 q 55 951 46 942 q 75 968 64 960 q 97 980 86 976 q 110 974 107 983 q 148 906 119 936 q 208 852 176 875 q 263 817 239 829 q 288 804 288 804 q 208 819 246 811 q 140 841 171 826 q 85 878 108 856 q 46 940 61 901 "},"":{"ha":1063,"x_min":0,"x_max":1054,"o":"m 6 -28 q 17 -1 0 -24 q 62 60 33 21 q 125 152 90 99 q 190 273 160 206 q 242 420 221 340 q 263 590 263 500 q 250 721 263 651 q 267 740 250 725 q 303 770 283 754 q 340 799 324 786 q 357 811 357 811 q 535 529 454 647 q 682 329 615 411 q 801 197 749 247 q 894 119 853 147 q 963 83 935 92 q 1011 74 992 74 q 1040 81 1026 74 q 1054 89 1054 89 q 1046 74 1054 89 q 1019 41 1038 58 q 973 8 1001 24 q 906 -7 944 -7 q 807 22 854 -7 q 723 84 760 50 q 664 147 686 118 q 642 175 642 175 q 409 138 507 160 q 244 91 311 115 q 133 43 176 67 q 65 2 90 19 q 26 -24 39 -15 q 6 -28 14 -33 m 182 114 q 336 168 263 146 q 466 204 410 190 q 556 225 522 218 q 589 232 589 232 q 530 308 563 264 q 468 390 497 351 q 419 456 439 429 q 400 482 400 482 q 344 356 381 421 q 271 237 307 290 q 208 149 235 183 q 182 114 182 114 m 319 818 q 344 824 319 818 q 399 842 368 831 q 459 869 431 854 q 497 903 488 885 q 512 910 501 911 q 533 903 522 908 q 553 892 544 899 q 561 886 561 886 q 467 836 531 847 q 319 818 403 825 "},"":{"ha":1063,"x_min":0,"x_max":1054,"o":"m 6 -28 q 17 -1 0 -24 q 62 60 33 21 q 125 152 90 99 q 190 273 160 206 q 242 420 221 340 q 263 590 263 500 q 250 721 263 651 q 267 740 250 725 q 303 770 283 754 q 340 799 324 786 q 357 811 357 811 q 535 529 454 647 q 682 329 615 411 q 801 197 749 247 q 894 119 853 147 q 963 83 935 92 q 1011 74 992 74 q 1040 81 1026 74 q 1054 89 1054 89 q 1046 74 1054 89 q 1019 41 1038 58 q 973 8 1001 24 q 906 -7 944 -7 q 807 22 854 -7 q 723 84 760 50 q 664 147 686 118 q 642 175 642 175 q 409 138 507 160 q 244 91 311 115 q 133 43 176 67 q 65 2 90 19 q 26 -24 39 -15 q 6 -28 14 -33 m 182 114 q 336 168 263 146 q 466 204 410 190 q 556 225 522 218 q 589 232 589 232 q 530 308 563 264 q 468 390 497 351 q 419 456 439 429 q 400 482 400 482 q 344 356 381 421 q 271 237 307 290 q 208 149 235 183 q 182 114 182 114 m 243 829 l 228 842 q 247 856 228 842 q 290 892 265 871 q 338 939 314 914 q 372 983 361 964 q 383 971 372 983 q 413 941 393 958 q 462 905 433 924 q 526 874 490 886 l 471 826 q 427 852 450 836 q 386 883 404 868 q 356 909 368 899 q 344 919 344 919 q 318 888 335 904 q 285 859 301 872 q 256 838 268 846 q 243 829 243 829 "},"":{"ha":1028,"x_min":0,"x_max":1058,"o":"m 6 -33 q 17 -8 0 -29 q 62 52 33 14 q 126 144 90 90 q 192 263 161 197 q 243 407 222 329 q 264 574 264 485 q 251 701 264 635 q 268 719 251 706 q 305 749 285 733 q 342 778 325 765 q 358 790 358 790 q 537 514 456 631 q 685 317 618 397 q 804 188 751 238 q 897 112 857 139 q 967 76 938 85 q 1015 67 996 67 q 1044 74 1031 67 q 1058 82 1058 82 q 1050 67 1058 82 q 1024 35 1042 53 q 977 2 1006 17 q 910 -12 949 -12 q 810 15 858 -12 q 726 77 763 43 q 667 139 689 111 q 644 167 644 167 q 410 129 508 151 q 244 83 313 107 q 133 37 176 60 q 65 -3 90 14 q 26 -30 39 -21 q 6 -33 14 -39 m 183 106 q 338 158 264 136 q 469 194 413 181 q 558 215 525 208 q 592 222 592 222 q 531 297 564 254 q 469 377 499 339 q 421 441 440 415 q 401 467 401 467 q 345 343 382 407 q 272 226 308 279 q 210 140 236 174 q 183 106 183 106 m 458 890 q 540 874 504 872 q 603 885 576 876 q 643 905 629 894 q 657 915 657 915 q 602 838 632 864 q 540 806 572 813 q 475 806 508 799 q 410 829 442 814 q 329 847 368 849 q 259 835 290 846 q 209 813 228 825 q 190 801 190 801 q 253 883 221 857 q 319 916 286 910 q 388 913 353 922 q 458 890 422 904 "},"":{"ha":1063,"x_min":0,"x_max":1054,"o":"m 6 -28 q 17 -1 0 -24 q 62 60 33 21 q 125 152 90 99 q 190 273 160 206 q 242 420 221 340 q 263 590 263 500 q 250 721 263 651 q 267 740 250 725 q 303 770 283 754 q 340 799 324 786 q 357 811 357 811 q 535 529 454 647 q 682 329 615 411 q 801 197 749 247 q 894 119 853 147 q 963 83 935 92 q 1011 74 992 74 q 1040 81 1026 74 q 1054 89 1054 89 q 1046 74 1054 89 q 1019 41 1038 58 q 973 8 1001 24 q 906 -7 944 -7 q 807 22 854 -7 q 723 84 760 50 q 664 147 686 118 q 642 175 642 175 q 409 138 507 160 q 244 91 311 115 q 133 43 176 67 q 65 2 90 19 q 26 -24 39 -15 q 6 -28 14 -33 m 182 114 q 336 168 263 146 q 466 204 410 190 q 556 225 522 218 q 589 232 589 232 q 530 308 563 264 q 468 390 497 351 q 419 456 439 429 q 400 482 400 482 q 344 356 381 421 q 271 237 307 290 q 208 149 235 183 q 182 114 182 114 m 414 868 q 436 897 418 879 q 474 928 454 914 q 511 949 494 942 q 528 946 528 956 q 538 910 529 921 q 557 897 546 899 q 581 899 568 894 q 604 907 594 903 q 620 913 614 911 q 624 908 626 914 q 596 869 615 889 q 555 833 576 850 q 513 805 533 817 q 482 789 492 793 q 463 793 475 786 q 438 812 450 800 q 417 839 425 824 q 414 868 410 854 m 117 868 q 139 897 121 879 q 178 928 157 914 q 215 949 199 942 q 232 946 232 956 q 250 901 233 908 q 285 899 267 894 q 317 911 303 904 q 326 908 331 918 q 299 869 318 889 q 258 833 281 850 q 216 805 236 817 q 186 789 196 793 q 166 793 179 786 q 140 812 153 800 q 120 839 128 824 q 117 868 113 854 "},"":{"ha":1063,"x_min":0,"x_max":1054,"o":"m 6 -28 q 17 -1 0 -24 q 62 60 33 21 q 125 152 90 99 q 190 273 160 206 q 242 420 221 340 q 263 590 263 500 q 250 721 263 651 q 267 740 250 725 q 303 770 283 754 q 340 799 324 786 q 357 811 357 811 q 535 529 454 647 q 682 329 615 411 q 801 197 749 247 q 894 119 853 147 q 963 83 935 92 q 1011 74 992 74 q 1040 81 1026 74 q 1054 89 1054 89 q 1046 74 1054 89 q 1019 41 1038 58 q 973 8 1001 24 q 906 -7 944 -7 q 807 22 854 -7 q 723 84 760 50 q 664 147 686 118 q 642 175 642 175 q 409 138 507 160 q 244 91 311 115 q 133 43 176 67 q 65 2 90 19 q 26 -24 39 -15 q 6 -28 14 -33 m 182 114 q 336 168 263 146 q 466 204 410 190 q 556 225 522 218 q 589 232 589 232 q 530 308 563 264 q 468 390 497 351 q 419 456 439 429 q 400 482 400 482 q 344 356 381 421 q 271 237 307 290 q 208 149 235 183 q 182 114 182 114 m 150 942 q 185 972 164 961 q 230 983 207 982 q 275 974 253 983 q 314 943 297 964 q 331 896 331 922 q 319 846 331 869 q 285 806 307 822 q 233 790 263 790 q 181 806 204 790 q 146 843 158 821 q 133 892 133 865 q 150 942 133 918 m 233 817 q 292 847 276 817 q 281 922 307 876 q 256 949 271 939 q 225 961 242 960 q 193 954 208 963 q 168 925 178 946 q 166 894 161 913 q 181 858 171 875 q 206 828 192 840 q 233 817 219 817 "},"":{"ha":1526,"x_min":-1,"x_max":1538,"o":"m 4 -24 q 138 170 78 65 q 240 378 197 275 q 308 571 283 481 q 340 722 333 661 q 358 735 340 722 q 397 763 375 749 q 437 788 418 778 q 458 792 456 799 q 483 728 467 769 q 514 647 499 688 q 540 577 529 607 q 551 547 551 547 q 687 692 601 631 q 878 782 772 753 q 1106 804 985 811 q 1351 744 1228 797 q 1343 726 1357 742 q 1310 692 1329 710 q 1272 659 1290 674 q 1250 646 1253 644 q 991 722 1097 710 q 815 717 885 735 q 704 660 744 699 q 644 583 664 622 q 621 513 625 543 q 617 483 617 483 l 1375 483 q 1455 493 1415 483 q 1515 511 1494 503 q 1538 521 1535 519 q 1490 481 1518 501 q 1431 445 1463 461 q 1367 419 1400 429 q 1306 410 1335 410 l 615 410 q 623 381 615 408 q 651 311 631 354 q 707 222 672 268 q 794 137 742 176 q 920 77 847 97 q 1091 66 993 57 q 1313 125 1189 75 q 1283 99 1313 125 q 1204 40 1254 72 q 1085 -17 1154 8 q 938 -40 1017 -42 q 774 3 860 -37 q 601 146 688 44 q 572 143 601 146 q 495 133 543 140 q 385 114 447 126 q 260 83 324 101 q 135 36 196 64 q 25 -28 74 8 q 17 -31 22 -29 q 7 -34 11 -33 q 1 -33 3 -35 q 4 -24 -1 -31 m 182 115 q 312 160 244 140 q 435 192 379 179 q 526 211 490 204 q 561 218 561 218 q 514 296 538 249 q 471 392 490 343 q 437 487 451 442 q 414 558 422 532 q 406 588 406 585 q 356 458 385 526 q 297 331 326 390 q 241 222 268 272 q 199 144 214 171 q 182 115 183 118 "},"":{"ha":950,"x_min":-7,"x_max":943,"o":"m 943 731 q 917 716 943 731 q 858 683 890 701 q 798 651 825 665 q 771 636 771 636 q 508 731 622 708 q 315 728 393 753 q 197 635 238 704 q 154 456 156 565 q 188 326 154 388 q 280 217 222 265 q 413 135 338 168 q 572 90 489 101 q 738 93 654 79 q 893 153 821 107 q 886 147 899 157 q 847 118 874 136 q 782 79 821 100 q 697 40 743 58 q 601 10 651 22 q 499 0 550 -1 q 477 -6 485 0 q 469 -25 469 -12 q 479 -55 469 -37 q 511 -93 489 -72 q 532 -133 536 -117 q 510 -161 528 -150 q 465 -178 492 -172 q 417 -185 439 -183 q 384 -185 394 -186 q 388 -179 374 -183 q 460 -140 449 -161 q 458 -97 471 -119 q 424 -49 446 -74 q 394 0 401 -25 q 365 3 394 0 q 290 26 336 7 q 188 85 244 44 q 74 203 131 126 q -2 390 3 297 q 40 561 -7 482 q 176 699 86 640 q 387 786 267 758 q 649 803 507 814 q 943 731 792 792 "},"":{"ha":1044,"x_min":-6,"x_max":1042,"o":"m 69 172 q 10 281 25 221 q 5 406 -6 342 q 50 532 15 469 q 141 647 85 594 q 273 739 197 700 q 441 794 349 778 q 642 801 533 811 q 869 744 750 790 l 769 647 q 494 722 606 710 q 310 715 382 733 q 201 658 239 696 q 146 581 163 619 q 127 513 129 542 q 125 483 125 483 l 875 483 q 934 490 904 483 q 988 505 964 497 q 1027 519 1013 513 q 1042 525 1042 525 q 1001 492 1028 511 q 942 454 975 472 q 874 424 910 436 q 806 411 839 411 l 125 411 q 124 400 125 411 q 127 371 124 389 q 139 330 131 353 q 164 283 147 307 q 213 225 181 260 q 289 157 244 190 q 390 97 333 124 q 513 62 447 71 q 653 66 579 53 q 808 128 728 79 q 788 107 807 126 q 732 59 769 88 q 644 6 694 31 q 530 -31 594 -19 q 392 -31 465 -43 q 238 30 319 -18 q 69 172 156 78 m 357 954 q 366 965 357 956 q 386 982 375 974 q 408 994 397 990 q 421 988 418 997 q 459 919 431 950 q 519 866 488 889 q 574 831 550 843 q 599 818 599 818 q 519 833 557 825 q 451 855 482 840 q 396 892 419 869 q 357 954 372 915 "},"":{"ha":1044,"x_min":-6,"x_max":1042,"o":"m 69 172 q 10 281 25 221 q 5 406 -6 342 q 50 532 15 469 q 141 647 85 594 q 273 739 197 700 q 441 794 349 778 q 642 801 533 811 q 869 744 750 790 l 769 647 q 494 722 606 710 q 310 715 382 733 q 201 658 239 696 q 146 581 163 619 q 127 513 129 542 q 125 483 125 483 l 875 483 q 934 490 904 483 q 988 505 964 497 q 1027 519 1013 513 q 1042 525 1042 525 q 1001 492 1028 511 q 942 454 975 472 q 874 424 910 436 q 806 411 839 411 l 125 411 q 124 400 125 411 q 127 371 124 389 q 139 330 131 353 q 164 283 147 307 q 213 225 181 260 q 289 157 244 190 q 390 97 333 124 q 513 62 447 71 q 653 66 579 53 q 808 128 728 79 q 788 107 807 126 q 732 59 769 88 q 644 6 694 31 q 530 -31 594 -19 q 392 -31 465 -43 q 238 30 319 -18 q 69 172 156 78 m 503 835 q 527 847 503 835 q 583 883 551 860 q 642 936 614 906 q 681 1004 671 967 q 693 1010 682 1014 q 715 999 704 1007 q 735 981 726 990 q 744 971 744 972 q 706 909 729 932 q 651 872 682 886 q 582 849 619 857 q 503 835 544 842 "},"":{"ha":1044,"x_min":-6,"x_max":1042,"o":"m 69 172 q 10 281 25 221 q 5 406 -6 342 q 50 532 15 469 q 141 647 85 594 q 273 739 197 700 q 441 794 349 778 q 642 801 533 811 q 869 744 750 790 l 769 647 q 494 722 606 710 q 310 715 382 733 q 201 658 239 696 q 146 581 163 619 q 127 513 129 542 q 125 483 125 483 l 875 483 q 934 490 904 483 q 988 505 964 497 q 1027 519 1013 513 q 1042 525 1042 525 q 1001 492 1028 511 q 942 454 975 472 q 874 424 910 436 q 806 411 839 411 l 125 411 q 124 400 125 411 q 127 371 124 389 q 139 330 131 353 q 164 283 147 307 q 213 225 181 260 q 289 157 244 190 q 390 97 333 124 q 513 62 447 71 q 653 66 579 53 q 808 128 728 79 q 788 107 807 126 q 732 59 769 88 q 644 6 694 31 q 530 -31 594 -19 q 392 -31 465 -43 q 238 30 319 -18 q 69 172 156 78 m 449 832 l 433 844 q 452 859 433 844 q 495 895 471 874 q 543 942 519 917 q 578 986 567 967 q 588 974 578 986 q 619 944 599 961 q 667 908 639 926 q 732 876 696 889 l 676 829 q 633 855 656 839 q 592 886 610 871 q 562 912 574 901 q 550 922 550 922 q 524 891 540 907 q 490 862 507 875 q 461 840 474 849 q 449 832 449 832 "},"":{"ha":1044,"x_min":-6,"x_max":1042,"o":"m 69 172 q 10 281 25 221 q 5 406 -6 342 q 50 532 15 469 q 141 647 85 594 q 273 739 197 700 q 441 794 349 778 q 642 801 533 811 q 869 744 750 790 l 769 647 q 494 722 606 710 q 310 715 382 733 q 201 658 239 696 q 146 581 163 619 q 127 513 129 542 q 125 483 125 483 l 875 483 q 934 490 904 483 q 988 505 964 497 q 1027 519 1013 513 q 1042 525 1042 525 q 1001 492 1028 511 q 942 454 975 472 q 874 424 910 436 q 806 411 839 411 l 125 411 q 124 400 125 411 q 127 371 124 389 q 139 330 131 353 q 164 283 147 307 q 213 225 181 260 q 289 157 244 190 q 390 97 333 124 q 513 62 447 71 q 653 66 579 53 q 808 128 728 79 q 788 107 807 126 q 732 59 769 88 q 644 6 694 31 q 530 -31 594 -19 q 392 -31 465 -43 q 238 30 319 -18 q 69 172 156 78 m 639 890 q 661 919 643 901 q 699 950 679 936 q 736 971 719 964 q 753 968 753 978 q 763 932 754 943 q 782 919 771 921 q 806 921 793 917 q 829 929 819 925 q 845 935 839 933 q 849 931 851 936 q 821 892 840 911 q 780 856 801 872 q 738 827 758 839 q 707 811 717 815 q 688 815 700 808 q 663 834 675 822 q 642 861 650 846 q 639 890 635 876 m 342 890 q 364 919 346 901 q 403 950 382 936 q 440 971 424 964 q 457 968 457 978 q 475 924 458 931 q 510 922 492 917 q 542 933 528 926 q 551 931 556 940 q 524 892 543 911 q 483 856 506 872 q 441 827 461 839 q 411 811 421 815 q 391 815 404 808 q 365 834 378 822 q 345 861 353 846 q 342 890 338 876 "},"":{"ha":286,"x_min":7,"x_max":264,"o":"m 125 -61 l 125 544 q 108 599 125 582 q 72 623 92 617 q 36 628 53 629 q 19 628 19 628 q 55 670 32 644 q 105 722 78 696 q 160 771 132 749 q 212 802 189 793 q 249 801 235 811 q 264 756 264 792 l 264 56 l 125 -61 m 7 968 q 16 978 7 969 q 36 996 25 988 q 58 1008 47 1004 q 71 1001 68 1011 q 109 933 81 964 q 169 880 138 903 q 224 844 200 857 q 249 832 249 832 q 169 847 207 839 q 101 869 132 854 q 46 906 69 883 q 7 968 22 929 "},"":{"ha":286,"x_min":19,"x_max":275,"o":"m 125 -61 l 125 544 q 108 599 125 582 q 72 623 92 617 q 36 628 53 629 q 19 628 19 628 q 55 670 32 644 q 105 722 78 696 q 160 771 132 749 q 212 802 189 793 q 249 801 235 811 q 264 756 264 792 l 264 56 l 125 -61 m 33 801 q 58 814 33 801 q 113 849 82 826 q 173 903 144 872 q 211 971 201 933 q 224 977 213 981 q 246 965 235 974 q 266 948 257 957 q 275 938 275 939 q 236 876 260 899 q 181 838 213 853 q 113 816 150 824 q 33 801 75 808 "},"":{"ha":286,"x_min":6,"x_max":304,"o":"m 125 -61 l 125 544 q 108 599 125 582 q 72 623 92 617 q 36 628 53 629 q 19 628 19 628 q 55 670 32 644 q 105 722 78 696 q 160 771 132 749 q 212 802 189 793 q 249 801 235 811 q 264 756 264 792 l 264 56 l 125 -61 m 21 826 l 6 839 q 24 853 6 839 q 67 890 43 868 q 115 936 92 911 q 150 981 139 961 q 160 968 150 981 q 191 938 171 956 q 240 902 211 921 q 304 871 268 883 l 249 824 q 205 849 228 833 q 164 881 182 865 q 134 906 146 896 q 122 917 122 917 q 96 885 113 901 q 63 856 79 869 q 33 835 46 843 q 21 826 21 826 "},"":{"ha":286,"x_min":-68,"x_max":446,"o":"m 125 -61 l 125 544 q 108 599 125 582 q 72 623 92 617 q 36 628 53 629 q 19 628 19 628 q 55 670 32 644 q 105 722 78 696 q 160 771 132 749 q 212 802 189 793 q 249 801 235 811 q 264 756 264 792 l 264 56 l 125 -61 m 233 888 q 256 916 238 899 q 294 947 274 933 q 331 968 314 961 q 347 965 347 975 q 357 929 349 940 q 376 916 365 918 q 401 918 388 914 q 424 926 414 922 q 440 932 433 931 q 443 928 446 933 q 415 889 435 908 q 374 853 396 869 q 332 824 353 836 q 301 808 311 813 q 282 813 294 806 q 257 831 269 819 q 237 858 244 843 q 233 888 229 874 m -64 888 q -42 916 -60 899 q -3 947 -24 933 q 35 968 18 961 q 51 965 51 975 q 69 921 53 928 q 104 919 86 914 q 136 931 122 924 q 146 928 150 938 q 119 889 138 908 q 78 853 100 869 q 35 824 56 836 q 6 808 15 813 q -15 813 -1 806 q -40 831 -28 819 q -60 858 -53 843 q -64 888 -68 874 "},"":{"ha":1156,"x_min":0,"x_max":1142,"o":"m 346 456 l 456 456 l 414 372 l 346 372 q 353 308 349 340 q 367 239 357 275 q 429 140 382 181 q 540 78 476 100 q 677 56 604 57 q 815 73 750 54 q 928 130 879 92 q 994 226 976 168 q 1003 422 1028 340 q 901 554 979 503 q 692 626 822 606 q 383 640 561 647 q 378 627 383 640 q 367 590 374 614 q 355 531 361 565 q 346 456 349 497 m 233 372 l 111 372 l 153 456 l 243 456 q 257 549 250 500 q 272 650 264 597 q 244 648 272 650 q 175 654 217 646 q 86 687 133 663 q 0 764 39 711 l 150 868 q 155 861 160 865 q 150 849 150 857 q 165 827 150 840 q 231 794 181 814 q 373 759 297 768 q 526 748 449 750 q 680 744 604 746 q 824 733 756 743 q 949 699 892 724 q 1044 624 1006 674 q 1124 469 1106 544 q 1126 326 1142 393 q 1065 200 1110 258 q 958 99 1021 142 q 818 28 894 56 q 661 -6 742 0 q 424 -6 514 -18 q 287 50 333 7 q 231 172 240 93 q 233 372 221 251 "},"":{"ha":1104,"x_min":0,"x_max":1056,"o":"m 39 31 l 39 628 q 28 643 39 629 q 10 668 18 657 q 0 681 1 679 q 61 751 35 715 q 100 806 88 786 q 114 828 113 825 q 178 725 146 775 q 262 624 211 675 q 388 519 313 572 q 581 406 464 465 q 708 336 640 375 q 834 263 776 297 q 929 206 892 229 q 967 183 967 183 l 967 611 q 953 667 967 653 q 922 681 939 681 q 892 674 906 681 q 878 667 878 667 q 892 697 879 676 q 925 740 906 717 q 967 782 944 763 q 1010 810 990 801 q 1042 812 1029 819 q 1056 772 1056 804 l 1056 144 q 1045 127 1056 144 q 1018 83 1035 110 q 980 23 1001 56 q 936 -39 958 -10 q 906 -6 936 -39 q 823 74 876 28 q 697 171 769 121 q 542 256 625 221 q 425 315 485 279 q 313 386 365 350 q 218 455 261 422 q 152 507 175 488 q 128 528 129 526 l 128 192 q 144 125 128 146 q 181 97 161 104 q 217 92 200 90 q 233 94 233 94 q 194 53 215 76 q 152 10 174 31 q 110 -26 131 -11 q 74 -42 90 -40 q 49 -27 58 -43 q 39 31 39 -11 m 606 893 q 688 877 651 875 q 750 888 724 879 q 790 908 776 897 q 804 918 804 918 q 749 841 779 867 q 688 808 719 815 q 622 809 656 801 q 557 832 589 817 q 476 850 515 851 q 406 838 438 849 q 356 816 375 828 q 338 804 338 804 q 401 886 368 860 q 467 919 433 913 q 535 916 500 925 q 606 893 569 907 "},"":{"ha":950,"x_min":-8,"x_max":892,"o":"m 81 94 q 9 253 26 168 q 10 423 -8 339 q 79 582 28 507 q 214 711 131 657 q 369 784 288 758 q 531 810 451 810 q 679 784 610 810 q 797 706 749 758 q 872 560 851 644 q 876 386 892 475 q 808 214 860 297 q 669 72 757 131 q 515 -3 597 25 q 354 -32 433 -31 q 203 -4 275 -33 q 81 94 132 25 m 636 89 q 719 168 690 117 q 753 281 747 219 q 745 408 760 342 q 699 533 731 474 q 622 639 668 593 q 519 706 576 685 q 367 733 438 736 q 247 690 297 729 q 170 578 197 651 q 147 394 143 504 q 172 286 149 338 q 233 192 196 235 q 320 119 271 150 q 423 72 369 88 q 531 60 476 57 q 636 89 586 63 m 315 976 q 324 987 315 978 q 344 1004 333 996 q 366 1016 356 1013 q 379 1010 376 1019 q 417 942 389 972 q 477 888 446 911 q 533 853 508 865 q 557 840 557 840 q 478 855 515 847 q 409 877 440 863 q 354 915 378 892 q 315 976 331 938 "},"":{"ha":950,"x_min":-8,"x_max":892,"o":"m 81 94 q 9 253 26 168 q 10 423 -8 339 q 79 582 28 507 q 214 711 131 657 q 369 784 288 758 q 531 810 451 810 q 679 784 610 810 q 797 706 749 758 q 872 560 851 644 q 876 386 892 475 q 808 214 860 297 q 669 72 757 131 q 515 -3 597 25 q 354 -32 433 -31 q 203 -4 275 -33 q 81 94 132 25 m 636 89 q 719 168 690 117 q 753 281 747 219 q 745 408 760 342 q 699 533 731 474 q 622 639 668 593 q 519 706 576 685 q 367 733 438 736 q 247 690 297 729 q 170 578 197 651 q 147 394 143 504 q 172 286 149 338 q 233 192 196 235 q 320 119 271 150 q 423 72 369 88 q 531 60 476 57 q 636 89 586 63 m 456 826 q 480 839 456 826 q 535 874 504 851 q 595 928 567 897 q 633 996 624 958 q 646 1002 635 1006 q 668 990 657 999 q 688 973 679 982 q 697 963 697 964 q 658 901 682 924 q 603 863 635 878 q 535 841 572 849 q 456 826 497 833 "},"":{"ha":950,"x_min":-8,"x_max":892,"o":"m 81 94 q 9 253 26 168 q 10 423 -8 339 q 79 582 28 507 q 214 711 131 657 q 369 784 288 758 q 531 810 451 810 q 679 784 610 810 q 797 706 749 758 q 872 560 851 644 q 876 386 892 475 q 808 214 860 297 q 669 72 757 131 q 515 -3 597 25 q 354 -32 433 -31 q 203 -4 275 -33 q 81 94 132 25 m 636 89 q 719 168 690 117 q 753 281 747 219 q 745 408 760 342 q 699 533 731 474 q 622 639 668 593 q 519 706 576 685 q 367 733 438 736 q 247 690 297 729 q 170 578 197 651 q 147 394 143 504 q 172 286 149 338 q 233 192 196 235 q 320 119 271 150 q 423 72 369 88 q 531 60 476 57 q 636 89 586 63 m 346 838 l 331 850 q 349 865 331 850 q 392 901 368 879 q 440 947 417 922 q 475 992 464 972 q 485 979 475 992 q 516 949 496 967 q 565 913 536 932 q 629 882 593 894 l 574 835 q 530 860 553 844 q 489 892 507 876 q 459 917 471 907 q 447 928 447 928 q 421 897 438 913 q 388 867 404 881 q 358 846 371 854 q 346 838 346 838 "},"":{"ha":950,"x_min":-8,"x_max":892,"o":"m 81 94 q 9 253 26 168 q 10 423 -8 339 q 79 582 28 507 q 214 711 131 657 q 369 784 288 758 q 531 810 451 810 q 679 784 610 810 q 797 706 749 758 q 872 560 851 644 q 876 386 892 475 q 808 214 860 297 q 669 72 757 131 q 515 -3 597 25 q 354 -32 433 -31 q 203 -4 275 -33 q 81 94 132 25 m 636 89 q 719 168 690 117 q 753 281 747 219 q 745 408 760 342 q 699 533 731 474 q 622 639 668 593 q 519 706 576 685 q 367 733 438 736 q 247 690 297 729 q 170 578 197 651 q 147 394 143 504 q 172 286 149 338 q 233 192 196 235 q 320 119 271 150 q 423 72 369 88 q 531 60 476 57 q 636 89 586 63 m 558 915 q 640 899 604 897 q 703 910 676 901 q 743 930 729 919 q 757 940 757 940 q 702 863 732 889 q 640 831 672 838 q 575 831 608 824 q 510 854 542 839 q 429 872 468 874 q 359 860 390 871 q 309 838 328 850 q 290 826 290 826 q 353 908 321 882 q 419 941 386 935 q 488 938 453 947 q 558 915 522 929 "},"":{"ha":950,"x_min":-8,"x_max":892,"o":"m 81 94 q 9 253 26 168 q 10 423 -8 339 q 79 582 28 507 q 214 711 131 657 q 369 784 288 758 q 531 810 451 810 q 679 784 610 810 q 797 706 749 758 q 872 560 851 644 q 876 386 892 475 q 808 214 860 297 q 669 72 757 131 q 515 -3 597 25 q 354 -32 433 -31 q 203 -4 275 -33 q 81 94 132 25 m 636 89 q 719 168 690 117 q 753 281 747 219 q 745 408 760 342 q 699 533 731 474 q 622 639 668 593 q 519 706 576 685 q 367 733 438 736 q 247 690 297 729 q 170 578 197 651 q 147 394 143 504 q 172 286 149 338 q 233 192 196 235 q 320 119 271 150 q 423 72 369 88 q 531 60 476 57 q 636 89 586 63 m 603 890 q 625 919 607 901 q 663 950 643 936 q 700 971 683 964 q 717 968 717 978 q 726 932 718 943 q 746 919 735 921 q 770 921 757 917 q 793 929 783 925 q 809 935 803 933 q 813 931 815 936 q 785 892 804 911 q 744 856 765 872 q 701 827 722 839 q 671 811 681 815 q 651 815 664 808 q 626 834 639 822 q 606 861 614 846 q 603 890 599 876 m 306 890 q 328 919 310 901 q 367 950 346 936 q 404 971 388 964 q 421 968 421 978 q 439 924 422 931 q 474 922 456 917 q 506 933 492 926 q 515 931 519 940 q 488 892 507 911 q 447 856 469 872 q 405 827 425 839 q 375 811 385 815 q 355 815 368 808 q 329 834 342 822 q 309 861 317 846 q 306 890 301 876 "},"":{"ha":556,"x_min":67,"x_max":485,"o":"m 403 354 q 276 311 346 311 q 150 354 207 311 l 110 315 l 71 354 l 110 394 q 67 521 67 451 q 110 647 67 590 l 71 688 l 110 726 l 150 688 q 276 729 206 729 q 403 688 347 729 l 443 726 l 482 688 l 443 647 q 485 521 485 592 q 443 394 485 450 l 482 354 l 443 315 l 403 354 m 168 629 q 135 578 146 607 q 124 521 124 550 q 135 463 124 492 q 168 413 146 435 q 219 379 190 390 q 276 368 247 368 q 334 379 306 368 q 385 413 363 390 q 418 463 407 435 q 429 521 429 492 q 418 578 429 550 q 385 629 407 607 q 334 663 363 651 q 276 674 306 674 q 219 663 247 674 q 168 629 190 651 "},"":{"ha":950,"x_min":11,"x_max":911,"o":"m 106 88 q 103 91 107 89 q 100 94 100 93 q 28 255 46 168 q 29 428 11 342 q 99 591 47 514 q 233 722 150 668 q 410 803 326 782 q 560 822 494 825 q 674 801 625 818 q 748 770 724 785 q 774 754 772 756 l 828 808 l 857 754 l 818 715 q 828 706 818 715 q 840 693 838 697 q 897 544 882 628 q 894 376 911 461 q 827 210 878 290 q 689 72 776 131 q 595 19 640 40 q 503 -15 550 -3 q 408 -30 457 -26 q 303 -28 358 -33 q 217 -5 253 -24 q 165 28 181 14 q 147 46 149 43 l 69 -32 l 58 40 l 106 88 m 658 639 q 647 649 658 639 q 618 671 636 658 q 579 697 600 683 q 539 717 558 710 q 388 742 457 747 q 268 696 318 736 q 191 580 218 656 q 167 394 164 504 q 179 323 168 356 q 203 267 190 290 q 226 230 215 243 q 236 217 236 217 l 658 639 m 275 172 q 294 153 276 171 q 347 110 311 135 q 429 69 383 86 q 533 54 475 53 q 656 89 592 56 q 731 156 704 115 q 766 244 757 196 q 771 347 775 293 q 756 456 767 401 q 742 501 751 476 q 722 546 732 525 q 705 581 713 567 q 697 594 697 594 l 275 172 "},"":{"ha":924,"x_min":0,"x_max":850,"o":"m 83 244 l 83 600 q 62 662 83 642 q 22 685 40 682 q 0 689 3 689 q 35 719 14 701 q 82 753 57 736 q 132 783 107 769 q 177 802 157 797 q 210 799 197 807 q 222 767 222 792 l 222 333 q 236 248 222 285 q 275 184 250 211 q 335 138 300 157 q 411 106 369 119 q 553 81 496 78 q 647 100 611 85 q 697 133 682 115 q 711 150 711 150 l 711 617 q 691 674 711 660 q 653 686 671 688 q 633 683 636 685 q 689 726 653 699 q 761 774 725 754 q 824 794 797 793 q 850 758 850 796 l 850 86 l 711 -53 l 711 115 q 685 93 711 115 q 615 44 658 71 q 515 -3 571 18 q 400 -19 458 -24 q 283 6 340 -15 q 182 60 226 26 q 110 142 138 94 q 83 244 83 189 m 351 938 q 360 948 351 939 q 381 965 369 957 q 402 977 392 974 q 415 971 413 981 q 453 903 425 933 q 513 849 482 872 q 569 814 544 826 q 593 801 593 801 q 514 816 551 808 q 445 838 476 824 q 390 876 414 853 q 351 938 367 899 "},"":{"ha":924,"x_min":0,"x_max":850,"o":"m 83 244 l 83 600 q 62 662 83 642 q 22 685 40 682 q 0 689 3 689 q 35 719 14 701 q 82 753 57 736 q 132 783 107 769 q 177 802 157 797 q 210 799 197 807 q 222 767 222 792 l 222 333 q 236 248 222 285 q 275 184 250 211 q 335 138 300 157 q 411 106 369 119 q 553 81 496 78 q 647 100 611 85 q 697 133 682 115 q 711 150 711 150 l 711 617 q 691 674 711 660 q 653 686 671 688 q 633 683 636 685 q 689 726 653 699 q 761 774 725 754 q 824 794 797 793 q 850 758 850 796 l 850 86 l 711 -53 l 711 115 q 685 93 711 115 q 615 44 658 71 q 515 -3 571 18 q 400 -19 458 -24 q 283 6 340 -15 q 182 60 226 26 q 110 142 138 94 q 83 244 83 189 m 381 807 q 405 819 381 807 q 460 855 429 832 q 520 908 492 878 q 558 976 549 939 q 571 983 560 986 q 593 971 582 979 q 613 953 604 963 q 622 943 622 944 q 583 881 607 904 q 528 844 560 858 q 460 822 497 829 q 381 807 422 814 "},"":{"ha":924,"x_min":0,"x_max":850,"o":"m 83 244 l 83 600 q 62 662 83 642 q 22 685 40 682 q 0 689 3 689 q 35 719 14 701 q 82 753 57 736 q 132 783 107 769 q 177 802 157 797 q 210 799 197 807 q 222 767 222 792 l 222 333 q 236 248 222 285 q 275 184 250 211 q 335 138 300 157 q 411 106 369 119 q 553 81 496 78 q 647 100 611 85 q 697 133 682 115 q 711 150 711 150 l 711 617 q 691 674 711 660 q 653 686 671 688 q 633 683 636 685 q 689 726 653 699 q 761 774 725 754 q 824 794 797 793 q 850 758 850 796 l 850 86 l 711 -53 l 711 115 q 685 93 711 115 q 615 44 658 71 q 515 -3 571 18 q 400 -19 458 -24 q 283 6 340 -15 q 182 60 226 26 q 110 142 138 94 q 83 244 83 189 m 343 832 l 328 844 q 347 859 328 844 q 390 895 365 874 q 438 942 414 917 q 472 986 461 967 q 483 974 472 986 q 513 944 493 961 q 562 908 533 926 q 626 876 590 889 l 571 829 q 527 855 550 839 q 486 886 504 871 q 456 912 468 901 q 444 922 444 922 q 418 891 435 907 q 385 862 401 875 q 356 840 368 849 q 343 832 343 832 "},"":{"ha":924,"x_min":0,"x_max":850,"o":"m 83 244 l 83 600 q 62 662 83 642 q 22 685 40 682 q 0 689 3 689 q 35 719 14 701 q 82 753 57 736 q 132 783 107 769 q 177 802 157 797 q 210 799 197 807 q 222 767 222 792 l 222 333 q 236 248 222 285 q 275 184 250 211 q 335 138 300 157 q 411 106 369 119 q 553 81 496 78 q 647 100 611 85 q 697 133 682 115 q 711 150 711 150 l 711 617 q 691 674 711 660 q 653 686 671 688 q 633 683 636 685 q 689 726 653 699 q 761 774 725 754 q 824 794 797 793 q 850 758 850 796 l 850 86 l 711 -53 l 711 115 q 685 93 711 115 q 615 44 658 71 q 515 -3 571 18 q 400 -19 458 -24 q 283 6 340 -15 q 182 60 226 26 q 110 142 138 94 q 83 244 83 189 m 556 874 q 578 902 560 885 q 616 933 596 919 q 653 954 636 947 q 669 951 669 961 q 679 915 671 926 q 699 902 688 904 q 723 904 710 900 q 746 913 736 908 q 762 918 756 917 q 765 914 768 919 q 738 875 757 894 q 697 839 718 856 q 654 810 675 822 q 624 794 633 799 q 604 799 617 792 q 579 817 592 806 q 559 844 567 829 q 556 874 551 860 m 258 874 q 281 902 263 885 q 319 933 299 919 q 357 954 340 947 q 374 951 374 961 q 392 907 375 914 q 426 905 408 900 q 458 917 444 910 q 468 914 472 924 q 441 875 460 894 q 400 839 422 856 q 358 810 378 822 q 328 794 338 799 q 308 799 321 792 q 282 817 294 806 q 262 844 269 829 q 258 874 254 860 "},"":{"ha":1128,"x_min":0,"x_max":1111,"o":"m 594 53 l 167 668 q 125 693 153 688 q 69 698 97 699 q 21 693 42 697 q 0 689 0 689 q 69 760 33 728 q 141 806 106 792 q 210 812 176 821 q 272 761 243 803 l 686 158 q 717 190 688 160 q 792 272 747 221 q 878 383 836 324 q 944 503 919 443 q 961 612 969 564 q 897 688 953 660 q 722 711 842 717 q 745 726 724 713 q 803 760 767 740 q 881 793 840 779 q 963 809 921 807 q 1033 789 1004 811 q 1101 694 1090 747 q 1088 582 1111 642 q 1017 457 1065 522 q 910 324 969 392 q 785 187 850 256 q 665 53 721 118 q 570 -74 610 -12 q 522 -187 531 -135 q 540 -284 513 -240 q 647 -358 568 -328 l 450 -506 q 398 -390 404 -453 q 408 -266 392 -328 q 455 -147 424 -204 q 517 -44 486 -89 q 572 26 549 0 q 594 53 594 53 m 458 793 q 483 806 458 793 q 538 841 507 818 q 598 894 569 864 q 636 963 626 925 q 649 969 638 972 q 671 957 660 965 q 691 940 682 949 q 700 929 700 931 q 661 867 685 890 q 606 830 638 844 q 538 808 575 815 q 458 793 500 800 "},"":{"ha":989,"x_min":0,"x_max":943,"o":"m 111 -261 l 111 540 q 94 602 111 582 q 56 629 76 622 q 17 635 35 636 q 0 635 0 635 q 56 694 25 661 q 118 754 88 726 q 174 799 149 782 q 211 813 200 817 q 227 785 221 810 q 238 726 233 760 q 244 658 242 693 q 247 602 246 624 q 247 579 247 581 q 312 622 272 600 q 398 660 351 643 q 497 687 444 676 q 603 697 550 697 q 739 676 676 697 q 847 613 801 654 q 917 510 892 571 q 943 371 943 449 q 920 251 943 306 q 859 154 897 197 q 770 79 821 111 q 665 26 719 47 q 556 -6 611 4 q 451 -17 500 -17 q 348 -8 396 -17 q 276 10 300 1 q 250 19 253 18 l 250 -167 l 111 -261 m 250 524 l 250 172 q 276 133 250 151 q 345 99 303 114 q 440 76 388 85 q 546 68 493 68 q 675 83 622 68 q 760 124 728 97 q 806 191 792 151 q 821 281 821 231 q 799 415 821 354 q 731 520 776 476 q 617 588 686 564 q 453 613 547 613 q 376 605 413 613 q 311 585 339 597 q 267 556 283 572 q 250 524 250 540 "},"":{"ha":639,"x_min":14,"x_max":556,"o":"m 64 78 l 64 653 q 81 695 64 674 q 124 735 97 717 q 184 765 151 753 q 250 778 217 776 q 394 770 340 783 q 470 731 447 757 q 488 671 493 706 q 457 599 483 636 q 386 527 431 563 q 286 464 342 492 q 309 469 286 464 q 365 476 332 475 q 434 467 397 476 q 499 429 471 458 q 549 322 542 383 q 526 200 556 260 q 433 89 497 140 q 272 13 369 38 q 297 28 274 14 q 353 73 319 43 q 413 140 386 103 q 451 224 440 178 q 442 319 463 271 q 401 383 425 357 q 349 426 376 410 q 294 447 322 442 q 242 450 267 453 q 260 463 242 450 q 302 497 278 476 q 348 545 326 518 q 375 600 369 572 q 371 665 382 636 q 338 713 360 693 q 288 741 315 732 q 235 747 260 750 q 194 726 211 743 q 178 678 178 710 l 178 94 q 152 22 178 57 q 96 -42 126 -14 q 40 -86 65 -69 q 14 -103 14 -103 q 53 -17 43 -58 q 64 78 64 24 "},"":{"ha":776,"x_min":3,"x_max":846,"o":"m 29 79 q 19 191 3 142 q 78 276 36 240 q 180 333 121 311 q 298 364 239 356 q 407 368 357 372 q 481 347 457 364 q 513 344 493 339 q 553 361 532 350 q 553 354 556 363 q 550 322 550 346 q 558 260 550 300 q 594 160 567 221 q 636 103 611 122 q 690 76 661 83 q 746 72 718 69 q 796 78 774 74 q 832 89 818 83 q 844 94 846 94 q 674 13 743 31 q 565 7 606 -4 q 501 44 524 18 q 473 90 479 69 q 467 113 467 111 q 412 67 447 89 q 333 27 376 44 q 244 1 290 10 q 155 -3 197 -7 q 79 21 113 1 q 29 79 46 40 m 149 229 q 172 113 149 151 q 229 63 194 75 q 305 58 264 51 q 381 79 346 65 q 439 107 415 93 q 463 121 463 121 l 410 271 q 390 279 410 272 q 342 292 371 286 q 278 302 313 299 q 216 301 244 306 q 168 279 188 296 q 149 229 149 263 m 168 540 q 177 551 168 542 q 197 568 186 560 q 219 580 208 576 q 232 574 229 583 q 270 506 242 536 q 330 452 299 475 q 385 417 361 429 q 410 404 410 404 q 331 419 368 411 q 262 441 293 426 q 207 478 231 456 q 168 540 183 501 "},"":{"ha":776,"x_min":3,"x_max":846,"o":"m 29 79 q 19 191 3 142 q 78 276 36 240 q 180 333 121 311 q 298 364 239 356 q 407 368 357 372 q 481 347 457 364 q 513 344 493 339 q 553 361 532 350 q 553 354 556 363 q 550 322 550 346 q 558 260 550 300 q 594 160 567 221 q 636 103 611 122 q 690 76 661 83 q 746 72 718 69 q 796 78 774 74 q 832 89 818 83 q 844 94 846 94 q 674 13 743 31 q 565 7 606 -4 q 501 44 524 18 q 473 90 479 69 q 467 113 467 111 q 412 67 447 89 q 333 27 376 44 q 244 1 290 10 q 155 -3 197 -7 q 79 21 113 1 q 29 79 46 40 m 149 229 q 172 113 149 151 q 229 63 194 75 q 305 58 264 51 q 381 79 346 65 q 439 107 415 93 q 463 121 463 121 l 410 271 q 390 279 410 272 q 342 292 371 286 q 278 302 313 299 q 216 301 244 306 q 168 279 188 296 q 149 229 149 263 m 250 404 q 274 417 250 404 q 330 452 299 429 q 390 506 361 475 q 428 574 418 536 q 440 580 429 583 q 463 568 451 576 q 483 551 474 560 q 492 540 492 542 q 453 478 476 501 q 398 441 429 456 q 329 419 367 426 q 250 404 292 411 "},"":{"ha":776,"x_min":3,"x_max":846,"o":"m 29 79 q 19 191 3 142 q 78 276 36 240 q 180 333 121 311 q 298 364 239 356 q 407 368 357 372 q 481 347 457 364 q 513 344 493 339 q 553 361 532 350 q 553 354 556 363 q 550 322 550 346 q 558 260 550 300 q 594 160 567 221 q 636 103 611 122 q 690 76 661 83 q 746 72 718 69 q 796 78 774 74 q 832 89 818 83 q 844 94 846 94 q 674 13 743 31 q 565 7 606 -4 q 501 44 524 18 q 473 90 479 69 q 467 113 467 111 q 412 67 447 89 q 333 27 376 44 q 244 1 290 10 q 155 -3 197 -7 q 79 21 113 1 q 29 79 46 40 m 149 229 q 172 113 149 151 q 229 63 194 75 q 305 58 264 51 q 381 79 346 65 q 439 107 415 93 q 463 121 463 121 l 410 271 q 390 279 410 272 q 342 292 371 286 q 278 302 313 299 q 216 301 244 306 q 168 279 188 296 q 149 229 149 263 m 149 415 l 133 428 q 152 442 133 428 q 195 478 171 457 q 243 525 219 500 q 278 569 267 550 q 288 557 278 569 q 319 527 299 544 q 367 491 339 510 q 432 460 396 472 l 376 413 q 333 438 356 422 q 292 469 310 454 q 262 495 274 485 q 250 506 250 506 q 224 474 240 490 q 190 445 207 458 q 161 424 174 432 q 149 415 149 415 "},"":{"ha":776,"x_min":3,"x_max":846,"o":"m 29 79 q 19 191 3 142 q 78 276 36 240 q 180 333 121 311 q 298 364 239 356 q 407 368 357 372 q 481 347 457 364 q 513 344 493 339 q 553 361 532 350 q 553 354 556 363 q 550 322 550 346 q 558 260 550 300 q 594 160 567 221 q 636 103 611 122 q 690 76 661 83 q 746 72 718 69 q 796 78 774 74 q 832 89 818 83 q 844 94 846 94 q 674 13 743 31 q 565 7 606 -4 q 501 44 524 18 q 473 90 479 69 q 467 113 467 111 q 412 67 447 89 q 333 27 376 44 q 244 1 290 10 q 155 -3 197 -7 q 79 21 113 1 q 29 79 46 40 m 149 229 q 172 113 149 151 q 229 63 194 75 q 305 58 264 51 q 381 79 346 65 q 439 107 415 93 q 463 121 463 121 l 410 271 q 390 279 410 272 q 342 292 371 286 q 278 302 313 299 q 216 301 244 306 q 168 279 188 296 q 149 229 149 263 m 367 526 q 449 510 413 508 q 511 522 485 513 q 551 541 538 531 q 565 551 565 551 q 510 474 540 500 q 449 442 481 449 q 383 442 417 435 q 318 465 350 450 q 238 483 276 485 q 167 472 199 482 q 117 449 136 461 q 99 438 99 438 q 162 519 129 493 q 228 552 194 546 q 296 549 261 558 q 367 526 331 540 "},"":{"ha":776,"x_min":3,"x_max":846,"o":"m 29 79 q 19 191 3 142 q 78 276 36 240 q 180 333 121 311 q 298 364 239 356 q 407 368 357 372 q 481 347 457 364 q 513 344 493 339 q 553 361 532 350 q 553 354 556 363 q 550 322 550 346 q 558 260 550 300 q 594 160 567 221 q 636 103 611 122 q 690 76 661 83 q 746 72 718 69 q 796 78 774 74 q 832 89 818 83 q 844 94 846 94 q 674 13 743 31 q 565 7 606 -4 q 501 44 524 18 q 473 90 479 69 q 467 113 467 111 q 412 67 447 89 q 333 27 376 44 q 244 1 290 10 q 155 -3 197 -7 q 79 21 113 1 q 29 79 46 40 m 149 229 q 172 113 149 151 q 229 63 194 75 q 305 58 264 51 q 381 79 346 65 q 439 107 415 93 q 463 121 463 121 l 410 271 q 390 279 410 272 q 342 292 371 286 q 278 302 313 299 q 216 301 244 306 q 168 279 188 296 q 149 229 149 263 m 378 490 q 400 519 382 501 q 438 550 418 536 q 475 571 458 564 q 492 568 492 578 q 501 532 493 543 q 521 519 510 521 q 545 521 532 517 q 568 529 558 525 q 584 535 578 533 q 588 531 590 536 q 560 492 579 511 q 519 456 540 472 q 476 427 497 439 q 446 411 456 415 q 426 415 439 408 q 401 434 414 422 q 381 461 389 446 q 378 490 374 476 m 81 490 q 103 519 85 501 q 142 550 121 536 q 179 571 163 564 q 196 568 196 578 q 214 524 197 531 q 249 522 231 517 q 281 533 267 526 q 290 531 294 540 q 263 492 282 511 q 222 456 244 472 q 180 427 200 439 q 150 411 160 415 q 130 415 143 408 q 104 434 117 422 q 84 461 92 446 q 81 490 76 476 "},"":{"ha":776,"x_min":3,"x_max":846,"o":"m 29 79 q 19 191 3 142 q 78 276 36 240 q 180 333 121 311 q 298 364 239 356 q 407 368 357 372 q 481 347 457 364 q 513 344 493 339 q 553 361 532 350 q 553 354 556 363 q 550 322 550 346 q 558 260 550 300 q 594 160 567 221 q 636 103 611 122 q 690 76 661 83 q 746 72 718 69 q 796 78 774 74 q 832 89 818 83 q 844 94 846 94 q 674 13 743 31 q 565 7 606 -4 q 501 44 524 18 q 473 90 479 69 q 467 113 467 111 q 412 67 447 89 q 333 27 376 44 q 244 1 290 10 q 155 -3 197 -7 q 79 21 113 1 q 29 79 46 40 m 149 229 q 172 113 149 151 q 229 63 194 75 q 305 58 264 51 q 381 79 346 65 q 439 107 415 93 q 463 121 463 121 l 410 271 q 390 279 410 272 q 342 292 371 286 q 278 302 313 299 q 216 301 244 306 q 168 279 188 296 q 149 229 149 263 m 225 622 q 271 660 244 647 q 326 674 297 674 q 381 663 354 675 q 429 624 408 650 q 450 564 450 597 q 435 503 450 532 q 393 453 421 474 q 329 433 365 433 q 264 452 293 433 q 219 499 235 471 q 203 560 203 528 q 225 622 203 593 m 329 467 q 402 504 382 468 q 389 599 422 540 q 358 633 376 621 q 319 647 339 646 q 280 638 299 649 q 249 601 261 626 q 246 561 240 585 q 264 517 251 538 q 294 481 276 496 q 329 467 313 467 "},"":{"ha":1014,"x_min":-3,"x_max":988,"o":"m 492 113 q 435 65 472 89 q 352 23 399 42 q 255 -6 306 4 q 159 -14 204 -17 q 77 9 114 -11 q 24 71 40 29 q 12 183 -3 133 q 68 269 26 232 q 170 330 110 306 q 296 367 231 354 q 424 383 361 381 q 533 378 488 385 q 547 358 539 378 q 567 319 554 338 q 587 333 569 321 q 635 360 604 346 q 692 376 665 375 q 848 371 788 383 q 940 340 908 358 q 980 305 972 322 q 979 286 988 288 l 611 188 q 616 171 611 188 q 634 131 621 154 q 670 85 647 108 q 730 51 693 63 q 818 43 767 39 q 940 79 869 47 q 938 72 946 82 q 911 48 931 63 q 860 17 892 33 q 788 -8 829 1 q 694 -19 746 -18 q 582 -3 643 -19 q 541 22 558 3 q 513 61 524 42 q 497 97 501 81 q 492 113 492 113 m 174 229 q 197 113 174 151 q 254 63 219 75 q 330 58 289 51 q 406 79 371 65 q 464 107 440 93 q 488 121 488 121 l 435 271 q 415 279 435 272 q 367 292 396 286 q 303 302 338 299 q 241 301 269 306 q 193 279 213 296 q 174 229 174 263 m 611 210 l 799 260 q 803 278 808 263 q 780 308 797 293 q 735 333 763 324 q 675 333 708 342 q 642 308 654 328 q 622 266 629 288 q 613 227 615 244 q 611 210 611 210 "},"":{"ha":594,"x_min":6,"x_max":556,"o":"m 8 183 q 37 244 6 213 q 119 303 68 275 q 233 351 169 331 q 357 381 296 372 q 472 382 418 389 q 556 347 525 375 q 534 334 556 347 q 485 306 513 321 q 433 281 458 292 q 403 275 408 269 q 365 297 389 288 q 310 313 340 307 q 250 318 281 318 q 195 311 219 318 q 156 289 171 304 q 142 247 140 274 q 179 123 147 164 q 256 69 211 82 q 351 65 300 57 q 444 85 401 72 q 513 108 486 97 q 536 114 539 119 q 491 70 525 92 q 417 31 457 49 q 336 0 376 14 q 271 -22 296 -14 q 244 -29 246 -29 q 238 -52 233 -40 q 251 -76 243 -64 q 266 -99 260 -87 q 265 -121 272 -110 q 233 -142 258 -132 q 153 -161 208 -153 q 148 -160 142 -162 q 167 -149 154 -157 q 192 -131 179 -142 q 210 -106 206 -119 q 206 -86 213 -93 q 192 -72 200 -79 q 179 -56 185 -65 q 178 -31 174 -47 q 153 -28 178 -31 q 99 -8 129 -26 q 41 55 68 11 q 8 183 14 99 "},"":{"ha":582,"x_min":-3,"x_max":557,"o":"m 85 -3 q 26 44 47 13 q 1 113 6 75 q 8 192 -3 151 q 44 270 19 233 q 109 335 69 307 q 201 374 149 363 q 364 384 294 394 q 477 353 433 374 q 539 310 521 332 q 549 286 557 288 l 144 182 q 146 164 144 182 q 157 122 147 146 q 189 73 167 97 q 252 38 211 49 q 356 33 293 26 q 510 79 418 40 q 503 69 515 82 q 466 37 492 56 q 402 -1 440 18 q 315 -29 364 -19 q 207 -35 265 -39 q 85 -3 149 -31 m 144 204 l 368 260 q 373 275 378 261 q 351 303 368 289 q 306 328 333 318 q 244 333 278 339 q 190 307 210 328 q 159 263 169 286 q 147 222 149 240 q 144 204 144 204 m 82 540 q 91 551 82 542 q 111 568 100 560 q 133 580 122 576 q 146 574 143 583 q 184 506 156 536 q 244 452 213 475 q 299 417 275 429 q 324 404 324 404 q 244 419 282 411 q 176 441 207 426 q 121 478 144 456 q 82 540 97 501 "},"":{"ha":582,"x_min":-3,"x_max":557,"o":"m 85 -3 q 26 44 47 13 q 1 113 6 75 q 8 192 -3 151 q 44 270 19 233 q 109 335 69 307 q 201 374 149 363 q 364 384 294 394 q 477 353 433 374 q 539 310 521 332 q 549 286 557 288 l 144 182 q 146 164 144 182 q 157 122 147 146 q 189 73 167 97 q 252 38 211 49 q 356 33 293 26 q 510 79 418 40 q 503 69 515 82 q 466 37 492 56 q 402 -1 440 18 q 315 -29 364 -19 q 207 -35 265 -39 q 85 -3 149 -31 m 144 204 l 368 260 q 373 275 378 261 q 351 303 368 289 q 306 328 333 318 q 244 333 278 339 q 190 307 210 328 q 159 263 169 286 q 147 222 149 240 q 144 204 144 204 m 192 404 q 216 417 192 404 q 272 452 240 429 q 331 506 303 475 q 369 574 360 536 q 382 580 371 583 q 404 568 393 576 q 424 551 415 560 q 433 540 433 542 q 394 478 418 501 q 340 441 371 456 q 271 419 308 426 q 192 404 233 411 "},"":{"ha":582,"x_min":-3,"x_max":557,"o":"m 85 -3 q 26 44 47 13 q 1 113 6 75 q 8 192 -3 151 q 44 270 19 233 q 109 335 69 307 q 201 374 149 363 q 364 384 294 394 q 477 353 433 374 q 539 310 521 332 q 549 286 557 288 l 144 182 q 146 164 144 182 q 157 122 147 146 q 189 73 167 97 q 252 38 211 49 q 356 33 293 26 q 510 79 418 40 q 503 69 515 82 q 466 37 492 56 q 402 -1 440 18 q 315 -29 364 -19 q 207 -35 265 -39 q 85 -3 149 -31 m 144 204 l 368 260 q 373 275 378 261 q 351 303 368 289 q 306 328 333 318 q 244 333 278 339 q 190 307 210 328 q 159 263 169 286 q 147 222 149 240 q 144 204 144 204 m 149 415 l 133 428 q 152 442 133 428 q 195 478 171 457 q 243 525 219 500 q 278 569 267 550 q 288 557 278 569 q 319 527 299 544 q 367 491 339 510 q 432 460 396 472 l 376 413 q 333 438 356 422 q 292 469 310 454 q 262 495 274 485 q 250 506 250 506 q 224 474 240 490 q 190 445 207 458 q 161 424 174 432 q 149 415 149 415 "},"":{"ha":582,"x_min":-3,"x_max":557,"o":"m 85 -3 q 26 44 47 13 q 1 113 6 75 q 8 192 -3 151 q 44 270 19 233 q 109 335 69 307 q 201 374 149 363 q 364 384 294 394 q 477 353 433 374 q 539 310 521 332 q 549 286 557 288 l 144 182 q 146 164 144 182 q 157 122 147 146 q 189 73 167 97 q 252 38 211 49 q 356 33 293 26 q 510 79 418 40 q 503 69 515 82 q 466 37 492 56 q 402 -1 440 18 q 315 -29 364 -19 q 207 -35 265 -39 q 85 -3 149 -31 m 144 204 l 368 260 q 373 275 378 261 q 351 303 368 289 q 306 328 333 318 q 244 333 278 339 q 190 307 210 328 q 159 263 169 286 q 147 222 149 240 q 144 204 144 204 m 336 490 q 358 519 340 501 q 397 550 376 536 q 433 571 417 564 q 450 568 450 578 q 460 532 451 543 q 479 519 468 521 q 503 521 490 517 q 526 529 517 525 q 542 535 536 533 q 546 531 549 536 q 518 492 538 511 q 477 456 499 472 q 435 427 456 439 q 404 411 414 415 q 385 415 397 408 q 360 434 372 422 q 340 461 347 446 q 336 490 332 476 m 39 490 q 61 519 43 501 q 100 550 79 536 q 138 571 121 564 q 154 568 154 578 q 172 524 156 531 q 207 522 189 517 q 239 533 225 526 q 249 531 253 540 q 222 492 240 511 q 181 456 203 472 q 138 427 158 439 q 108 411 118 415 q 88 415 101 408 q 63 434 75 422 q 42 461 50 446 q 39 490 35 476 "},"":{"ha":340,"x_min":-60,"x_max":343,"o":"m -60 540 q -51 551 -60 542 q -31 568 -42 560 q -9 580 -19 576 q 4 574 1 583 q 42 506 14 536 q 102 452 71 475 q 158 417 133 429 q 182 404 182 404 q 103 419 140 411 q 34 441 65 426 q -21 478 3 456 q -60 540 -44 501 m 110 8 q 77 51 82 26 q 78 102 72 75 q 94 157 83 129 q 107 210 104 185 q 99 258 110 236 q 51 294 88 279 q 54 303 47 296 q 75 319 61 310 q 106 340 89 329 q 140 357 124 350 q 169 367 157 364 q 186 364 182 369 q 219 301 211 332 q 226 242 228 269 q 217 190 225 214 q 202 144 208 165 q 194 106 196 124 q 206 78 193 89 q 248 64 222 61 q 296 74 274 67 q 331 88 318 82 q 333 83 343 93 q 311 63 333 83 q 256 24 289 43 q 183 -5 222 4 q 110 8 144 -14 "},"":{"ha":340,"x_min":22,"x_max":343,"o":"m 22 404 q 47 417 22 404 q 102 452 71 429 q 162 506 133 475 q 200 574 190 536 q 213 580 201 583 q 235 568 224 576 q 255 551 246 560 q 264 540 264 542 q 225 478 249 501 q 170 441 201 456 q 101 419 139 426 q 22 404 64 411 m 110 8 q 77 51 82 26 q 78 102 72 75 q 94 157 83 129 q 107 210 104 185 q 99 258 110 236 q 51 294 88 279 q 54 303 47 296 q 75 319 61 310 q 106 340 89 329 q 140 357 124 350 q 169 367 157 364 q 186 364 182 369 q 219 301 211 332 q 226 242 228 269 q 217 190 225 214 q 202 144 208 165 q 194 106 196 124 q 206 78 193 89 q 248 64 222 61 q 296 74 274 67 q 331 88 318 82 q 333 83 343 93 q 311 63 333 83 q 256 24 289 43 q 183 -5 222 4 q 110 8 144 -14 "},"":{"ha":340,"x_min":6,"x_max":343,"o":"m 21 415 l 6 428 q 24 442 6 428 q 67 478 43 457 q 115 525 92 500 q 150 569 139 550 q 160 557 150 569 q 191 527 171 544 q 240 491 211 510 q 304 460 268 472 l 249 413 q 205 438 228 422 q 164 469 182 454 q 134 495 146 485 q 122 506 122 506 q 96 474 113 490 q 63 445 79 458 q 33 424 46 432 q 21 415 21 415 m 110 8 q 77 51 82 26 q 78 102 72 75 q 94 157 83 129 q 107 210 104 185 q 99 258 110 236 q 51 294 88 279 q 54 303 47 296 q 75 319 61 310 q 106 340 89 329 q 140 357 124 350 q 169 367 157 364 q 186 364 182 369 q 219 301 211 332 q 226 242 228 269 q 217 190 225 214 q 202 144 208 165 q 194 106 196 124 q 206 78 193 89 q 248 64 222 61 q 296 74 274 67 q 331 88 318 82 q 333 83 343 93 q 311 63 333 83 q 256 24 289 43 q 183 -5 222 4 q 110 8 144 -14 "},"":{"ha":340,"x_min":-74,"x_max":440,"o":"m 228 490 q 250 519 232 501 q 288 550 268 536 q 325 571 308 564 q 342 568 342 578 q 351 532 343 543 q 371 519 360 521 q 395 521 382 517 q 418 529 408 525 q 434 535 428 533 q 438 531 440 536 q 410 492 429 511 q 369 456 390 472 q 326 427 347 439 q 296 411 306 415 q 276 415 289 408 q 251 434 264 422 q 231 461 239 446 q 228 490 224 476 m -69 490 q -47 519 -65 501 q -8 550 -29 536 q 29 571 13 564 q 46 568 46 578 q 64 524 47 531 q 99 522 81 517 q 131 533 117 526 q 140 531 144 540 q 113 492 132 511 q 72 456 94 472 q 30 427 50 439 q 0 411 10 415 q -20 415 -7 408 q -46 434 -33 422 q -66 461 -58 446 q -69 490 -74 476 m 110 8 q 77 51 82 26 q 78 102 72 75 q 94 157 83 129 q 107 210 104 185 q 99 258 110 236 q 51 294 88 279 q 54 303 47 296 q 75 319 61 310 q 106 340 89 329 q 140 357 124 350 q 169 367 157 364 q 186 364 182 369 q 219 301 211 332 q 226 242 228 269 q 217 190 225 214 q 202 144 208 165 q 194 106 196 124 q 206 78 193 89 q 248 64 222 61 q 296 74 274 67 q 331 88 318 82 q 333 83 343 93 q 311 63 333 83 q 256 24 289 43 q 183 -5 222 4 q 110 8 144 -14 "},"":{"ha":646,"x_min":-11,"x_max":606,"o":"m 147 192 q 165 131 149 158 q 205 85 181 104 q 258 53 229 65 q 316 36 288 42 q 368 33 344 31 q 406 44 392 35 q 450 101 433 64 q 467 178 467 138 q 452 253 467 217 q 406 317 438 290 q 313 358 360 354 q 229 341 267 361 q 168 281 192 321 q 147 192 144 242 m 314 544 l 169 464 l 169 529 l 267 586 q 197 625 235 611 q 117 639 160 639 q 86 633 100 639 q 63 622 72 628 q 47 613 53 617 q 42 614 42 610 q 62 635 42 619 q 108 665 82 650 q 160 693 135 681 q 194 706 185 706 q 297 692 250 706 q 385 654 344 678 l 511 728 l 511 657 l 439 615 q 512 534 481 579 q 564 442 543 489 q 595 349 585 396 q 606 265 606 303 q 578 170 606 214 q 510 91 551 126 q 419 29 468 56 q 328 -14 371 3 q 197 -32 263 -39 q 83 4 132 -25 q 11 82 33 33 q 11 189 -11 131 q 72 274 29 236 q 171 340 115 313 q 289 384 226 368 q 410 400 351 400 q 367 477 390 440 q 314 544 343 514 "},"":{"ha":697,"x_min":-3,"x_max":649,"o":"m 50 -22 q 76 117 81 60 q 53 211 71 175 q 16 264 35 247 q 0 283 -3 281 l 100 367 q 132 369 115 379 q 162 341 149 358 q 184 306 175 324 q 193 289 193 289 q 315 360 249 332 q 442 396 381 389 q 553 385 504 403 q 622 322 601 368 q 645 208 649 264 q 615 106 642 151 q 542 28 589 60 q 433 -11 494 -3 q 448 6 431 -11 q 482 51 465 22 q 505 120 499 81 q 489 206 511 160 q 424 283 461 261 q 349 306 386 306 q 278 296 311 307 q 225 274 244 285 q 204 263 206 264 q 226 169 228 214 q 215 103 225 125 q 204 78 206 81 l 50 -22 m 367 526 q 449 510 413 508 q 511 522 485 513 q 551 541 538 531 q 565 551 565 551 q 510 474 540 500 q 449 442 481 449 q 383 442 417 435 q 318 465 350 450 q 238 483 276 485 q 167 472 199 482 q 117 449 136 461 q 99 438 99 438 q 162 519 129 493 q 228 552 194 546 q 296 549 261 558 q 367 526 331 540 "},"":{"ha":646,"x_min":-11,"x_max":614,"o":"m 11 189 q 78 279 31 239 q 185 347 125 319 q 313 389 246 375 q 438 399 379 403 q 540 372 496 394 q 597 306 583 350 q 592 201 614 251 q 528 110 571 151 q 431 36 485 68 q 328 -14 376 4 q 197 -32 263 -39 q 83 4 132 -25 q 11 82 33 33 q 11 189 -11 131 m 147 192 q 165 131 149 158 q 205 85 181 104 q 258 53 229 65 q 316 36 288 42 q 368 33 344 31 q 406 44 392 35 q 448 97 432 63 q 465 172 464 132 q 453 250 467 211 q 406 317 439 289 q 313 358 360 354 q 229 341 267 361 q 168 281 192 321 q 147 192 144 242 m 154 560 q 163 570 154 561 q 183 588 172 579 q 205 599 194 596 q 218 593 215 603 q 256 525 228 556 q 316 472 285 494 q 372 436 347 449 q 396 424 396 424 q 317 438 354 431 q 248 460 279 446 q 193 498 217 475 q 154 560 169 521 "},"":{"ha":646,"x_min":-11,"x_max":614,"o":"m 11 189 q 78 279 31 239 q 185 347 125 319 q 313 389 246 375 q 438 399 379 403 q 540 372 496 394 q 597 306 583 350 q 592 201 614 251 q 528 110 571 151 q 431 36 485 68 q 328 -14 376 4 q 197 -32 263 -39 q 83 4 132 -25 q 11 82 33 33 q 11 189 -11 131 m 147 192 q 165 131 149 158 q 205 85 181 104 q 258 53 229 65 q 316 36 288 42 q 368 33 344 31 q 406 44 392 35 q 448 97 432 63 q 465 172 464 132 q 453 250 467 211 q 406 317 439 289 q 313 358 360 354 q 229 341 267 361 q 168 281 192 321 q 147 192 144 242 m 206 404 q 230 417 206 404 q 285 452 254 429 q 345 506 317 475 q 383 574 374 536 q 396 580 385 583 q 418 568 407 576 q 438 551 429 560 q 447 540 447 542 q 408 478 432 501 q 353 441 385 456 q 285 419 322 426 q 206 404 247 411 "},"":{"ha":646,"x_min":-11,"x_max":614,"o":"m 11 189 q 78 279 31 239 q 185 347 125 319 q 313 389 246 375 q 438 399 379 403 q 540 372 496 394 q 597 306 583 350 q 592 201 614 251 q 528 110 571 151 q 431 36 485 68 q 328 -14 376 4 q 197 -32 263 -39 q 83 4 132 -25 q 11 82 33 33 q 11 189 -11 131 m 147 192 q 165 131 149 158 q 205 85 181 104 q 258 53 229 65 q 316 36 288 42 q 368 33 344 31 q 406 44 392 35 q 448 97 432 63 q 465 172 464 132 q 453 250 467 211 q 406 317 439 289 q 313 358 360 354 q 229 341 267 361 q 168 281 192 321 q 147 192 144 242 m 149 415 l 133 428 q 152 442 133 428 q 195 478 171 457 q 243 525 219 500 q 278 569 267 550 q 288 557 278 569 q 319 527 299 544 q 367 491 339 510 q 432 460 396 472 l 376 413 q 333 438 356 422 q 292 469 310 454 q 262 495 274 485 q 250 506 250 506 q 224 474 240 490 q 190 445 207 458 q 161 424 174 432 q 149 415 149 415 "},"":{"ha":646,"x_min":-11,"x_max":614,"o":"m 11 189 q 78 279 31 239 q 185 347 125 319 q 313 389 246 375 q 438 399 379 403 q 540 372 496 394 q 597 306 583 350 q 592 201 614 251 q 528 110 571 151 q 431 36 485 68 q 328 -14 376 4 q 197 -32 263 -39 q 83 4 132 -25 q 11 82 33 33 q 11 189 -11 131 m 147 192 q 165 131 149 158 q 205 85 181 104 q 258 53 229 65 q 316 36 288 42 q 368 33 344 31 q 406 44 392 35 q 448 97 432 63 q 465 172 464 132 q 453 250 467 211 q 406 317 439 289 q 313 358 360 354 q 229 341 267 361 q 168 281 192 321 q 147 192 144 242 m 367 526 q 449 510 413 508 q 511 522 485 513 q 551 541 538 531 q 565 551 565 551 q 510 474 540 500 q 449 442 481 449 q 383 442 417 435 q 318 465 350 450 q 238 483 276 485 q 167 472 199 482 q 117 449 136 461 q 99 438 99 438 q 162 519 129 493 q 228 552 194 546 q 296 549 261 558 q 367 526 331 540 "},"":{"ha":646,"x_min":-11,"x_max":614,"o":"m 11 189 q 78 279 31 239 q 185 347 125 319 q 313 389 246 375 q 438 399 379 403 q 540 372 496 394 q 597 306 583 350 q 592 201 614 251 q 528 110 571 151 q 431 36 485 68 q 328 -14 376 4 q 197 -32 263 -39 q 83 4 132 -25 q 11 82 33 33 q 11 189 -11 131 m 147 192 q 165 131 149 158 q 205 85 181 104 q 258 53 229 65 q 316 36 288 42 q 368 33 344 31 q 406 44 392 35 q 448 97 432 63 q 465 172 464 132 q 453 250 467 211 q 406 317 439 289 q 313 358 360 354 q 229 341 267 361 q 168 281 192 321 q 147 192 144 242 m 389 490 q 411 519 393 501 q 449 550 429 536 q 486 571 469 564 q 503 568 503 578 q 513 532 504 543 q 532 519 521 521 q 556 521 543 517 q 579 529 569 525 q 595 535 589 533 q 599 531 601 536 q 571 492 590 511 q 530 456 551 472 q 488 427 508 439 q 457 411 467 415 q 438 415 450 408 q 413 434 425 422 q 392 461 400 446 q 389 490 385 476 m 92 490 q 114 519 96 501 q 153 550 132 536 q 190 571 174 564 q 207 568 207 578 q 225 524 208 531 q 260 522 242 517 q 292 533 278 526 q 301 531 306 540 q 274 492 293 511 q 233 456 256 472 q 191 427 211 439 q 161 411 171 415 q 141 415 154 408 q 115 434 128 422 q 95 461 103 446 q 92 490 88 476 "},"":{"ha":642,"x_min":44,"x_max":572,"o":"m 197 372 l 572 372 l 419 296 l 44 296 l 197 372 m 271 560 q 285 565 271 560 q 315 574 299 569 q 346 583 332 579 q 360 588 360 588 q 373 570 368 581 q 383 549 378 560 q 394 527 388 538 q 410 511 400 517 q 397 506 411 511 q 363 497 382 501 q 328 488 344 492 q 311 485 313 485 q 296 499 300 490 q 289 519 292 508 q 283 540 286 529 q 271 560 281 550 m 271 157 q 285 162 271 157 q 315 172 299 167 q 346 181 332 176 q 360 185 360 185 q 373 167 368 178 q 383 146 378 157 q 394 124 388 135 q 410 108 400 114 q 397 103 411 108 q 363 94 382 99 q 328 85 344 89 q 311 82 313 82 q 296 97 300 88 q 289 116 292 106 q 283 137 286 126 q 271 157 281 147 "},"":{"ha":646,"x_min":-22,"x_max":614,"o":"m 8 182 q 78 281 29 240 q 186 348 126 322 q 305 386 246 374 q 406 400 364 399 q 468 394 439 400 q 513 384 497 389 q 529 378 528 379 l 608 429 l 608 360 l 581 340 q 587 331 581 340 q 597 306 593 321 q 592 201 614 251 q 529 110 571 151 q 433 36 488 68 q 331 -14 379 4 q 227 -34 275 -35 q 144 -23 179 -33 q 90 -1 110 -12 q 71 11 71 11 l -22 -50 l -22 21 l 29 53 q 18 71 28 56 q 2 117 8 86 q 8 182 -4 147 m 197 93 q 219 79 197 93 q 274 51 242 65 q 343 33 307 38 q 408 44 379 28 q 455 102 443 65 q 466 174 467 139 q 459 234 465 208 q 453 260 453 260 l 197 93 m 419 307 l 408 317 q 316 358 363 354 q 232 341 269 361 q 171 281 194 321 q 150 192 147 242 q 156 160 150 178 q 163 142 163 142 l 419 307 "},"":{"ha":728,"x_min":6,"x_max":729,"o":"m 68 89 l 68 236 q 64 262 68 249 q 52 285 60 275 q 33 299 44 294 q 7 297 21 303 q 17 308 6 297 q 49 332 29 318 q 92 359 68 346 q 135 376 115 372 q 169 372 156 381 q 182 333 182 363 l 182 172 q 207 101 182 132 q 276 72 232 69 q 342 81 310 74 q 399 97 374 89 q 439 113 424 106 q 454 119 454 119 l 454 286 q 454 303 454 296 q 450 316 454 311 q 435 322 446 321 q 404 321 425 324 q 429 339 404 321 q 485 370 454 357 q 542 380 517 383 q 568 333 568 376 l 568 167 q 580 108 568 128 q 610 80 592 88 q 650 74 629 72 q 689 80 671 75 q 718 90 707 85 q 729 94 729 94 q 620 22 665 44 q 544 -4 575 -1 q 497 5 514 -7 q 469 33 479 17 q 457 67 460 50 q 454 93 454 85 q 422 85 454 99 q 343 52 389 71 q 250 15 297 33 q 174 -6 203 -3 q 134 0 153 -7 q 101 20 115 7 q 77 51 86 33 q 68 89 68 68 m 160 540 q 169 551 160 542 q 189 568 178 560 q 210 580 200 576 q 224 574 221 583 q 262 506 233 536 q 322 452 290 475 q 377 417 353 429 q 401 404 401 404 q 322 419 360 411 q 253 441 285 426 q 199 478 222 456 q 160 540 175 501 "},"":{"ha":728,"x_min":6,"x_max":729,"o":"m 68 89 l 68 236 q 64 262 68 249 q 52 285 60 275 q 33 299 44 294 q 7 297 21 303 q 17 308 6 297 q 49 332 29 318 q 92 359 68 346 q 135 376 115 372 q 169 372 156 381 q 182 333 182 363 l 182 172 q 207 101 182 132 q 276 72 232 69 q 342 81 310 74 q 399 97 374 89 q 439 113 424 106 q 454 119 454 119 l 454 286 q 454 303 454 296 q 450 316 454 311 q 435 322 446 321 q 404 321 425 324 q 429 339 404 321 q 485 370 454 357 q 542 380 517 383 q 568 333 568 376 l 568 167 q 580 108 568 128 q 610 80 592 88 q 650 74 629 72 q 689 80 671 75 q 718 90 707 85 q 729 94 729 94 q 620 22 665 44 q 544 -4 575 -1 q 497 5 514 -7 q 469 33 479 17 q 457 67 460 50 q 454 93 454 85 q 422 85 454 99 q 343 52 389 71 q 250 15 297 33 q 174 -6 203 -3 q 134 0 153 -7 q 101 20 115 7 q 77 51 86 33 q 68 89 68 68 m 258 404 q 283 417 258 404 q 338 452 307 429 q 398 506 369 475 q 436 574 426 536 q 449 580 438 583 q 471 568 460 576 q 491 551 482 560 q 500 540 500 542 q 461 478 485 501 q 406 441 438 456 q 338 419 375 426 q 258 404 300 411 "},"":{"ha":728,"x_min":6,"x_max":729,"o":"m 68 89 l 68 236 q 64 262 68 249 q 52 285 60 275 q 33 299 44 294 q 7 297 21 303 q 17 308 6 297 q 49 332 29 318 q 92 359 68 346 q 135 376 115 372 q 169 372 156 381 q 182 333 182 363 l 182 172 q 207 101 182 132 q 276 72 232 69 q 342 81 310 74 q 399 97 374 89 q 439 113 424 106 q 454 119 454 119 l 454 286 q 454 303 454 296 q 450 316 454 311 q 435 322 446 321 q 404 321 425 324 q 429 339 404 321 q 485 370 454 357 q 542 380 517 383 q 568 333 568 376 l 568 167 q 580 108 568 128 q 610 80 592 88 q 650 74 629 72 q 689 80 671 75 q 718 90 707 85 q 729 94 729 94 q 620 22 665 44 q 544 -4 575 -1 q 497 5 514 -7 q 469 33 479 17 q 457 67 460 50 q 454 93 454 85 q 422 85 454 99 q 343 52 389 71 q 250 15 297 33 q 174 -6 203 -3 q 134 0 153 -7 q 101 20 115 7 q 77 51 86 33 q 68 89 68 68 m 196 415 l 181 428 q 199 442 181 428 q 242 478 218 457 q 290 525 267 500 q 325 569 314 550 q 335 557 325 569 q 366 527 346 544 q 415 491 386 510 q 479 460 443 472 l 424 413 q 380 438 403 422 q 339 469 357 454 q 309 495 321 485 q 297 506 297 506 q 271 474 288 490 q 238 445 254 458 q 208 424 221 432 q 196 415 196 415 "},"":{"ha":728,"x_min":6,"x_max":729,"o":"m 68 89 l 68 236 q 64 262 68 249 q 52 285 60 275 q 33 299 44 294 q 7 297 21 303 q 17 308 6 297 q 49 332 29 318 q 92 359 68 346 q 135 376 115 372 q 169 372 156 381 q 182 333 182 363 l 182 172 q 207 101 182 132 q 276 72 232 69 q 342 81 310 74 q 399 97 374 89 q 439 113 424 106 q 454 119 454 119 l 454 286 q 454 303 454 296 q 450 316 454 311 q 435 322 446 321 q 404 321 425 324 q 429 339 404 321 q 485 370 454 357 q 542 380 517 383 q 568 333 568 376 l 568 167 q 580 108 568 128 q 610 80 592 88 q 650 74 629 72 q 689 80 671 75 q 718 90 707 85 q 729 94 729 94 q 620 22 665 44 q 544 -4 575 -1 q 497 5 514 -7 q 469 33 479 17 q 457 67 460 50 q 454 93 454 85 q 422 85 454 99 q 343 52 389 71 q 250 15 297 33 q 174 -6 203 -3 q 134 0 153 -7 q 101 20 115 7 q 77 51 86 33 q 68 89 68 68 m 394 490 q 417 519 399 501 q 455 550 435 536 q 492 571 475 564 q 508 568 508 578 q 518 532 510 543 q 538 519 526 521 q 562 521 549 517 q 585 529 575 525 q 601 535 594 533 q 604 531 607 536 q 576 492 596 511 q 535 456 557 472 q 493 427 514 439 q 463 411 472 415 q 443 415 456 408 q 418 434 431 422 q 398 461 406 446 q 394 490 390 476 m 97 490 q 119 519 101 501 q 158 550 138 536 q 196 571 179 564 q 213 568 213 578 q 231 524 214 531 q 265 522 247 517 q 297 533 283 526 q 307 531 311 540 q 280 492 299 511 q 239 456 261 472 q 197 427 217 439 q 167 411 176 415 q 147 415 160 408 q 121 434 133 422 q 101 461 108 446 q 97 490 93 476 "},"":{"ha":739,"x_min":-6,"x_max":736,"o":"m 240 -500 l 240 50 q 211 143 240 96 q 142 223 182 190 q 60 266 101 256 q -4 250 19 276 q 13 267 -6 247 q 57 310 32 286 q 106 353 82 333 q 139 375 131 374 q 203 362 171 381 q 263 314 236 343 q 310 253 289 285 q 342 200 332 221 q 354 178 353 179 q 375 204 356 179 q 431 266 394 229 q 515 335 468 303 q 619 384 563 367 q 735 386 676 401 q 716 369 736 386 q 672 333 696 353 q 627 297 647 314 q 607 281 607 281 q 563 308 589 307 q 510 296 538 310 q 454 258 482 282 q 404 208 426 233 q 368 162 382 183 q 354 132 354 140 l 354 -372 l 240 -500 m 275 404 q 299 417 275 404 q 355 452 324 429 q 415 506 386 475 q 453 574 443 536 q 465 580 454 583 q 488 568 476 576 q 508 551 499 560 q 517 540 517 542 q 478 478 501 501 q 423 441 454 456 q 354 419 392 426 q 275 404 317 411 "},"":{"ha":736,"x_min":0,"x_max":710,"o":"m 113 -531 l 113 657 q 99 697 113 682 q 67 718 85 711 q 29 726 49 725 q 0 726 10 728 q 17 735 0 726 q 58 754 35 743 q 106 776 82 765 q 142 794 129 788 q 167 799 153 801 q 195 790 182 797 q 217 772 208 782 q 226 751 226 761 l 226 300 q 277 325 242 310 q 358 353 313 340 q 456 371 404 365 q 553 369 507 376 q 635 335 599 361 q 688 258 671 310 q 683 144 710 192 q 606 62 657 96 q 490 6 556 28 q 365 -29 424 -17 q 267 -47 307 -42 q 226 -56 226 -53 l 226 -433 l 113 -531 m 226 253 l 226 69 q 253 40 226 54 q 318 17 279 25 q 401 10 357 10 q 480 26 444 11 q 535 74 515 42 q 546 161 556 107 q 505 271 533 233 q 441 322 476 308 q 367 329 406 335 q 298 310 329 324 q 247 279 267 296 q 226 253 226 263 "},"":{"ha":739,"x_min":-6,"x_max":736,"o":"m 240 -500 l 240 50 q 211 143 240 96 q 142 223 182 190 q 60 266 101 256 q -4 250 19 276 q 13 267 -6 247 q 57 310 32 286 q 106 353 82 333 q 139 375 131 374 q 203 362 171 381 q 263 314 236 343 q 310 253 289 285 q 342 200 332 221 q 354 178 353 179 q 375 204 356 179 q 431 266 394 229 q 515 335 468 303 q 619 384 563 367 q 735 386 676 401 q 716 369 736 386 q 672 333 696 353 q 627 297 647 314 q 607 281 607 281 q 563 308 589 307 q 510 296 538 310 q 454 258 482 282 q 404 208 426 233 q 368 162 382 183 q 354 132 354 140 l 354 -372 l 240 -500 m 458 490 q 481 519 463 501 q 519 550 499 536 q 556 571 539 564 q 572 568 572 578 q 582 532 574 543 q 601 519 590 521 q 626 521 613 517 q 649 529 639 525 q 665 535 658 533 q 668 531 671 536 q 640 492 660 511 q 599 456 621 472 q 557 427 578 439 q 526 411 536 415 q 507 415 519 408 q 482 434 494 422 q 462 461 469 446 q 458 490 454 476 m 161 490 q 183 519 165 501 q 222 550 201 536 q 260 571 243 564 q 276 568 276 578 q 294 524 278 531 q 329 522 311 517 q 361 533 347 526 q 371 531 375 540 q 344 492 363 511 q 303 456 325 472 q 260 427 281 439 q 231 411 240 415 q 210 415 224 408 q 185 434 197 422 q 165 461 172 446 q 161 490 157 476 "},"":{"ha":0,"x_min":0,"x_max":0,"o":""},"":{"ha":0,"x_min":0,"x_max":0,"o":""},"":{"ha":0,"x_min":0,"x_max":0,"o":""},"":{"ha":642,"x_min":44,"x_max":572,"o":"m 197 372 l 572 372 l 419 296 l 44 296 l 197 372 "},"":{"ha":929,"x_min":0,"x_max":868,"o":"m 0 868 l 868 868 l 868 0 l 0 0 l 0 868 m 28 28 l 840 28 l 840 840 l 28 840 l 28 28 "},"":{"ha":1122,"x_min":4,"x_max":1096,"o":"m 117 4 q 135 165 128 82 q 133 322 142 249 q 97 450 125 394 q 8 529 68 506 q 24 551 4 531 q 70 597 43 572 q 124 641 97 621 q 158 663 150 661 q 221 626 196 667 q 260 527 246 586 q 282 405 275 468 q 290 301 289 342 q 292 258 292 261 q 412 382 349 318 q 542 507 475 446 q 677 622 608 568 q 817 715 746 676 q 958 775 888 754 q 1096 792 1028 796 l 1001 593 q 844 585 931 606 q 664 515 757 565 q 476 382 571 464 q 297 189 382 300 q 263 145 282 169 q 222 97 243 121 q 182 51 201 72 q 147 17 163 31 q 124 -1 132 3 q 117 4 115 -6 "},"":{"ha":933,"x_min":1,"x_max":892,"o":"m 622 304 l 710 304 q 820 270 779 304 q 876 188 861 236 q 881 89 892 140 q 835 3 869 38 q 749 -43 800 -32 q 649 -39 697 -54 q 567 18 601 -24 q 533 129 533 60 l 533 215 l 360 215 l 360 129 q 326 18 360 60 q 244 -39 292 -24 q 144 -43 196 -54 q 58 3 93 -32 q 13 89 24 38 q 16 188 1 140 q 72 270 31 236 q 183 304 113 304 l 271 304 l 271 478 l 183 478 q 72 512 114 478 q 16 594 31 546 q 13 693 1 642 q 58 779 24 744 q 144 825 93 814 q 244 822 196 836 q 326 765 292 807 q 360 653 360 724 l 360 567 l 533 567 l 533 653 q 567 764 533 722 q 649 821 601 806 q 749 825 697 836 q 835 779 800 814 q 881 693 869 744 q 877 594 892 642 q 821 512 863 546 q 710 478 779 478 l 622 478 l 622 304 m 271 567 l 271 653 q 253 709 271 689 q 211 735 235 729 q 162 736 188 742 q 122 717 136 731 q 100 675 106 700 q 101 626 94 650 q 127 584 107 601 q 183 567 147 567 l 271 567 m 710 567 q 766 584 746 567 q 793 626 786 601 q 794 675 800 650 q 772 717 789 700 q 732 736 757 731 q 683 735 707 742 q 640 708 658 728 q 622 653 622 688 l 622 567 l 710 567 m 183 215 q 128 198 147 215 q 101 157 108 181 q 100 108 94 133 q 122 67 106 83 q 162 47 136 51 q 211 48 188 42 q 253 74 235 54 q 271 129 271 93 l 271 215 l 183 215 m 622 215 l 622 129 q 640 73 622 93 q 683 47 658 53 q 732 46 707 40 q 772 67 757 51 q 794 108 789 83 q 793 157 800 133 q 765 198 786 181 q 710 215 744 215 l 622 215 m 533 304 l 533 478 l 360 478 l 360 304 l 533 304 "},"":{"ha":556,"x_min":0,"x_max":0,"o":""},"":{"ha":597,"x_min":0,"x_max":578,"o":"m 578 289 l 289 0 l 0 289 l 289 578 l 578 289 m 289 33 l 544 289 l 289 544 l 33 289 l 289 33 "},"":{"ha":1036,"x_min":29,"x_max":992,"o":"m 476 92 q 450 82 465 92 q 417 60 435 72 q 380 34 400 47 q 339 13 360 21 q 230 15 281 -10 q 140 97 179 40 q 74 233 100 154 q 38 399 47 313 q 40 569 29 485 q 85 718 51 653 q 179 823 119 783 q 329 858 239 863 q 428 833 389 856 q 489 785 467 810 q 520 742 511 760 q 531 733 529 725 q 541 791 536 768 q 551 835 546 814 q 565 877 557 856 q 586 929 574 899 q 601 940 589 938 q 625 941 613 943 q 647 933 638 939 q 654 917 656 926 q 635 870 649 892 q 610 827 622 849 q 592 782 599 806 q 590 729 585 758 q 602 727 592 721 q 630 748 613 733 q 671 781 647 763 q 723 816 694 800 q 784 842 751 832 q 851 850 817 853 q 938 813 907 846 q 980 742 968 779 q 988 674 992 704 q 975 642 985 643 q 847 598 900 635 q 769 492 794 561 q 750 401 754 451 q 758 306 746 350 q 802 237 769 263 q 893 221 835 211 q 883 201 894 221 q 850 152 871 181 q 801 92 829 124 q 738 38 772 61 q 667 5 704 14 q 590 13 629 -4 q 558 34 571 21 q 532 60 544 47 q 506 82 519 72 q 476 92 493 92 "}}}
